<?xml version="1.0" encoding="UTF-8"?><svg xmlns="http://www.w3.org/2000/svg" xmlns:xlink="http://www.w3.org/1999/xlink" viewBox="0 0 197.59 111.86"><defs><linearGradient id="uuid-eee2ccf3-f217-4af4-863e-603aab11432c" x1="52.33" y1="24.39" x2="49.81" y2="40.04" gradientUnits="userSpaceOnUse"><stop offset="0" stop-color="#00b370"/><stop offset="1" stop-color="#00855e"/></linearGradient><linearGradient id="uuid-75b87430-0ab6-4cec-8cf7-caa1cae5b364" x1="14.82" y1="35.47" x2="23.22" y2="52.73" xlink:href="#uuid-eee2ccf3-f217-4af4-863e-603aab11432c"/><linearGradient id="uuid-adcf3b6a-a13b-45a7-98c3-becae5ff997a" x1="38.51" y1="37.83" x2="47.3" y2="62.14" xlink:href="#uuid-eee2ccf3-f217-4af4-863e-603aab11432c"/><linearGradient id="uuid-0946a279-d425-4466-8c48-3bb11a5e645f" x1="-24.66" y1="468.91" x2="-15.86" y2="493.23" gradientTransform="translate(289.14 -424) rotate(11.23)" xlink:href="#uuid-eee2ccf3-f217-4af4-863e-603aab11432c"/><linearGradient id="uuid-95c89af4-0a51-4e0a-9898-308527beffc6" x1="144.14" y1="7.95" x2="141.62" y2="23.6" xlink:href="#uuid-eee2ccf3-f217-4af4-863e-603aab11432c"/><linearGradient id="uuid-db97ebc1-5dbb-4a3b-ba94-40f3e5cecc0e" x1="106.62" y1="19.02" x2="115.03" y2="36.29" xlink:href="#uuid-eee2ccf3-f217-4af4-863e-603aab11432c"/><linearGradient id="uuid-4e0ea296-5e50-426d-83ef-47471fdf39af" x1="130.32" y1="21.39" x2="139.11" y2="45.7" xlink:href="#uuid-eee2ccf3-f217-4af4-863e-603aab11432c"/><linearGradient id="uuid-4c2f105f-9c70-4ac2-b943-6673b8f611f8" x1="4243.37" y1="38.27" x2="4241.42" y2="50.41" gradientTransform="translate(4393.42) rotate(-180) scale(1 -1)" xlink:href="#uuid-eee2ccf3-f217-4af4-863e-603aab11432c"/><linearGradient id="uuid-a5d2d553-f495-47ca-b9cb-6e660aa4db58" x1="4214.28" y1="46.86" x2="4220.79" y2="60.25" gradientTransform="translate(4393.42) rotate(-180) scale(1 -1)" xlink:href="#uuid-eee2ccf3-f217-4af4-863e-603aab11432c"/><linearGradient id="uuid-dbc44361-4157-45bd-a821-4e98abeee9df" x1="4232.65" y1="48.7" x2="4239.47" y2="67.55" gradientTransform="translate(4393.42) rotate(-180) scale(1 -1)" xlink:href="#uuid-eee2ccf3-f217-4af4-863e-603aab11432c"/></defs><g style="isolation:isolate;"><g id="uuid-48f91dac-bb8b-4f54-b491-bb6dd888f59b"><g id="uuid-23d21358-b5a2-4f48-8a98-ec343057809a"><g id="uuid-573ed5fb-7696-4767-bccf-49faed3dc903"><g><path d="m27.1,35.77s-.13-8.37,5.62-11.25c4.72-2.36,9.21.48,9.21.48,0,0,1.65-5.43,10.67-5.04,9.02.39,9.89,8.05,9.89,8.05,0,0,7.08-1.36,10.18,3.98s.39,14.45-11.83,15.13c-12.22.68-37.82,3.97-33.75-11.35Z" style="fill:url(#uuid-eee2ccf3-f217-4af4-863e-603aab11432c);"/><path d="m73.81,35.54c-.82,5.84-7.08,9.6-9.45,7.32-2.42-2.33-6.35-1.84-6.35-1.84,0,0-.15-3.78-6.74-7.11-6.6-3.33-12.56,2.26-12.56,2.26-2.91-7.52-10.43-5.91-10.43-5.91l-.25.09c-.96,2.8-.92,5.41-.92,5.41-4.07,15.32,21.53,12.03,33.75,11.35,9.78-.54,13.47-6.49,12.96-11.58Z" style="mix-blend-mode:overlay; opacity:.08;"/><path d="m37.57,39.72s-.65-8.92-10.47-9.57c-9.83-.65-9.96,7.76-9.96,7.76,0,0-5.3-.65-8.15,1.81-2.84,2.46-1.42,8.02-1.42,8.02,0,0-6.47,2.59-3.75,9.05,2.72,6.47,14.48,7.11,21.6,3.88,7.11-3.23,14.48-5.17,12.16-20.95Z" style="fill:url(#uuid-75b87430-0ab6-4cec-8cf7-caa1cae5b364);"/><path d="m37.57,39.72s-.06-.74-.37-1.81c-4.63-.22-6.74,6.5-6.74,6.5-5.82.78-9.31,9.89-9.31,9.89,0,0-4.07,6.45-9.76,5.37-9.54-1.81-6.86-9.65-6.86-9.65,0,0,0,0,0,0l-.47.65c-.91,1.44-1.36,3.45-.24,6.12,2.72,6.47,14.48,7.11,21.6,3.88,7.11-3.23,14.48-5.17,12.16-20.95Z" style="mix-blend-mode:overlay; opacity:.08;"/><path d="m56.97,42.95s-1.35-6.9-11.06-7.18c-9.71-.27-13.48,10.57-13.48,10.57,0,0-5.43-.19-8.83,5.83-3.39,6.01,2.04,11.35,7.47,11.35s7.47-1.36,7.47-1.36c0,0,9.7,3.98,15.71-4.17,0,0,7.08,1.36,9.8-4.27,2.72-5.63,0-12.03-7.08-10.77Z" style="fill:url(#uuid-adcf3b6a-a13b-45a7-98c3-becae5ff997a);"/><path d="m60.96,53.39c-2.72,1.26-7.08-.48-7.08-.48,0,0-.97,5.92-5.82,6.98-4.85,1.07-9.46-4.66-9.46-4.66,0,0-3.3,5.43-9.75,4.9-4.38-.36-5.72-3.68-6.13-5.77-1.17,5.06,3.58,9.15,8.34,9.15,5.43,0,7.47-1.36,7.47-1.36,0,0,9.7,3.98,15.71-4.17,0,0,7.08,1.36,9.8-4.27,1.28-2.64,1.35-5.45.34-7.56.71,4.54-.71,5.98-3.43,7.24Z" style="mix-blend-mode:overlay; opacity:.08;"/><path d="m190.72,39.72s.02-7.04-9.45-9.19c-9.47-2.16-15.28,7.74-15.28,7.74,0,0-5.29-1.24-9.79,3.99-4.5,5.24-.21,11.53,5.11,12.59,5.33,1.06,7.59.12,7.59.12,0,0,8.74,5.79,16.22-1.03,0,0,6.68,2.71,10.44-2.28,3.76-4.99,2.34-11.8-4.85-11.94Z" style="fill:url(#uuid-0946a279-d425-4466-8c48-3bb11a5e645f);"/><path d="m192.61,50.74c-2.91.71-6.85-1.86-6.85-1.86,0,0-2.1,5.61-7.07,5.72s-8.37-6.41-8.37-6.41c0,0-4.29,4.68-10.51,2.9-4.23-1.21-4.9-4.72-4.89-6.85-2.13,4.73,1.73,9.67,6.4,10.6,5.33,1.06,7.59.12,7.59.12,0,0,8.74,5.79,16.22-1.03,0,0,6.68,2.71,10.44-2.28,1.77-2.34,2.39-5.09,1.81-7.35-.19,4.59-1.86,5.73-4.77,6.43Z" style="mix-blend-mode:overlay; opacity:.08;"/></g><g><path d="m118.91,19.32s-.13-8.37,5.62-11.25c4.72-2.36,9.21.48,9.21.48,0,0,1.65-5.43,10.67-5.04,9.02.39,9.89,8.05,9.89,8.05,0,0,7.08-1.36,10.18,3.98,3.1,5.33.39,14.45-11.83,15.13s-37.82,3.97-33.75-11.35Z" style="fill:url(#uuid-95c89af4-0a51-4e0a-9898-308527beffc6);"/><path d="m165.62,19.1c-.82,5.84-7.08,9.6-9.45,7.32-2.42-2.33-6.35-1.84-6.35-1.84,0,0-.15-3.78-6.74-7.11-6.6-3.33-12.56,2.26-12.56,2.26-2.91-7.52-10.43-5.91-10.43-5.91l-.25.09c-.96,2.8-.92,5.41-.92,5.41-4.07,15.32,21.53,12.03,33.75,11.35,9.78-.54,13.47-6.49,12.96-11.58Z" style="mix-blend-mode:overlay; opacity:.08;"/><path d="m129.38,23.27s-.65-8.92-10.47-9.57c-9.83-.65-9.96,7.76-9.96,7.76,0,0-5.3-.65-8.15,1.81-2.84,2.46-1.42,8.02-1.42,8.02,0,0-6.47,2.59-3.75,9.05,2.72,6.47,14.48,7.11,21.6,3.88,7.11-3.23,14.48-5.17,12.16-20.95Z" style="fill:url(#uuid-db97ebc1-5dbb-4a3b-ba94-40f3e5cecc0e);"/><path d="m129.38,23.27s-.06-.74-.37-1.81c-4.63-.22-6.74,6.5-6.74,6.5-5.82.78-9.31,9.89-9.31,9.89,0,0-4.07,6.45-9.76,5.37-9.54-1.81-6.86-9.65-6.86-9.65t0,0l-.47.65c-.91,1.44-1.36,3.45-.24,6.12,2.72,6.47,14.48,7.11,21.6,3.88,7.11-3.23,14.48-5.17,12.16-20.95Z" style="mix-blend-mode:overlay; opacity:.08;"/><path d="m148.77,26.51s-1.35-6.9-11.06-7.18c-9.71-.27-13.48,10.57-13.48,10.57,0,0-5.43-.19-8.83,5.83s2.04,11.35,7.47,11.35,7.47-1.36,7.47-1.36c0,0,9.7,3.98,15.71-4.17,0,0,7.08,1.36,9.8-4.27,2.72-5.63,0-12.03-7.08-10.77Z" style="fill:url(#uuid-4e0ea296-5e50-426d-83ef-47471fdf39af);"/><path d="m152.77,36.95c-2.72,1.26-7.08-.48-7.08-.48,0,0-.97,5.92-5.82,6.98-4.85,1.07-9.46-4.66-9.46-4.66,0,0-3.3,5.43-9.75,4.9-4.38-.36-5.72-3.68-6.13-5.77-1.17,5.06,3.58,9.15,8.34,9.15,5.43,0,7.47-1.36,7.47-1.36,0,0,9.7,3.98,15.71-4.17,0,0,7.08,1.36,9.8-4.27,1.28-2.64,1.35-5.45.34-7.56.71,4.54-.71,5.98-3.43,7.24Z" style="mix-blend-mode:overlay; opacity:.08;"/><path d="m134.18,30.5s7.54-1.82,15.4-.03c7.86,1.79,12.19,5.75,13.89,8.13,1.69,2.38-2.45,9.62-8.94,6.92-6.49-2.7-15.15,2.46-19.04-3.02-3.89-5.47-5.77-8.38-1.31-12Z" style="fill:#e1da38;"/><g><path d="m141.38,45.14c1.33-2.52,4.37-10.07.83-15.46-1.93,0-3.65.14-4.99.31,1.85,3.22,4.59,9.55,1.22,14.69.9.31,1.89.44,2.95.46Z" style="fill:#9a9039;"/><path d="m153.69,45.22c.28.09.56.18.84.3.64.26,1.25.43,1.83.52,1.81-2.68,4.06-6.72,4.34-10.34-.87-.73-1.91-1.47-3.14-2.17-.07,2.01-.55,8.53-3.88,11.69Z" style="fill:#9a9039;"/><path d="m149.41,44.67c1.36-2.43,3.8-7.89,2.25-13.67-.66-.2-1.35-.38-2.07-.54-.82-.19-1.63-.33-2.43-.44,1.28,2.83,2.9,8.52-.69,14.82.98-.08,1.96-.15,2.94-.16Z" style="fill:#9a9039;"/></g><path d="m174.34,48.4s7.79-6.28,8.77-11.09c.98-4.81-6.62-8.21-3.92-10.93,2.69-2.72,8.98,6.03,8.56,10.43-.42,4.41-7.07,13.01-9.89,14.71-2.82,1.7-4.93-.43-3.52-3.13Z" style="fill:#e1da38;"/><g><path d="m179.56,45.54c-.44-.73-.41-1.43-.35-1.8-1.26,1.41-2.56,2.65-3.51,3.49.06.11.12.22.18.34.68,1.2,1.72,2.21,3.09,3.04.02.01.04.02.05.03.88-.78,1.91-1.9,2.96-3.18-1.16-.53-1.99-1.17-2.43-1.91Z" style="fill:#9a9039;"/><path d="m183.16,35.9c1-.04,2.02-.23,3.01-.66.42-.18.87-.42,1.33-.75-.35-1.31-1-2.72-1.8-4.03-.33.41-.72.72-1.18.92-1.08.47-2.46.37-3.67.1,1.05,1.32,2.12,2.78,2.32,4.41Z" style="fill:#9a9039;"/><path d="m180.37,42.37c1.19,1.06,2.41,1.85,3.66,2.36.83-1.21,1.6-2.46,2.23-3.66-1.17-.34-2.39-1.12-3.61-2.32-.52,1.2-1.34,2.44-2.28,3.62Z" style="fill:#9a9039;"/></g></g><polygon points="119.81 111.86 148.72 106.79 153.05 96.64 142.89 92.23 123.47 93.82 119.81 111.86" style="opacity:.25;"/><g><path d="m169.62,47.1s.1-6.49-4.36-8.72c-3.66-1.83-7.15.38-7.15.38,0,0-1.28-4.21-8.27-3.91-7,.3-7.67,6.24-7.67,6.24,0,0-5.49-1.05-7.9,3.08-2.41,4.14-.3,11.21,9.18,11.74,9.48.53,29.33,3.08,26.17-8.81Z" style="fill:url(#uuid-4c2f105f-9c70-4ac2-b943-6673b8f611f8);"/><path d="m133.39,46.92c.64,4.53,5.49,7.45,7.33,5.68,1.88-1.81,4.93-1.43,4.93-1.43,0,0,.11-2.93,5.23-5.52,5.12-2.58,9.74,1.75,9.74,1.75,2.26-5.83,8.09-4.58,8.09-4.58l.19.07c.75,2.17.72,4.19.72,4.19,3.16,11.89-16.7,9.33-26.17,8.81-7.58-.42-10.44-5.03-10.05-8.98Z" style="mix-blend-mode:overlay; opacity:.08;"/><path d="m161.5,50.16s.5-6.92,8.12-7.42c7.62-.5,7.72,6.02,7.72,6.02,0,0,4.11-.5,6.32,1.4,2.21,1.91,1.1,6.22,1.1,6.22,0,0,5.02,2.01,2.91,7.02-2.11,5.02-11.23,5.52-16.75,3.01-5.52-2.51-11.23-4.01-9.43-16.25Z" style="fill:url(#uuid-a5d2d553-f495-47ca-b9cb-6e660aa4db58);"/><path d="m161.5,50.16s.04-.58.28-1.41c3.59-.17,5.23,5.04,5.23,5.04,4.51.6,7.22,7.67,7.22,7.67,0,0,3.16,5,7.57,4.16,7.4-1.4,5.32-7.48,5.32-7.48,0,0,0,0,0,0l.37.5c.71,1.12,1.06,2.67.18,4.75-2.11,5.01-11.23,5.52-16.75,3.01-5.52-2.51-11.23-4.01-9.43-16.25Z" style="mix-blend-mode:overlay; opacity:.08;"/><path d="m146.45,52.67s1.05-5.36,8.58-5.57c7.53-.21,10.46,8.19,10.46,8.19,0,0,4.21-.15,6.85,4.52,2.63,4.66-1.58,8.8-5.79,8.8s-5.79-1.05-5.79-1.05c0,0-7.52,3.08-12.19-3.23,0,0-5.49,1.05-7.6-3.31-2.11-4.36,0-9.33,5.49-8.35Z" style="fill:url(#uuid-dbc44361-4157-45bd-a821-4e98abeee9df);"/><path d="m143.35,60.76c2.11.98,5.49-.38,5.49-.38,0,0,.75,4.59,4.51,5.42,3.76.83,7.33-3.61,7.33-3.61,0,0,2.56,4.21,7.56,3.8,3.4-.28,4.44-2.85,4.76-4.47.91,3.92-2.78,7.09-6.47,7.09-4.21,0-5.79-1.05-5.79-1.05,0,0-7.52,3.08-12.19-3.23,0,0-5.49,1.05-7.6-3.31-.99-2.05-1.05-4.23-.27-5.87-.55,3.52.55,4.64,2.66,5.62Z" style="mix-blend-mode:overlay; opacity:.08;"/></g><polygon points="130.94 84.09 151.62 80.33 166.32 72.69 167.09 68.24 162.38 55.99 149.87 49.64 141.31 42.02 130.94 84.09" style="opacity:.25;"/><g><g><polygon points="83.01 55.11 90.68 55.75 92.9 57.15 92.28 59.47 88.18 66.72 85.94 73.61 81.97 74.29 83.01 55.11" style="fill:#d5cfbb;"/><polygon points="67.63 19.22 70.51 18.4 80.2 29.14 76.24 29.19 67.63 19.22" style="fill:#d5cfbb;"/><polygon points="75.09 61.1 70.62 55.11 80.2 29.14 76.24 29.19 67.84 53.48 61.23 58.9 60.63 61.82 67.18 57.15 72.91 63.95 72.91 74.29 74.37 74.29 74.99 64.77 78.95 63.27 81.32 58.5 83.01 55.11 80.51 56.47 77.75 60.96 75.09 61.1" style="fill:#c3c2ab;"/><polygon points="92.28 59.47 92.9 57.15 102.76 58.2 99.7 52.03 99.15 42.6 112.57 34.32 120.6 35.53 125.18 43.96 133.3 50.22 135.8 69.35 119.14 80.68 95.82 78.05 100.95 66.35 99.57 61.82 92.28 59.47" style="fill:#d5cfbb;"/><polygon points="80.2 29.14 85.82 30.64 90.68 47.95 90.68 55.75 83.01 55.11 80.51 56.47 77.75 60.96 75.09 61.1 70.62 55.11 80.2 29.14" style="fill:#424a4c;"/><polygon points="101.65 34.08 99.57 15.23 92.9 18.4 85.82 30.64 90.68 47.95 90.68 55.75 92.9 57.15 92.21 50.4 92.21 39.82 101.65 34.08" style="fill:#e8e3cc;"/><polygon points="78.46 7.07 90.68 0 104.14 1.15 120.53 5.62 104.72 12.87 99.57 15.23 92.9 18.4 87.49 9.79 78.46 7.07" style="fill:#d5cfbb;"/><polygon points="146.63 48.45 135.8 35.35 129.83 19.22 120.53 5.62 99.57 15.23 101.65 34.08 112.57 34.32 120.6 35.53 125.18 43.96 133.3 50.22 135.8 69.35 148.72 64.7 146.63 48.45" style="fill:#c3c2ab;"/><polygon points="40.42 66.54 47.78 52.03 54.58 54.39 49.86 71.61 44.72 71.61 40.42 66.54" style="fill:#feedd5;"/><polygon points="51.35 48.45 51.35 38.66 57.22 31.18 62.91 34.08 56.52 48.45 51.35 48.45" style="fill:#feedd5;"/><polygon points="59.44 34.08 67.63 19.22 76.24 29.19 67.84 53.48 59.44 60.37 59.44 34.08" style="fill:#feedd5;"/><path d="m59.44,67.62l1.19-5.8,6.55-4.67,5.73,6.8s0,10.61,0,10.33-10,0-10,0l-3.47-6.67Z" style="fill:#feedd5;"/><polygon points="74.99 64.77 74.37 74.29 81.97 74.29 87.49 62.73 87.49 57.56 83.01 55.11 78.95 63.27 74.99 64.77" style="fill:#feedd5;"/><polygon points="92.28 59.47 88.18 66.72 84.85 76.96 87.49 79.23 95.82 78.05 100.95 66.35 99.57 61.82 92.28 59.47" style="fill:#feedd5;"/><polygon points="112.57 34.32 99.15 42.6 99.7 52.03 102.76 58.2 92.9 57.15 92.21 50.4 92.21 39.82 101.65 34.08 112.57 34.32" style="fill:#feedd5;"/><polygon points="70.51 18.4 78.46 7.07 87.49 9.79 92.9 18.4 85.82 30.64 80.2 29.14 70.51 18.4" style="fill:#feedd5;"/><polygon points="47.78 52.03 51.35 48.45 56.52 48.45 62.91 34.08 64.99 36.53 62.22 54.12 59.44 67.62 54.02 71.61 49.86 71.61 54.58 54.39 47.78 52.03" style="fill:#d5cfbb;"/><polygon points="107.48 80.68 112.57 57.5 120.53 59.47 122.61 66.44 119.7 85.23 107.48 80.68" style="fill:#feedd5;"/><polygon points="112.57 57.5 117.2 52.36 133.72 49.35 142.89 55.78 128.72 59.47 120.53 59.47 112.57 57.5" style="fill:#e8e3cc;"/><polygon points="119.7 85.23 130.94 84.09 148.72 74.74 151.56 67.82 142.89 55.78 128.72 59.47 120.53 59.47 122.61 66.44 119.7 85.23" style="fill:#d5cfbb;"/></g><polygon points="99.57 61.82 105.26 63.59 110.24 68.12 107.76 79.39 95.82 78.05 100.95 66.35 99.57 61.82" style="fill:#c3c2ab;"/></g><path d="m10.96,76.82l13.42-1.03s5.69-4.38,6.77-4.65c1.08-.27-.77-5.1-.77-5.1l-7.71-.99-11.71,11.77Z" style="opacity:.25;"/><g><polygon points="17.14 61.93 5.29 61.93 3.55 64.38 11.62 68.16 21.63 62.85 17.14 61.93" style="fill:#e8e3cc;"/><polygon points="0 72.3 3.55 64.38 11.62 68.16 10.96 76.82 3.91 74.44 0 72.3" style="fill:#feedd5;"/><polygon points="21.63 62.85 24.29 66.71 25.9 70.6 10.96 76.82 11.62 68.16 21.63 62.85" style="fill:#c3c2ab;"/></g><g><polygon points="128.5 90.94 111.85 90.94 109.41 94.38 120.75 99.7 134.82 92.23 128.5 90.94" style="fill:#e8e3cc;"/><polygon points="104.42 105.51 109.41 94.38 120.75 99.7 119.81 111.86 109.91 108.53 104.42 105.51" style="fill:#feedd5;"/><polygon points="134.82 92.23 138.55 97.65 140.81 103.12 119.81 111.86 120.75 99.7 134.82 92.23" style="fill:#c3c2ab;"/></g></g></g></g></g></svg>