<?xml version="1.0" encoding="UTF-8"?><svg id="uuid-1fc0139c-741f-4b34-8798-b74a7f2b5fc0" xmlns="http://www.w3.org/2000/svg" viewBox="0 0 61.41 56.77"><g id="uuid-2af757b1-291b-4dad-b73c-93f4a723c881"><g id="uuid-49a609d8-23e2-47d9-b99c-e8b5054354f2"><ellipse cx="35.48" cy="32.53" rx="25.93" ry="24.25" style="opacity:.1;"/><g><path d="m53.9,30.64l.02-7.38h-1.6c-3.75-8.96-13.69-15.36-25.36-15.36S5.35,14.31,1.6,23.27H0v7.49h.01c0,.14-.01.27-.01.41,0,12.85,12.07,23.27,26.96,23.27s26.42-9.97,26.93-22.44h0s0-.22,0-.22c0-.2.02-.4.02-.61,0-.18-.01-.35-.02-.52Z" style="fill:#00b8e4;"/><ellipse cx="26.96" cy="23.27" rx="26.96" ry="23.27" style="fill:#00ecff;"/><ellipse cx="26.96" cy="23.27" rx="18.66" ry="16.11" style="fill:#0088b0;"/></g></g></g></svg>