<?xml version="1.0" encoding="UTF-8"?><svg id="uuid-7be05ab6-1998-49d3-bf7f-17050696ff55" xmlns="http://www.w3.org/2000/svg" viewBox="0 0 60.29 60.34"><g id="uuid-1ae0031d-7545-4979-852e-463b947ee8f0"><g id="uuid-ae16e76f-caad-46b4-bd96-de22022da656"><ellipse cx="31.82" cy="32.52" rx="28.47" ry="27.82" style="opacity:.14;"/><g><g><ellipse cx="28.47" cy="27.82" rx="28.47" ry="27.82" style="fill:#fff;"/><ellipse cx="28.47" cy="27.82" rx="21.9" ry="21.4" style="fill:#23c920;"/></g><path d="m42.25,19.45l-.64.74.64-.74c-.79-.68-1.81-1.01-2.85-.92-1.04.08-1.99.57-2.66,1.36l-9.23,10.84-4.99-7.25c-.64-.93-1.66-1.55-2.78-1.69-1.12-.14-2.26.21-3.11.95-.83.72-1.31,1.73-1.35,2.83-.04,1.1.35,2.14,1.12,2.93l8.59,8.86c.55.57,1.32.89,2.11.89h0s.05,0,.07,0c.7,0,1.37-.26,1.89-.74l13.29-12.22c.82-.76,1.28-1.83,1.26-2.94-.02-1.12-.52-2.17-1.37-2.9Z" style="fill:#80ff62;"/></g></g></g></svg>