<?xml version="1.0" encoding="UTF-8"?><svg id="uuid-c982151f-bfe6-43ae-8dac-54f6ebeff68c" xmlns="http://www.w3.org/2000/svg" viewBox="0 0 61.41 56.77"><g id="uuid-841410db-c4fd-4f31-8eb5-0552a5f67eb2"><g id="uuid-8defde07-e304-402d-9957-f7b063667d9b"><ellipse cx="35.48" cy="32.53" rx="25.93" ry="24.25" style="opacity:.1;"/><g><path d="m53.9,30.64l.02-7.38h-1.6c-3.75-8.96-13.69-15.36-25.36-15.36S5.35,14.31,1.6,23.27H0v7.49h.01c0,.14-.01.27-.01.41,0,12.85,12.07,23.27,26.96,23.27s26.42-9.97,26.93-22.44h0s0-.22,0-.22c0-.2.02-.4.02-.61,0-.18-.01-.35-.02-.52Z" style="fill:#7492a4;"/><ellipse cx="26.96" cy="23.27" rx="26.96" ry="23.27" style="fill:#a1c3d0;"/><ellipse cx="26.96" cy="23.27" rx="18.66" ry="16.11" style="fill:#daeeee;"/></g></g></g></svg>