<?xml version="1.0" encoding="UTF-8"?><svg xmlns="http://www.w3.org/2000/svg" xmlns:xlink="http://www.w3.org/1999/xlink" viewBox="0 0 153.64 111.73"><defs><linearGradient id="uuid-26ab288c-1aa0-4219-b2b9-2f6054d87f8f" x1="80.69" y1="-16.18" x2="80.69" y2="26.14" gradientUnits="userSpaceOnUse"><stop offset="0" stop-color="#00b370"/><stop offset="1" stop-color="#00745e"/></linearGradient><linearGradient id="uuid-43030c96-8d04-4f2d-83e9-595d1d3c5fde" x1="80.13" y1="34.6" x2="80.13" y2="52.84" gradientUnits="userSpaceOnUse"><stop offset="0" stop-color="#42bd4c"/><stop offset=".54" stop-color="#35ab54"/><stop offset="1" stop-color="#28995e"/></linearGradient><linearGradient id="uuid-9f7b60cb-c993-48b0-8652-67aad6aa6820" x1="40.56" y1="36.16" x2="40.56" y2="59.81" gradientUnits="userSpaceOnUse"><stop offset="0" stop-color="#00b370"/><stop offset="1" stop-color="#00855e"/></linearGradient><linearGradient id="uuid-b47eb963-4433-4416-97e2-ebcd0c2de860" x1="841.91" y1="18.75" x2="842.24" y2="49.18" gradientTransform="translate(969.96) rotate(-180) scale(1 -1)" xlink:href="#uuid-9f7b60cb-c993-48b0-8652-67aad6aa6820"/><linearGradient id="uuid-52e1f217-3c53-4fd6-944c-e461cf51cf57" x1="833.43" y1="45.34" x2="833.43" y2="61.16" gradientTransform="translate(969.96) rotate(-180) scale(1 -1)" xlink:href="#uuid-9f7b60cb-c993-48b0-8652-67aad6aa6820"/><linearGradient id="uuid-4b2219b4-b99f-4e7c-8ebc-f171e7e078cc" x1="23.35" y1="77.62" x2="23.35" y2="95.87" xlink:href="#uuid-43030c96-8d04-4f2d-83e9-595d1d3c5fde"/><linearGradient id="uuid-49638af9-1f90-40a5-b214-b52b2918aa17" x1="92.12" y1="56.09" x2="92.64" y2="62.25" gradientUnits="userSpaceOnUse"><stop offset="0" stop-color="#ecffdc"/><stop offset="1" stop-color="#b3b6a6"/></linearGradient><linearGradient id="uuid-7bfa6512-3ccd-458c-9fcc-c3e20ab9c006" x1="92.41" y1="49.86" x2="95.07" y2="60.82" gradientUnits="userSpaceOnUse"><stop offset="0" stop-color="#c6c6ac"/><stop offset="1" stop-color="#8c9c8c"/></linearGradient><radialGradient id="uuid-3dfca0b2-befa-485d-a2ed-784de542432c" cx="97.62" cy="56.72" fx="97.62" fy="56.72" r="18.75" gradientUnits="userSpaceOnUse"><stop offset="0" stop-color="#aeb4a4"/><stop offset="1" stop-color="#8c9c8c"/></radialGradient><linearGradient id="uuid-c30d5f0c-96f9-4869-8882-a353ddd4a22d" x1="87.09" y1="68.88" x2="93.18" y2="78.7" xlink:href="#uuid-49638af9-1f90-40a5-b214-b52b2918aa17"/><radialGradient id="uuid-a3a5be4f-260a-43ae-8695-c6b4c608ace8" cx="97.62" cy="56.72" fx="97.62" fy="56.72" r="18.75" xlink:href="#uuid-3dfca0b2-befa-485d-a2ed-784de542432c"/><linearGradient id="uuid-fc11e566-d201-402d-a08b-8bc442da5d1b" x1="96.63" y1="62.96" x2="102.72" y2="72.78" xlink:href="#uuid-49638af9-1f90-40a5-b214-b52b2918aa17"/><radialGradient id="uuid-bdd684fd-5e7e-49b7-beb6-e54218644c5d" cx="97.62" cy="56.72" fx="97.62" fy="56.72" r="18.75" xlink:href="#uuid-3dfca0b2-befa-485d-a2ed-784de542432c"/><linearGradient id="uuid-b2465802-f737-4f12-b0da-e5072d1e3132" x1="106.54" y1="56.82" x2="112.63" y2="66.64" xlink:href="#uuid-49638af9-1f90-40a5-b214-b52b2918aa17"/><radialGradient id="uuid-c4c67f4e-186e-41f4-adb4-a87ff28dbc17" cx="97.02" cy="56.72" fx="97.02" fy="56.72" r="18.75" xlink:href="#uuid-3dfca0b2-befa-485d-a2ed-784de542432c"/><radialGradient id="uuid-a1bd8cd1-4f4a-4150-ae01-52700f52058a" cx="96.76" cy="56.72" fx="96.76" fy="56.72" r="18.75" xlink:href="#uuid-3dfca0b2-befa-485d-a2ed-784de542432c"/><linearGradient id="uuid-04f02cf0-f431-4129-a2fb-ed816ddfbe0e" x1="57.47" y1="77.55" x2="55.1" y2="89.28" gradientUnits="userSpaceOnUse"><stop offset="0" stop-color="#ecffdc"/><stop offset="1" stop-color="#cccac8"/></linearGradient><linearGradient id="uuid-b91d33d2-51a3-4de1-b438-29dc52173f87" x1="84.58" y1="98.27" x2="99.51" y2="110" xlink:href="#uuid-7bfa6512-3ccd-458c-9fcc-c3e20ab9c006"/><linearGradient id="uuid-2dc3d412-e513-4c2b-8586-d14b24026327" x1="39.19" y1="102.1" x2="48.32" y2="90.25" xlink:href="#uuid-04f02cf0-f431-4129-a2fb-ed816ddfbe0e"/><linearGradient id="uuid-cb10a6bf-9a83-41d3-84d0-2a9268786002" x1="112.51" y1="52.75" x2="118.6" y2="62.57" xlink:href="#uuid-49638af9-1f90-40a5-b214-b52b2918aa17"/><linearGradient id="uuid-49e60e8a-ae57-4fbf-821c-717d8dd697d0" x1="116.78" y1="49.94" x2="122.87" y2="59.76" xlink:href="#uuid-49638af9-1f90-40a5-b214-b52b2918aa17"/><linearGradient id="uuid-bb6a3dbc-5730-4c19-950d-a6aec84eb3c6" x1="46.4" y1="89.93" x2="93.44" y2="57.04" gradientUnits="userSpaceOnUse"><stop offset="0" stop-color="#aeb4a4"/><stop offset="1" stop-color="#686c6e"/></linearGradient><linearGradient id="uuid-5b18d9f5-2b52-468a-9189-6b9e96209cf5" x1="92.56" y1="89.46" x2="92.56" y2="105.2" xlink:href="#uuid-9f7b60cb-c993-48b0-8652-67aad6aa6820"/></defs><g style="isolation:isolate;"><g id="uuid-de73e9a0-ad1e-42c1-8345-cdf7cc8dcfc5"><g id="uuid-c7f22ce7-4924-49ec-9d63-6f3c7c2975df"><g id="uuid-5e11868c-be59-441a-9ad8-1fad0862918a"><path d="m40.56,44.38s-5.02-16.04.04-19.66c5.06-3.63,11.62,1.18,11.62,1.18,0,0-2.95-7.93,1.01-9.53,3.96-1.6,8.09,1.69,8.09,1.69,0,0-1.52-11.47,2.87-14,4.38-2.53,8.12,3.96,7.85,8.52,0,0,13.39-16.02,20.48-11.89,7.08,4.13-.84,11.8-.84,11.8,0,0,9.67-3.88,15.17.08,5.49,3.96-.98,10.13-.98,10.13,0,0,5.37-1.93,9.63.75,4.26,2.68.8,9.44-1.73,10.2-2.53.76,8.85-.84,9.27,5.56.42,6.41-21.08,12.22-22.26,12.22-1.18,0-41.82-.66-42.66-.67-.84,0-11.86-2.53-11.86-2.53l-5.7-3.86Z" style="fill:url(#uuid-26ab288c-1aa0-4219-b2b9-2f6054d87f8f);"/><g><g><g><path d="m74.59,54.34s-10.1,4.1-15.66,1.76c-5.56-2.34.73-6.44,6.44-6.73,0,0-5.27-3.95-3.8-6.88,1.46-2.93,9.36-.29,9.36-.29,0,0-3.37-4.83-.59-9.8,2.78-4.97,6.73,5.85,6.73,5.85,0,0,.73-9.95,7.31-10.97,6.58-1.02,1.03,10.39,1.03,10.39,0,0,7.17-5.56,11.27-1.17,4.1,4.39-6.88,6.15-6.88,6.15,0,0,11.56-.44,13.46,4.1,1.9,4.54-10.1,2.49-10.1,2.49,0,0,7.9,3.51,4.97,6.29-2.93,2.78-12.29-1.76-12.29-1.76,0,0,.44,6.29-3.95,6-4.39-.29-3.95-4.83-3.95-4.83,0,0-5.42,6.44-3.37-.58Z" style="fill:url(#uuid-43030c96-8d04-4f2d-83e9-595d1d3c5fde);"/><path d="m93.67,49.45c1.68,1.22,2.32,4.16-.54,4.06-3.04-.11-8.03-2.04-8.03-2.04,0,0-1.37,5.4-3.54,5.91-2.17.51-2.02-5.75-2.02-5.75,0,0-2.49,1.84-3.4,1.63-.9-.22.16-2.73.16-2.73-5.86,4.5-14.59,4.61-15.13,2.33-.54-2.26,2.16-3.23,2.2-3.24-5.01.98-9.34,4.41-4.43,6.48,5.56,2.34,15.66-1.76,15.66-1.76-2.05,7.02,3.37.58,3.37.58,0,0-.44,4.54,3.95,4.83,4.39.29,3.95-6,3.95-6,0,0,9.36,4.54,12.29,1.76,2.47-2.35-2.79-5.23-4.48-6.06Z" style="mix-blend-mode:overlay; opacity:.12;"/></g><path d="m37.64,43.6s-4.97-13.23,2.31-13.79c7.28-.56,4.17,11.22,3.34,12.79,0,0,4.06-5.46,10.52-4.6,6.46.86,2.3,7.35-2.94,8.53,0,0,10.25-1.18,16.47,2.87,9.51,6.18,3.68,16.44-12.24,11.76,0,0,3.29,2.3,3.61,4.9.5,3.99-11.62,6.34-15.36-1.73,0,0,.74,6.03-7.83,5.28-8.19-.71-8.1-4.28-4.45-7.84,0,0-10.12,6.12-16.31.67-6.2-5.45,9.17-7.98,9.17-7.98,0,0-9.58,2.01-13.76-5.94-4.17-7.95,5.63-12.47,18.93-4.03,0,0-3.25-4.28.3-6.23,1.73-.95,5.83-2.02,8.25,5.33Z" style="fill:url(#uuid-9f7b60cb-c993-48b0-8652-67aad6aa6820);"/><path d="m71.05,53.09c.06,1.7-.48,3.97-3.42,5.12-5.04,1.97-15.52-.62-15.52-.62,2.83,1.86,3.17,8.55.62,9.38-2.55.83-10.14-5.1-10.14-5.1,0,0-5.93,4.96-8.55,3.17-2.62-1.79,1.24-6.9,1.24-6.9,0,0-9.59,3.24-11.44,1.17-1.85-2.07,5.1-5.24,5.1-5.24-10.42-1.17-16.92-2.96-17.73-7.8-.79-4.72,3.77-6.21,3.99-6.27-5.09.36-7.47,3.85-5.02,8.53,3.76,7.17,11.93,6.24,13.49,5.99-2.01.37-14.61,2.92-8.9,7.94,6.2,5.45,16.31-.67,16.31-.67-3.64,3.55-3.74,7.13,4.45,7.84,8.57.74,7.83-5.28,7.83-5.28,3.75,8.06,15.86,5.72,15.36,1.73-.32-2.6-3.61-4.9-3.61-4.9,13,3.82,19.27-2.33,15.95-8.07Z" style="mix-blend-mode:overlay; opacity:.12;"/></g><path d="m138.28,56.64c.1-.25,11.67,1.96,14.56,0,2.89-1.96-2.59-7.2-9.48-4.42,0,0,9.48-4.46,8.38-8.3-1.1-3.84-7.59-.94-7.59-.94,0,0,3.12-5.99-.27-7.13-3.58-1.21-5.02,4.1-5.02,4.1,0,0-1-8.18-5.88-8.26-4.89-.08-3.19,5.15-3.19,5.15,0,0-.9-8.59-5.98-8.59s-4.35,4.65-4.35,4.65c0,0-2.93-5.47-7.92-3.09-4.99,2.37-.2,10.31-.2,10.31,0,0-4.29-4.17-8.48-1.39-4.19,2.78,5.59,6.71,5.59,6.71,0,0-7.41,1.53-6.32,5.62,1.1,4.09,10.01,3.3,10.01,3.3,0,0-5.19.57-4.19,4.01,1,3.43,20.15,1.72,20.15,1.72l10.17-3.44Z" style="fill:url(#uuid-b47eb963-4433-4416-97e2-ebcd0c2de860);"/><path d="m130.59,60.89l-1.94.46s1.2,2.33.04,3.19c-1.16.86-8.35.86-8.35.86l3.14-1.13.74.93s3.85-1.04,3.51-4.72c-.34-3.68-1.64-1.01-1.64-1.01,0,0,.21,2.78-1.36,3.17-1.57.39-1.01-4.1-1.01-4.1l-8.63-.54-3.3-4.83-35.66,4.83-35.15,52.61s5.29,1.11,10.62,1.11,18.28-12.41,19.71-12.16c1.43.25,7.65,2.06,16.01,0,8.35-2.06,4.13-11.41,4.13-11.41,0,0,14.54-.24,19.2-2.55,4.66-2.31,6.6-3.84,6.41-6.19-.05-.63-.25-1.06-.52-1.36,1.2-.31,2.27-.7,3.06-1.18,2.91-1.78,3.19-4.02,3.15-5.03.36-.17.69-.38.97-.63,2.36-2.06,3.06-3.43,3.25-3.94,1.41-.33,2.72-.77,3.62-1.39,3.11-2.13,0-4.99,0-4.99Zm-19.26,9.33l1.49,1.49s2.89.8,5.85.83c-1.54,1.4-4.67,3.03-10.74,2.46l-1.3-2.73,4.7-2.05Zm-.29,11.37c-3.38.9-15.99,1.88-15.99,1.88l-2.49-4.19s3.7-2.03,6.07-2.39c2.37-.36,6.71,2.39,6.71,2.39,0,0,4.76-.03,9.04-.78-.36,1.03-1.23,2.52-3.34,3.09Zm3.48-11.97l-1.26-3.06,5.6-1.34.52,2.92s1.99-.03,4.37-.32c-.72,1.11-2.88,2.89-9.24,1.81Z" style="opacity:.17;"/><path d="m135.81,60.94s3.93,3.25,6.54,2.7c2.62-.54-1.75-4.22-2.4-4.22,0,0,6.33,2.06,8.94-1.62,2.62-3.68-6.98-1.95-6.98-1.95,0,0,7.09-3.9,6.11-8.11-.98-4.22-6.87,3.68-6.87,3.68,0,0,2.18-5.63-.65-7.03-2.84-1.41-3.93,3.57-3.93,3.57,0,0-.78-3.15-4.47-4.33-3.69-1.18-2.07,5.08-2.07,5.08,0,0-4.02-2.61-5.83-.17-1.81,2.44,2.01,6.55,2.01,6.55,0,0-2.29-.43-1.2,3.89,1.09,4.33,10.95,1.57,10.95,1.57" style="fill:url(#uuid-52e1f217-3c53-4fd6-944c-e461cf51cf57);"/><g><path d="m17.81,97.36s-10.1,4.1-15.66,1.76c-5.56-2.34.73-6.44,6.44-6.73,0,0-5.27-3.95-3.8-6.88,1.46-2.93,9.36-.29,9.36-.29,0,0-3.37-4.83-.59-9.8,2.78-4.97,6.73,5.85,6.73,5.85,0,0,.73-9.95,7.31-10.97,6.58-1.02,1.03,10.39,1.03,10.39,0,0,7.17-5.56,11.27-1.17,4.1,4.39-6.88,6.15-6.88,6.15,0,0,11.56-.44,13.46,4.1,1.9,4.54-10.1,2.49-10.1,2.49,0,0,7.9,3.51,4.97,6.29-2.93,2.78-12.29-1.76-12.29-1.76,0,0,.44,6.29-3.95,6-4.39-.29-3.95-4.83-3.95-4.83,0,0-5.42,6.44-3.37-.58Z" style="fill:url(#uuid-4b2219b4-b99f-4e7c-8ebc-f171e7e078cc);"/><path d="m36.89,92.48c1.68,1.22,2.32,4.16-.54,4.06-3.04-.11-8.03-2.04-8.03-2.04,0,0-1.37,5.4-3.54,5.91-2.17.51-2.02-5.75-2.02-5.75,0,0-2.49,1.84-3.4,1.63s.16-2.73.16-2.73c-5.86,4.5-14.59,4.61-15.13,2.33-.54-2.26,2.16-3.23,2.2-3.24-5.01.98-9.34,4.41-4.43,6.48,5.56,2.34,15.66-1.76,15.66-1.76-2.05,7.02,3.37.58,3.37.58,0,0-.44,4.54,3.95,4.83,4.39.29,3.95-6,3.95-6,0,0,9.36,4.54,12.29,1.76,2.47-2.35-2.79-5.23-4.48-6.06Z" style="mix-blend-mode:overlay; opacity:.12;"/></g><g><path d="m116.72,50.02c.19-.19.23-.4-.06-.64-.97-.8-1.84-1.2-1.84-1.2,0,0,0,0,0,0-.47-.25-.98-.35-1.49-.15-1.82.74-.7,1.77-2.05,1.71-.56-.02-1.16-.62-1.78-1.29.19-.23.19-.49-.19-.78-1.32-1.05-2.01-1.1-2.01-1.1,0,0,0,0,0,0-.18-.06-.36-.1-.54-.08-1.64.11-2.64,2.74-4.34,2.91-.78.08-1.33-.63-1.9-1.42.43-.21.7-.49.23-.83-1.04-.74-2.18-1.07-2.18-1.07h0c-.19-.06-.39-.11-.6-.12-2.17-.06-1.99.92-3.23,3.66-1.23,2.74-3.57,1.83-5.63-.8-.13-.17-.27-.33-.4-.49.31-.37.37-.72-.11-1-1.52-.88-2.83-1.18-2.83-1.18,0,0,0,0,0,0-1.03-.34-2.09-.25-3.17.32-2.29,1.2-1.7,5.54-4.46,6.53-1.4.51-2.64-.58-3.76-1.77.36-.43.56-1-.03-1.49-1.11-.93-2.82-.96-2.82-.96,0,0,0,0,0,.01-.04,0-.09-.03-.13-.03-1.89-.11-4.62,7.65-4.62,7.65l1.06,6.57c18.41-8.68,48.71-9.97,48.71-9.97l.47-.65v-1.9s-.11-.19-.3-.46Z" style="fill:url(#uuid-49638af9-1f90-40a5-b214-b52b2918aa17);"/><path d="m69.3,57.24s2.66-7.76,4.5-7.65c1.84.11,3.89,5.24,6.58,4.25,2.68-.99,2.11-5.33,4.34-6.53,2.23-1.2,4.34-.29,6.34,2.34,2,2.63,4.28,3.54,5.48.8s1.03-3.72,3.14-3.66c2.11.06,2.68,3.6,4.34,3.43,1.66-.17,2.63-2.8,4.22-2.91,1.6-.11,3.08,3.2,4.4,3.25,1.31.06.23-.97,2-1.71,1.77-.74,3.6,2.44,3.6,2.44v1.9l-.46.65s-29.52,1.29-47.44,9.97l-1.03-6.57Z" style="fill:url(#uuid-7bfa6512-3ccd-458c-9fcc-c3e20ab9c006);"/><path d="m73.8,63.27s7.38,3.43,11.79,7.61c4.42,4.19,4.19,13.7,4.11,15.45-.08,1.75.35,2.52,1.98,2.17,1.63-.35,1.83-14.42,1.83-14.42l-7.19-9.48s-9.44-4.59-12.51-3.55c-3.07,1.04,0,2.22,0,2.22Z" style="fill:url(#uuid-3dfca0b2-befa-485d-a2ed-784de542432c);"/><path d="m73.8,61.05s10.19,2.07,14.68,8.69c4.49,6.62,2.74,17.13,2.97,18.42.23,1.29,2.36-1.45,3.5-2.28,1.14-.84,2.89-12.48,0-17.89-2.89-5.4-13.17-9.59-13.63-9.9-.46-.3-3.41.2-7.53,2.96Z" style="fill:url(#uuid-c30d5f0c-96f9-4869-8882-a353ddd4a22d);"/><path d="m82.43,56.91s-.38,1.26,0,1.37c.38.11,9.29.77,13.36,2.61s5.63,5.99,6.51,9.72c.88,3.73,1.03,7.88,1.03,7.88,0,0-.11,1.33,2.02.8,2.13-.53-1.87-14.77-1.87-14.77l-5.75-6.2-6.55-1.94-8.75.53Z" style="fill:url(#uuid-a3a5be4f-260a-43ae-8695-c6b4c608ace8);"/><path d="m82.43,56.91s13.65-.88,17.98,5.12c4.34,5.99,3.83,14.83,4.28,16.69.46,1.87,3.54-1.39,3.77-2.19.23-.8.47-10.1-1.43-13.59-2.68-4.93-6.82-7.82-11.4-8.85-4.58-1.03-12.12,1.16-13.21,2.82Z" style="fill:url(#uuid-fc11e566-d201-402d-a08b-8bc442da5d1b);"/><path d="m98.63,53.18s-.06,1.14.15,1.33c.21.19,6.09,1.6,9.08,5.48,2.99,3.88,2.32,10.58,2.67,11.15.35.57,1.51.57,1.51.57l-1.37-12.22-4.04-3.54-4.19-2.36-3.81-.42Z" style="fill:url(#uuid-bdd684fd-5e7e-49b7-beb6-e54218644c5d);"/><path d="m98.87,52.71c-.32.1-.31.59.01.68,2.49.66,8.54,2.69,10.58,7.05,2.59,5.54,1.42,10.39,2.16,11.13.74.74,2.74-1.37,2.9-1.94.16-.57.58-9.82-2.8-13.25-2.36-2.4-4.65-3.62-5.81-4.14-.49-.22-1.02-.32-1.55-.3-1.22.04-3.67.2-5.5.76Z" style="fill:url(#uuid-b2465802-f737-4f12-b0da-e5072d1e3132);"/><path d="m110.06,52.82s-.17.78,0,1.01c.17.23,3.03,2.64,4.86,4.28,1.83,1.64,2.26,5.21,2.57,7.71.3,2.49.63,2.3,1.31,2.32.69.02-.48-8.54-.48-8.54l-2.14-4.14-2.77-1.97-3.35-.68Z" style="fill:url(#uuid-c4c67f4e-186e-41f4-adb4-a87ff28dbc17);"/><path d="m116.25,53.54c0,.18.09.35.24.46.92.69,4.35,3.29,5.04,4.01.8.84.95,6.24.95,6.4s-.04.87.88.81c.91-.06-.2-7.2-.2-7.2l-1.68-3.23-3.05-2.54-2.23-.12.06,1.43Z" style="fill:url(#uuid-a1bd8cd1-4f4a-4150-ae01-52700f52058a);"/><path d="m41.78,88.92s1.94-2.06,1.71-4.8c-.23-2.74-2.51-4.34-2.97-9.93s2.4-14.16,7.76-18.27c5.37-4.11,14.5-5.02,18.61-2.85,4.11,2.17,8.11,9.36,10.16,15.19,2.06,5.82-10.73,14.73-10.73,14.73,0,0,2.06,3.77.57,4.68-1.48.91-4.57,1.26-4.57,1.26,0,0,.46,4.45.23,6.62-.23,2.17-19.3,14.86-21.58,15.08-2.28.22-5.94,0-5.94,0l6.74-21.7Z" style="fill:url(#uuid-04f02cf0-f431-4129-a2fb-ed816ddfbe0e);"/><path d="m75.01,78.72s-5.94,3.12-5.63,4.57c.3,1.45,1.58,5.56-.01,7.16-1.59,1.6-3.34,2.97-3.34,4.26s.08,1.45,1.37,1.22c1.29-.23,9.21-5.25,9.21-6.7s-2.74-5.1-2.59-5.86c.15-.76,1.75-1.75,2.13-2.74s-1.14-1.9-1.14-1.9Z" style="fill:url(#uuid-b91d33d2-51a3-4de1-b438-29dc52173f87);"/><ellipse cx="57.52" cy="75.27" rx="5.47" ry="3.37" transform="translate(-37.2 76.94) rotate(-53.62)" style="fill:#424e58;"/><ellipse cx="46.7" cy="73.26" rx="3.07" ry="4.99" transform="translate(-12.73 9.89) rotate(-10.65)" style="fill:#424e58;"/><path d="m41.78,88.92s-8.91,6.62-10.28,8.91c-1.37,2.28-1.71,8.79-1.26,9.71.46.91,3.43,2.85,4.8,3.08,0,0,.23-2.63,5.14-5.14,1.22-.63,14.62-9.48,15.42-10.39.8-.91-11.01-8.32-13.82-6.17Z" style="fill:url(#uuid-2dc3d412-e513-4c2b-8586-d14b24026327);"/><path d="m37.16,98.48c.24,1.3-.21,2.48-1,2.63-.8.15-1.65-.78-1.89-2.08-.24-1.3.21-2.48,1-2.63s1.65.78,1.89,2.08Z" style="fill:#424e58;"/><path d="m41.2,103.1c-1.21.54-2.46.38-2.79-.36s.38-1.78,1.58-2.32c1.21-.54,2.46-.38,2.79.36.33.74-.38,1.78-1.58,2.32Z" style="fill:#424e58;"/><path d="m110.24,52.57c-.2.04-.25.31-.08.42,1.42.87,5.45,3.49,6.73,5.98,1.56,3.04,1.45,8.45,1.45,8.45,0,0,.19.65.46.72.27.08,1.14-.49,1.14-.49,0,0,.37-.61.23-1.09,0,0,.25-6.43-1.66-9.55-1.9-3.12-6.01-4.89-6.01-4.89l-2.25.45Z" style="fill:url(#uuid-cb10a6bf-9a83-41d3-84d0-2a9268786002);"/><path d="m116.2,52.12s4.68,3.09,5.94,4.95c1.26,1.86.83,7.25,1.06,7.85.23.6.54.14,1.06,0,.51-.14.51-6.39-.6-8.54-1.11-2.14-4.77-4.94-5.28-5.08-.51-.14-2.48.61-2.17.82Z" style="fill:url(#uuid-49e60e8a-ae57-4fbf-821c-717d8dd697d0);"/><path d="m40.98,110.62c2.28-.22,21.35-12.91,21.58-15.08.23-2.17-.23-6.62-.23-6.62,0,0,3.08-.34,4.57-1.26,1.48-.91-.57-4.68-.57-4.68,0,0,12.79-8.91,10.73-14.73-1.57-4.44-4.26-9.67-7.28-12.87,1.22,2.42,4.02,9.32.27,15.72-4.64,7.92-10.12,7.99-11.04,12.33s2.76,7.16-7.18,14.39c-9.12,6.63-15.05,8.47-16.5,11.84l-.29.95s3.65.23,5.94,0Z" style="fill:url(#uuid-bb6a3dbc-5730-4c19-950d-a6aec84eb3c6); opacity:.63;"/></g><g><path d="m77.71,95.06s-5.41,2.16-6.9,5.81c-1.49,3.65,7.5-.06,7.91-.06s-.88.06-.47,3.57c.41,3.52,8.25-.95,8.25-.95,0,0,4.06,5.41,9.2.54,0,0,2.3,2.03,6.36,2.03s-.54-4.46-.54-4.46c0,0,9.06,3.92,12.44,1.49,3.38-2.43-10.82-5-10.82-5,0,0,6.22.14,8.65-3.24,2.43-3.38-4.19-5.68-8.65-.95,0,0,4.19-10.68-1.35-13.25-5.54-2.57-4.46,10.68-4.46,10.68,0,0,1.05-9.05-6.64-10.27-7.69-1.22-.8,11.49-.8,11.49,0,0-2.16-5.41-10.01-5.54-7.84-.13,2.03,5.81,2.03,5.81,0,0-9.87-1.08-4.19,2.3Z" style="fill:url(#uuid-5b18d9f5-2b52-468a-9189-6b9e96209cf5);"/><path d="m101.88,104.85c-1.85,1.01-7.82-5.67-7.82-5.67,0,0-.71,5.76-3.03,5.42-2.31-.34-3.4-4.12-3.4-4.12,0,0-6.14,4.45-7.4,3.24-1.26-1.22,1.68-4.75,1.68-4.75,0,0-7.27,2.19-8.45,1.18-1.17-1.01,1.45-3.6,1.46-3.61-1.56,1-3.35,2.48-4.11,4.34-1.49,3.65,7.5-.06,7.91-.06s-.88.06-.47,3.57c.41,3.52,8.25-.95,8.25-.95,0,0,4.06,5.41,9.2.54,0,0,2.3,2.03,6.36,2.03s-.54-4.46-.54-4.46c0,0,2.22,2.29.37,3.3Z" style="mix-blend-mode:overlay; opacity:.12;"/></g></g></g></g></g></g></svg>