<?xml version="1.0" encoding="UTF-8"?><svg id="uuid-a5c72d4c-f222-4985-a61a-83a2803f495a" xmlns="http://www.w3.org/2000/svg" xmlns:xlink="http://www.w3.org/1999/xlink" viewBox="0 0 199.62 158.66"><defs><linearGradient id="uuid-a721d0e8-afb9-4f64-983e-09eb2af4df39" x1="94.85" y1="77.03" x2="67.53" y2="75.64" gradientUnits="userSpaceOnUse"><stop offset="0" stop-color="#bca994"/><stop offset="1" stop-color="#e8d4ba"/></linearGradient><linearGradient id="uuid-2de23c1c-2794-4dca-91a6-58db9b04be90" x1="118.08" y1="78.05" x2="51.26" y2="67.77" gradientUnits="userSpaceOnUse"><stop offset="0" stop-color="#bca994"/><stop offset="1" stop-color="#a08e77"/></linearGradient><linearGradient id="uuid-4571f20a-6e50-40e7-812a-005e65859c95" x1="100.39" y1="8.97" x2="80.93" y2="61.73" xlink:href="#uuid-2de23c1c-2794-4dca-91a6-58db9b04be90"/><linearGradient id="uuid-2452dcdf-8065-4352-b76c-b35513ead828" x1="89.51" y1="21.67" x2="76.03" y2="58.2" xlink:href="#uuid-a721d0e8-afb9-4f64-983e-09eb2af4df39"/><linearGradient id="uuid-c7da9020-0417-4398-91b4-073e70540da7" x1="77.47" y1="9.93" x2="99.32" y2="9.93" xlink:href="#uuid-a721d0e8-afb9-4f64-983e-09eb2af4df39"/><linearGradient id="uuid-61aa3b04-62f1-472e-a0ef-20a60d67281d" x1="100.95" y1="25.56" x2="109.19" y2="25.56" xlink:href="#uuid-2de23c1c-2794-4dca-91a6-58db9b04be90"/><linearGradient id="uuid-44c098a0-8765-4e17-887e-4051371c908c" x1="557.19" y1="137.34" x2="528.62" y2="132.76" gradientTransform="translate(-519.85)" xlink:href="#uuid-a721d0e8-afb9-4f64-983e-09eb2af4df39"/><linearGradient id="uuid-d680cd0f-af86-47fc-abfb-4d6bc4c50dd4" x1="531.06" y1="133.96" x2="562.42" y2="133.96" gradientTransform="translate(-519.85)" xlink:href="#uuid-2de23c1c-2794-4dca-91a6-58db9b04be90"/><linearGradient id="uuid-a70e7bb7-169a-43d3-8901-8906b4818c8e" x1="470.71" y1="-439.51" x2="532.15" y2="-439.51" gradientTransform="translate(-411.53 602.35) rotate(-7.39)" xlink:href="#uuid-2de23c1c-2794-4dca-91a6-58db9b04be90"/><linearGradient id="uuid-73f4556f-883a-431f-a48d-8134f8c8879a" x1="580.79" y1="-278.13" x2="597.72" y2="-278.13" gradientTransform="translate(-490.24 351.57) rotate(-2.49) scale(1.02 .82) skewX(9.15)" xlink:href="#uuid-2de23c1c-2794-4dca-91a6-58db9b04be90"/><linearGradient id="uuid-f7af22a2-f6b6-4c30-bb6d-be0a549f9673" x1="572.7" y1="27.27" x2="557.12" y2="18.01" gradientTransform="translate(-524.02 77.7) rotate(-1.94)" xlink:href="#uuid-a721d0e8-afb9-4f64-983e-09eb2af4df39"/><linearGradient id="uuid-f6b49a5f-dd3f-48d5-93ca-4cd1429adeae" x1="555.65" y1="30.79" x2="532.62" y2="67.02" gradientTransform="translate(-524.02 77.7) rotate(-1.94)" xlink:href="#uuid-a721d0e8-afb9-4f64-983e-09eb2af4df39"/><linearGradient id="uuid-f7576a38-c650-485f-b578-a816a27c623b" x1="205.85" y1="703.11" x2="170.29" y2="697.41" gradientTransform="translate(82.61 -585.81) rotate(11.88)" xlink:href="#uuid-a721d0e8-afb9-4f64-983e-09eb2af4df39"/><linearGradient id="uuid-457569e7-4a3b-44b3-984d-6531417e876f" x1="173.27" y1="698.49" x2="212.16" y2="698.49" gradientTransform="translate(82.61 -585.81) rotate(11.88)" xlink:href="#uuid-2de23c1c-2794-4dca-91a6-58db9b04be90"/><linearGradient id="uuid-24f3b43b-61ef-41cc-8390-350d4e5a850f" x1="54.26" y1="-470.1" x2="131.56" y2="-470.1" gradientTransform="translate(97.48 563.93) rotate(-6.98)" xlink:href="#uuid-2de23c1c-2794-4dca-91a6-58db9b04be90"/><linearGradient id="uuid-3570730c-cf67-4bf9-8f27-340e9b272ef7" x1="111.17" y1="-469.92" x2="138" y2="-469.92" gradientTransform="translate(97.48 563.93) rotate(-6.98)" xlink:href="#uuid-2de23c1c-2794-4dca-91a6-58db9b04be90"/><linearGradient id="uuid-b44d5555-2dd0-45e3-868f-be2fb719ce06" x1="170.1" y1="27.23" x2="150.24" y2="15.43" gradientTransform="translate(-11.88 38.6) rotate(-1.53)" xlink:href="#uuid-a721d0e8-afb9-4f64-983e-09eb2af4df39"/><linearGradient id="uuid-b97e22cf-c111-4e01-912f-1a27adc44e42" x1="149.3" y1="36.04" x2="117.76" y2="85.64" gradientTransform="translate(-11.88 38.6) rotate(-1.53)" xlink:href="#uuid-a721d0e8-afb9-4f64-983e-09eb2af4df39"/></defs><g id="uuid-adeffbd7-bf8c-45fb-9d46-897b53e430bb"><g id="uuid-451e069f-febe-469f-bbac-a23c6e5db461"><g><path d="m103.08,81.65l11.64-16.61,3.42-9.8,6.49.92,8.81-18.25-4.61-2.61s4.42-8.46.59-12.89c-3.83-4.43-15.18-7.26-15.18-7.26,0,0-8.89-.72-11.15,6.66-2.25,7.38-20.17,14.85-20.17,14.85l3.64,31.94,16.52,13.04Z" style="opacity:.2;"/><g><path d="m72,66.57l2.28,6.15-8.43,11.54s9.82,7.87,16.21,6.9c6.39-.97,14.59-3.89,14.59-3.89l6.82-6.17-7.38-18.94-24.09,4.41Z" style="fill:url(#uuid-a721d0e8-afb9-4f64-983e-09eb2af4df39);"/><path d="m103.47,81.1l-7.38-18.94-24.09,4.41,2.28,6.15s7.86,2.74,9.45,2.68c1.59-.07,9.09-2.68,9.09-2.68,0,0,3.54,7.68,3.82,9.14.28,1.46,0,5.42,0,5.42l6.82-6.17Z" style="fill:url(#uuid-2de23c1c-2794-4dca-91a6-58db9b04be90);"/><path d="m99.15,2.07s3.96,2.61,5.63,5.46c1.67,2.85-1.74,45.96-2.15,51.25-.42,5.29-17.09,12.61-19.87,11.8-2.78-.81-16.11-4.64-18.62-6.89s-1.82-7.68-1.82-7.68L99.15,2.07Z" style="fill:url(#uuid-4571f20a-6e50-40e7-812a-005e65859c95);"/><path d="m77.34,17.01s-10.56,24.09-11.21,26.78c-.65,2.69-5.19,12.34-3.52,14.99,1.67,2.65,16.23,4.05,18.26,3.07,2.02-.97,9.8-4.19,11.19-5.85,1.39-1.66,4.58-36.13,4.58-36.13,0,0-8.2-3.66-19.31-2.86Z" style="fill:url(#uuid-2452dcdf-8065-4352-b76c-b35513ead828);"/><path d="m96.65,19.87s3.47-15.75,2.5-17.8C98.17.03,90.6-.02,89.21,0s-10.42,9.85-11.74,15.39c0,0,1.32-3.21,6.32-2.66,5,.56,10.07,2.84,12.85,7.13Z" style="fill:url(#uuid-c7da9020-0417-4398-91b4-073e70540da7);"/><path d="m77.47,15.39s-.28,1.07-.14,1.62l19.31,2.86s-.02-2.34-2.45-4.35c-2.43-2.01-6.9-3.15-10.07-3.17-3.17-.02-5.81.98-6.65,3.05Z" style="fill:#938170;"/><path d="m79.44,15.78s-7.46,10.02-12.67,19.88c0,0,6.83.08,10.81,4.56l6.62-22.27s-.13-2.43-4.77-2.17Z" style="fill:#e8d4ba;"/><path d="m66.78,35.66s-.97,1.84.23,5.65c0,0,7.63,1.07,10.58-1.1,0,0-3.96-5.23-10.81-4.56Z" style="fill:#938170;"/><polygon points="103.47 10.9 100.95 39.16 107.52 40.21 109.19 13.96 103.47 10.9" style="fill:url(#uuid-61aa3b04-62f1-472e-a0ef-20a60d67281d);"/><polygon points="103.47 10.9 100.6 11.7 97.48 40.59 100.95 39.16 103.47 10.9" style="fill:#ead4b7;"/><polygon points="107.52 40.21 103.85 42.02 97.48 40.59 100.95 39.16 107.52 40.21" style="fill:#938170;"/></g></g><g><path d="m41.08,144.49l13.34-7.48,4.43.91,19.94-14.62-4.2-2.46s5.15-5.43,3.94-8.32-16.4-4.8-16.4-4.8l-31.86,6.07s-14.4,7.21-14.65,16.09c-.25,8.87,6.28,20.99,25.44,14.61Z" style="opacity:.2;"/><g><path d="m11.3,128.26l-2.91,16.45s5.04,5.33,15.24,4.3c10.2-1.03,17.28-4.03,18.95-7.88l-6.99-18.81-24.28,5.93Z" style="fill:url(#uuid-44c098a0-8765-4e17-887e-4051371c908c);"/><path d="m42.58,141.14l-6.99-18.81-21.93,5.57-2.45.87s15.72,4.21,23.99,3.92c0,0,3.56,8.69,2.33,12.88,2.58-1.26,4.33-2.77,5.05-4.44Z" style="fill:url(#uuid-d680cd0f-af86-47fc-abfb-4d6bc4c50dd4);"/><g><path d="m51.35,72.75s5.13,2.62,5.94,6.85c.81,4.22-8.94,36.53-8.94,36.53,0,0-8.44,8.89-11.6,10.84-3.15,1.96-25.44,1.83-25.44,1.83,0,0-11.06-9.35-11.31-13.25-.25-3.9,19.92-29.39,19.92-29.39,0,0,.26-1.54.58-2.17s4.19-4.02,7.56-4.1c3.38-.08,23.28-7.14,23.28-7.14Z" style="fill:url(#uuid-a70e7bb7-169a-43d3-8901-8906b4818c8e);"/><polygon points="56.09 83.33 49.03 113.14 55.67 116.42 60.03 87.02 56.09 83.33" style="fill:url(#uuid-73f4556f-883a-431f-a48d-8134f8c8879a);"/><path d="m47.33,92.35s-14-5.28-27.4-6.19c0,0-.13-1.21.58-2.17.71-.96,4.1-4.35,8.05-4.59,3.95-.24,15.24,1.4,15.24,1.4l3.53,11.56Z" style="fill:#938170;"/><path d="m20.51,83.99s10.11-10.57,14.35-12.88c4.24-2.32,10.21-1.18,16,1.2,3.22,1.32-3.53,20.05-3.53,20.05,0,0-2.69-6.27-5.22-8.01-2.53-1.74-9.72-3.29-13.89-3.61s-7.71,3.26-7.71,3.26Z" style="fill:url(#uuid-f7af22a2-f6b6-4c30-bb6d-be0a549f9673);"/><polygon points="56.09 83.33 53.1 84.12 44.67 112.83 49.03 113.14 56.09 83.33" style="fill:#e8d4ba;"/><polygon points="55.67 116.42 48.21 116.13 44.67 112.83 49.03 113.14 55.67 116.42" style="fill:#938170;"/><path d="m47.33,92.35s-11.24,23.2-14.06,26.89c-2.82,3.69-18.68,4.14-19.14,4.07S.63,120.02.07,114.98c-.56-5.05,19.86-28.82,19.86-28.82,0,0,16.13-.44,27.4,6.19Z" style="fill:url(#uuid-f6b49a5f-dd3f-48d5-93ca-4cd1429adeae);"/><path d="m36.26,88.08s-1.52-2.98-3.84-5.34c0,0-2.28-2.11-4.01-.45-1.73,1.66-13.9,17.47-13.9,17.47,0,0,6.33,4.89,10.02,10.52l11.73-22.19Z" style="fill:#e8d4ba;"/><path d="m12.52,108.76s.38-10.54,3.59-9.66,8.42,11.18,8.42,11.18l-12.02-1.52Z" style="fill:#938170;"/></g></g></g><g><path d="m144.21,151.83l15.11-15.63,9.89.86,7.92-23.23,10.2-7.78,12.28-18.86-3.53-6.48s1.53-12.53-2.17-15.32c-3.7-2.78-14.19-3.57-14.19-3.57,0,0-6.91-.12-17.81,14.22-10.9,14.34-25.09,22.27-25.09,22.27l-17.07,23.1,24.46,30.42Z" style="opacity:.2;"/><g><path d="m110.19,125.17l-8.55,23.11s4.49,9.02,17.18,10.13c12.69,1.11,22.19-1.43,25.39-6.58l-2.75-29.05-31.27,2.4Z" style="fill:url(#uuid-f7576a38-c650-485f-b578-a816a27c623b);"/><path d="m144.21,151.83l-2.75-29.05-28.31,2.48-3.23.64s17.79,10.11,27.91,11.81c0,0,1.67,13.51-1.1,19.27,3.51-1.17,6.09-2.91,7.48-5.15Z" style="fill:url(#uuid-457569e7-4a3b-44b3-984d-6531417e876f);"/><path d="m160.2,43.27s6.33,3.93,7.29,10.19c.95,6.26-11.47,54.05-11.47,54.05,0,0-10.56,13.09-14.49,15.97-3.93,2.87-31.56,2.49-31.56,2.49,0,0-13.61-13.95-13.88-19.73-.27-5.77,25.01-43.37,25.01-43.37,0,0,.33-2.27.74-3.21s5.23-5.92,9.42-6.01c4.19-.09,28.94-10.38,28.94-10.38Z" style="fill:url(#uuid-24f3b43b-61ef-41cc-8390-350d4e5a850f);"/><polygon points="168.44 52.47 153.46 106.56 161.01 112.04 174.1 54.44 168.44 52.47" style="fill:url(#uuid-3570730c-cf67-4bf9-8f27-340e9b272ef7);"/><path d="m155.01,72.28s-17.3-7.95-33.91-9.41c0,0-.14-1.8.74-3.21.88-1.42,5.12-6.42,10.03-6.74,4.91-.32,18.89,2.21,18.89,2.21l4.25,17.15Z" style="fill:#938170;"/><path d="m121.84,59.65s12.65-15.57,17.92-18.97c5.28-3.4,12.67-1.67,19.83,1.91,3.98,1.99-4.59,29.68-4.59,29.68,0,0-3.27-9.31-6.39-11.91-3.12-2.6-12.02-4.97-17.19-5.47-5.17-.51-9.59,4.76-9.59,4.76Z" style="fill:url(#uuid-b44d5555-2dd0-45e3-868f-be2fb719ce06);"/><polygon points="168.44 52.47 165.1 53.59 148.24 106.34 153.46 106.56 168.44 52.47" style="fill:#e8d4ba;"/><polygon points="161.01 112.04 152.07 112.11 148.24 106.34 153.46 106.56 161.01 112.04" style="fill:#938170;"/><path d="m155.01,72.28s-14.18,34.28-17.72,39.72c-3.53,5.44-23.2,5.97-23.77,5.86-.57-.11-16.69-4.99-17.34-12.47-.64-7.48,24.92-42.52,24.92-42.52,0,0,20-.51,33.91,9.41Z" style="fill:url(#uuid-b97e22cf-c111-4e01-912f-1a27adc44e42);"/><path d="m142.92,66.31s-2.2-5.16-6.5-6.79c0,0-.92-.54-3.1,1.11-2.18,1.66-17.6,17.41-17.6,17.41,0,0,7.74,4.79,12.2,10.34l15-22.07Z" style="fill:#e8d4ba;"/><path d="m113.06,86.97s.69-10.44,4.65-9.6c3.96.84,10.21,11.01,10.21,11.01l-14.86-1.41Z" style="fill:#938170;"/></g></g></g></g></svg>