<?xml version="1.0" encoding="UTF-8"?><svg xmlns="http://www.w3.org/2000/svg" xmlns:xlink="http://www.w3.org/1999/xlink" viewBox="0 0 182.75 171.72"><defs><linearGradient id="uuid-c180f826-2137-4bf1-b1ad-64aefe8bb789" x1="51.01" y1="49.16" x2="64.3" y2="58.39" gradientUnits="userSpaceOnUse"><stop offset="0" stop-color="#bb8b5e"/><stop offset=".4" stop-color="#a97b62"/><stop offset="1" stop-color="#875e6a"/></linearGradient><linearGradient id="uuid-e42840ad-8458-445c-9662-0223c530eafd" x1="53.82" y1="9.44" x2="53.82" y2="37.37" gradientUnits="userSpaceOnUse"><stop offset="0" stop-color="#42bd4c"/><stop offset=".54" stop-color="#35ab54"/><stop offset="1" stop-color="#28995e"/></linearGradient><linearGradient id="uuid-d37b412b-397c-4152-8a03-138a6f20525f" x1="16.48" y1="69.63" x2="21.47" y2="85.29" xlink:href="#uuid-c180f826-2137-4bf1-b1ad-64aefe8bb789"/><linearGradient id="uuid-d5f6d3b0-fb70-403d-9e05-88c30501ac52" x1="18.2" y1="54.61" x2="18.2" y2="79.65" gradientUnits="userSpaceOnUse"><stop offset="0" stop-color="#42994c"/><stop offset=".71" stop-color="#308851"/><stop offset="1" stop-color="#288054"/></linearGradient><linearGradient id="uuid-ca149144-cec4-4b39-b2dd-d05bd6cdcdcd" x1="157.57" y1="61" x2="157.57" y2="77.08" gradientTransform="translate(-1.09 13.62) rotate(-.65) scale(1 1.13) skewX(-1.38)" xlink:href="#uuid-c180f826-2137-4bf1-b1ad-64aefe8bb789"/><linearGradient id="uuid-09f9bf74-159b-4459-9dd8-6294e5ff37b4" x1="155.28" y1="44.8" x2="155.28" y2="73.87" xlink:href="#uuid-d5f6d3b0-fb70-403d-9e05-88c30501ac52"/><linearGradient id="uuid-8029d856-367f-4b1d-9951-b9b84eb00a50" x1="44.41" y1="66.97" x2="46.67" y2="100.78" gradientUnits="userSpaceOnUse"><stop offset="0" stop-color="#00b370"/><stop offset="1" stop-color="#00855e"/></linearGradient><linearGradient id="uuid-7ca1b560-9260-40d0-aca9-c26da45d35cd" x1="119.49" y1="55.46" x2="119.49" y2="80.88" xlink:href="#uuid-8029d856-367f-4b1d-9951-b9b84eb00a50"/><linearGradient id="uuid-cbcb0147-756d-431b-b759-ef8177dcb4fd" x1="130.61" y1="75.83" x2="135.67" y2="103.6" xlink:href="#uuid-8029d856-367f-4b1d-9951-b9b84eb00a50"/><linearGradient id="uuid-c7cb35c2-1f1a-4e8a-88f2-7f31d7f33cf3" x1="87.35" y1="-129.38" x2="87.35" y2="-111.34" gradientTransform="translate(49 269.09) rotate(-13.14)" xlink:href="#uuid-8029d856-367f-4b1d-9951-b9b84eb00a50"/><linearGradient id="uuid-d435b50a-92cb-4d86-8d81-a41c9f3f1488" x1="26.6" y1="125.07" x2="26.6" y2="143.45" xlink:href="#uuid-8029d856-367f-4b1d-9951-b9b84eb00a50"/></defs><g style="isolation:isolate;"><g id="uuid-18633d7f-8845-4c33-b9af-711bd3173015"><g id="uuid-b174e127-1eba-476b-81b5-067c508cd5d7"><g id="uuid-1aeabba7-3fe0-4673-a045-5076368877d6"><g><path d="m78.52,140.72v19.44c0,.68,1.39,1.22,3.1,1.22s3.1-.55,3.1-1.22v-19.44h-6.19Z" style="fill:#af834d;"/><path d="m84.72,140.72c0,.68-1.39,1.22-3.1,1.22s-3.1-.55-3.1-1.22,1.39-1.22,3.1-1.22,3.1.55,3.1,1.22Z" style="fill:#debc6b;"/><path d="m112.82,151.05v19.44c0,.68,1.39,1.22,3.1,1.22s3.1-.55,3.1-1.22v-19.44h-6.19Z" style="fill:#af834d;"/><path d="m119.01,151.05c0,.68-1.39,1.22-3.1,1.22s-3.1-.55-3.1-1.22,1.39-1.22,3.1-1.22,3.1.55,3.1,1.22Z" style="fill:#debc6b;"/><path d="m83.41,143.44s-.76.36-.78,1.11c-.02.74.78,1.29.78,1.29l32.51,11.24v-2.71l-32.51-10.92Z" style="fill:#af834d;"/><path d="m87.43,149.89s-1.68,2.62-1.3,5.19c.19,1.3.64,2.24,1.02,2.84.33.52,1.1.51,1.43-.02.76-1.2,1.62-3.72.03-7.97l1.38-1.55-3.69-.11,1.13,1.61Z" style="fill:#685c36;"/><path d="m103.18,155.25s-1.22,1.9-.94,3.77c.14.95.46,1.62.74,2.06.24.38.8.37,1.04-.01.55-.87,1.18-2.7.02-5.79l1-1.12-2.68-.08.82,1.17Z" style="fill:#685c36;"/><path d="m92.51,152.38s-1.3,2.18-1.01,4.31c.3,2.13,1.33,3.08,1.33,3.08,0,0,2.43-2.05.59-7.35l1.06-1.29-2.85-.09.87,1.34Z" style="fill:#685c36;"/><path d="m97.7,152.94s-1.3,1.77-1.01,3.51c.3,1.73,1.33,2.5,1.33,2.5,0,0,2.43-1.66.59-5.98l1.06-1.05-2.85-.07.87,1.09Z" style="fill:#685c36;"/><path d="m109.45,157.28s-1.7,2.32-1.32,4.59c.39,2.27,1.74,3.27,1.74,3.27,0,0,3.18-2.18.77-7.82l1.39-1.37-3.73-.09,1.14,1.43Z" style="fill:#685c36;"/></g><g><g><path d="m38.01,28.01s-2.64,12.31,2.85,16.92c5.49,4.61,13.91,4.53,11.64,18.63l1,14.4,4.94-8.73s-2.49-12.73-.39-16.69c2.1-3.96,14.58-5.89,12.38-16.97l-2.35-.63s1.52,7.33-2.18,9.39c-3.7,2.06-7.26,3.64-9.27,6.04,0,0,1.44-14.1-.51-18.61h-2.73s1.48,16.15.11,17.36c-1.37,1.21-6.75-2.63-9.09-4.51-2.33-1.88-5.85-10.79-2.62-17.39,3.22-6.6-3.78.78-3.78.78Z" style="fill:url(#uuid-c180f826-2137-4bf1-b1ad-64aefe8bb789);"/><path d="m55.36,11.75S60.45,1.24,52.94.08c-7.51-1.15-5.34,10.54-4.62,12.13,0,0-1.16-7.51-7.94-7.22-6.79.29-2.89,8.95-.29,10.4,0,0-11.99-6.31-17.38,1.4-5.34,7.63-3.27,17.23,15.5,11.74,0,0-5.05,1.01-5.49,4.91-.43,3.9,8.95,7.36,13.57-.14,0,0,0,5.49,8.67,7.65,8.66,2.17,7.8-5.34,4.33-9.1,0,0,9.96,6.79,16.9,2.02,6.93-4.77-8.81-8.52-8.81-8.52,0,0,14.01,4.77,19.06-2.6,5.05-7.36-8.95-14.58-23.54-7.51,0,0,5.16-5.29,2.08-7.98-2.84-2.47-6.44-2.44-9.62,4.49Z" style="fill:url(#uuid-e42840ad-8458-445c-9662-0223c530eafd);"/><path d="m10.63,67.38s-.61,5.96,4.82,9.26c0,0,2.14.87,1.08,6.36l2.8,3.09s-.31-9.33.79-10.84c1.1-1.5,2.77-4.37,1.84-6.83l-2.99.25s.02,6.64-2.05,5.99c-2.07-.66-3.58-6.76-3.58-6.76l-2.7-.53Z" style="fill:url(#uuid-d37b412b-397c-4152-8a03-138a6f20525f);"/><path d="m23.82,56.07s3.75-4.27,2.33-7.11c-1.42-2.84-9.83-2.46-10.47,5.3,0,0,0-4.78-4.39-5.04-4.4-.26-4.14,5.56-2.46,6.72,0,0-6.33-1.81-8.27,2.2-1.94,4.01,1.55,8.66,6.72,6.21,0,0-2.84,2.2,1.03,4.27,3.88,2.07,6.72-.26,6.72-1.55,0,0,.9,5.17,6.08,4.01,5.17-1.16,1.16-5.82,1.16-5.82,0,0,5.56,5.82,10.73,2.97,5.17-2.85-5.3-6.34-5.3-6.34,0,0,10.61-.65,8.41-6.34-2.2-5.69-12.28.52-12.28.52Z" style="fill:url(#uuid-d5f6d3b0-fb70-403d-9e05-88c30501ac52);"/><path d="m148.66,69.96s.64,13.29-.72,23.29l4.36.38s-.1-10.12.76-12.44c.85-2.32,12.38-4.08,10.74-13.23l-2.84.86s.38,6.53-6.25,8.28c-4.88,1.29-1.99-9.61-1.99-9.61l-4.06,2.47Z" style="fill:url(#uuid-ca149144-cec4-4b39-b2dd-d05bd6cdcdcd);"/><path d="m152.72,48.23s-4.35-11.58,2.02-12.07c6.37-.49,3.65,9.83,2.92,11.2,0,0,3.56-4.78,9.21-4.03,5.65.75,2.01,6.44-2.57,7.47,0,0,8.97-1.03,14.42,2.51,8.32,5.41,3.22,14.4-10.72,10.3,0,0,2.88,2.02,3.16,4.29.44,3.5-10.17,5.55-13.45-1.51,0,0,.65,5.28-6.86,4.63-7.17-.62-7.09-3.75-3.9-6.86,0,0-8.86,5.36-14.28.58-5.43-4.77,8.03-6.99,8.03-6.99,0,0-8.39,1.76-12.05-5.2-3.66-6.96,4.93-10.92,16.58-3.53,0,0-2.84-3.75.27-5.45,1.52-.83,5.11-1.77,7.22,4.67Z" style="fill:url(#uuid-09f9bf74-159b-4459-9dd8-6294e5ff37b4);"/><path d="m54.93,71.26s1.68-8.92-5.02-10.41c-6.69-1.48-8.44,8.57-8.44,12.69,0,0-3.82-3.83-11.31-4.55-7.49-.72-7.01,9.83-2.55,12.8,0,0-15.29-3.13-17.05,1.98-1.75,5.11,10.68,8.9,10.68,8.9,0,0-10.52-.06-8.13,5.66s18.52,7.55,18.52,7.55c0,0,24.34,2.99,32.38,2.15,8.05-.84,21.48-1.81,17.06-9.05-4.42-7.24-11.57-6.63-11.57-6.63,0,0,8.79-4.3,3.31-10.72-5.48-6.41-11.1.58-11.1.58,0,0,6.46-6.2,2.8-12.01-3.66-5.81-9.6,1.07-9.6,1.07Z" style="fill:url(#uuid-8029d856-367f-4b1d-9951-b9b84eb00a50);"/><path d="m99.01,68.95s-2.49-4.93,2.26-6.75c4.75-1.82,11.5,5.78,11.5,5.78,0,0-1.3-6.81,6.36-8.63,7.66-1.82,7.53,12.85,7.53,12.85,0,0,2.08-3.48,8.18-2.78,6.1.7,7.14,12.67,4.28,15.38-2.86,2.71-18.17,9.46-18.17,9.46l-21.93-25.31Z" style="fill:url(#uuid-7ca1b560-9260-40d0-aca9-c26da45d35cd);"/><path d="m119.01,86.1s-.25-6.3,5.69-7.42,8.27,7.42,8.27,7.42c0,0,1.48-6.08,9.29-6.21,7.81-.14,2.06,12.42,2.06,12.42,0,0,10.81-5.91,18.19,0,7.39,5.91-9.75,12.72-20.54,13.08-10.79.36-28.84,4.46-35.2-.87-6.36-5.33,9.37-6.43,9.37-6.43,0,0-5.61-4.05-6.02-10.51-.41-6.46,8.89-1.47,8.89-1.47Z" style="fill:url(#uuid-cbcb0147-756d-431b-b759-ef8177dcb4fd);"/><path d="m81.07,98.97c-2.01-3.3-4.59-4.97-6.81-5.81-2.41,2.37-5.79,4.78-10.52,6.69-14.51,5.88-40.31.96-40.93-2.43-.62-3.39,4.36-5.13,4.36-5.13-2.62-.41-14.47-5.85-14.11-8.47.36-2.61,5.17-3,5.18-3-3.55.03-6.92.68-7.69,2.93-1.75,5.11,10.68,8.9,10.68,8.9,0,0-10.52-.06-8.13,5.66s18.52,7.55,18.52,7.55c0,0,24.34,2.99,32.38,2.15,8.05-.84,21.48-1.81,17.06-9.05Z" style="mix-blend-mode:overlay; opacity:.12;"/><g><polygon points="24.36 113.58 67.46 68.57 84.22 51.06 108.21 141.2 24.36 113.58" style="fill:#debc6b;"/><polygon points="141.97 105.38 108.21 141.2 84.22 51.06 141.97 105.38" style="fill:#c2a056;"/><polygon points="75.4 60.28 87.85 64.68 93.12 59.43 95.73 61.88 89 69.02 72.48 63.32 75.4 60.28" style="fill:#fff;"/><polygon points="87.85 64.68 89 69.02 95.73 61.88 93.12 59.43 87.85 64.68" style="fill:#ded39d;"/><polygon points="67.02 69.02 90.79 75.75 93.55 86.1 60.02 76.33 67.02 69.02" style="fill:#a98050; opacity:.54;"/><polygon points="59.06 77.33 93.94 87.57 91.16 77.15 86.25 83.36 82.59 74.45 76.5 80.23 73.82 71.62 66.29 76.76 66.29 69.79 59.06 77.33" style="fill:#fff;"/><polygon points="90.79 75.75 100.12 66.01 104.71 70.33 105.01 74.48 102.33 75.75 96.79 82.53 93.55 85.45 90.79 75.75" style="fill:#997242;"/><polygon points="107.66 73.11 93.94 87.57 91.16 77.15 97.16 81.31 96.64 72.48 103.84 74.11 101.71 67.51 107.66 73.11" style="fill:#ded39d;"/><polygon points="27.89 109.89 106.77 135.77 108.21 141.2 24.36 113.58 27.89 109.89" style="fill:#a98050; opacity:.54;"/><polygon points="48.23 121.44 66.29 92.3 80.11 96.13 78.84 131.52 48.23 121.44" style="fill:#af834d;"/><polygon points="48.23 121.44 79.85 103.32 78.84 131.52 48.23 121.44" style="fill:#7a5e3b;"/><polygon points="138.93 102.52 106.77 135.77 108.21 141.2 141.97 105.38 138.93 102.52" style="fill:#997242;"/><polygon points="84.21 51.13 91.45 43.52 93.13 45.01 85.69 52.54 84.21 51.13" style="fill:#a98050;"/><polygon points="84.21 51.13 76.16 42.41 74.32 43.9 82.65 52.76 84.21 51.13" style="fill:#a98050;"/></g><g><path d="m96.54,141.27s-4.68-.33-5.57-2.88c-.88-2.55,2.8-6.19,6.73-3.74,0,0-.91-2.62,2.02-4.61,3.2-2.17,6.14.14,6.14.14,0,0-.98-6.35,4.39-7.75,5.37-1.4,8.55,3.79,6,7.26,0,0,2.57-.59,3.72,2.47.93,2.49-1.68,4.36-1.68,4.36,0,0,7.01-1.56,7.29,2.76.28,4.32-6.51,4.96-10.63,3.88-4.12-1.08-18.41-1.91-18.41-1.91Z" style="fill:url(#uuid-c7cb35c2-1f1a-4e8a-88f2-7f31d7f33cf3);"/><path d="m125.58,139.3c-.01-.19-.04-.38-.08-.55-.24,3.2-6.52,3.63-9.52,3.68-3,.05-6.58-2.2-9.49-2.96-2.9-.75-8.99,1.05-12.33-.21-3.33-1.25-1.62-4.62-1.61-4.64-1.32.92-2.03,2.48-1.59,3.76.88,2.55,5.57,2.88,5.57,2.88,0,0,14.29.83,18.41,1.91,4.12,1.08,10.91.45,10.63-3.88Z" style="mix-blend-mode:overlay; opacity:.08;"/></g></g><path d="m86.44,22.75c.38-.56.66-1.12.83-1.67-5.74,8.03-23.5,2.36-23.5,2.36,0,0,11.3,5.38,6.92,8.76-4.38,3.38-14.89-3.38-14.89-3.38,0,0,1.33,8.64-3.14,8.34-4.47-.3-5.2-7.01-5.2-7.01,0,0-4.83,4.23-7.67,2.72-2.84-1.51,1.39-7.37,1.39-7.37,0,0-13.61,4.62-17.1-.48-3.49-5.1.51-10.2.51-10.2-.68.52-1.32,1.17-1.88,1.97-5.25,7.5-3.34,16.91,14.58,12-1.48.5-4.25,1.81-4.57,4.65-.43,3.9,8.95,7.36,13.57-.14,0,0,0,5.49,8.67,7.65,8.66,2.17,7.8-5.34,4.33-9.1,0,0,9.96,6.79,16.9,2.02,5.27-3.62-2.57-6.66-6.63-7.91,4.14,1,13.06,2.36,16.88-3.21Z" style="mix-blend-mode:overlay; opacity:.12;"/><path d="m181.98,56.54c.05,1.48-.42,3.48-3,4.48-4.41,1.72-13.59-.54-13.59-.54,2.48,1.63,2.78,7.49.54,8.22s-8.88-4.47-8.88-4.47c0,0-5.2,4.34-7.49,2.77-2.3-1.57,1.09-6.04,1.09-6.04,0,0-8.4,2.84-10.02,1.03-1.62-1.81,4.46-4.59,4.46-4.59-9.12-1.03-14.82-2.59-15.53-6.83-.69-4.14,3.3-5.43,3.49-5.49-4.45.32-6.54,3.37-4.39,7.47,3.3,6.28,10.44,5.47,11.82,5.24-1.76.32-12.8,2.55-7.8,6.95,5.42,4.77,14.28-.58,14.28-.58-3.19,3.11-3.27,6.24,3.9,6.86,7.5.65,6.86-4.63,6.86-4.63,3.28,7.06,13.89,5.01,13.45,1.51-.28-2.27-3.16-4.29-3.16-4.29,11.39,3.35,16.88-2.04,13.97-7.07Z" style="mix-blend-mode:overlay; opacity:.12;"/><path d="m33,68.23c3.62-1.99-.42-4.29-3.17-5.5,0,0,0,0,0,0,1.5,1.87.76,4.02-1.55,4.11-2.31.09-6.93-3.04-6.93-3.04,0,0-.05,5.53-2.45,5.35-2.4-.18-3.13-4.58-3.13-4.58,0,0-3.53,3.85-5.62,2.36-2.08-1.5-.45-5.53-.45-5.53,0,0-6.57,2.99-7.93-.45-.84-2.14.18-3.9,1.08-4.92-.95.38-1.79,1.04-2.31,2.12-1.94,4.01,1.55,8.66,6.72,6.21,0,0-2.84,2.2,1.03,4.27,3.88,2.07,6.72-.26,6.72-1.55,0,0,.9,5.17,6.08,4.01,5.17-1.16,1.16-5.82,1.16-5.82,0,0,5.56,5.82,10.73,2.97Z" style="mix-blend-mode:overlay; opacity:.12;"/></g><g><path d="m15.23,140.26s-6.4-1.74-6.25-6.5c.16-4.75,6.45-4.2,6.45-4.2,0,0-.64-4.38,3.5-6.29,4.14-1.91,7.86,3.71,7.86,3.71,0,0,4.64-7.05,9.8-4.92,5.16,2.13.67,10.2.67,10.2,0,0,3.8-2.03,6.37,1.1,2.57,3.12-2.68,12.57-28.41,6.9Z" style="fill:url(#uuid-d435b50a-92cb-4d86-8d81-a41c9f3f1488);"/><path d="m44.21,134.8c-2.69,7.19-14.42,4.27-19.64,1.92-5.22-2.36-9.47,3.13-13.09.41-3.62-2.72,0-6.97,0-6.97h0c-1.3.56-2.42,1.62-2.49,3.6-.16,4.75,6.25,6.5,6.25,6.5,22.48,4.96,29.33-1.63,28.98-5.46Z" style="mix-blend-mode:overlay; opacity:.08;"/></g></g></g></g></g></svg>