<?xml version="1.0" encoding="UTF-8"?><svg xmlns="http://www.w3.org/2000/svg" xmlns:xlink="http://www.w3.org/1999/xlink" viewBox="0 0 139.8 129.19"><defs><linearGradient id="uuid-347a0766-f32d-45ed-b90c-daf81c55d3e3" x1="87.31" y1="-80.08" x2="99.72" y2="-79.26" gradientTransform="translate(-57.78 102.4) rotate(22.84)" gradientUnits="userSpaceOnUse"><stop offset="0" stop-color="#bb8b5e"/><stop offset=".4" stop-color="#a97b62"/><stop offset="1" stop-color="#875e6a"/></linearGradient><linearGradient id="uuid-98232273-649c-4627-a6d3-5bd8bdcfc1e8" x1="93.03" y1="31.24" x2="64.36" y2="55.21" gradientUnits="userSpaceOnUse"><stop offset="0" stop-color="#42bd4c"/><stop offset=".54" stop-color="#35ab54"/><stop offset="1" stop-color="#28995e"/></linearGradient><linearGradient id="uuid-d1bfcc3f-0d04-4ae1-b9e2-b4e6fd56957f" x1="-24.42" y1="114.83" x2="43.94" y2="114.83" gradientTransform="translate(24.42)" gradientUnits="userSpaceOnUse"><stop offset="0" stop-color="#d4d2c6"/><stop offset="1" stop-color="#929991"/></linearGradient><linearGradient id="uuid-b18d9119-36fc-4d4b-9bd5-cf77904a863c" x1="-17.25" y1="109.62" x2="46.1" y2="101.22" gradientTransform="translate(24.42)" gradientUnits="userSpaceOnUse"><stop offset="0" stop-color="#f9f7eb"/><stop offset="1" stop-color="#b8baaf"/></linearGradient><linearGradient id="uuid-e2163826-1dce-4270-b496-6cca49b18fb6" x1="-3.71" y1="77.47" x2="41.81" y2="77.47" gradientTransform="translate(24.42)" gradientUnits="userSpaceOnUse"><stop offset="0" stop-color="#e9e2df"/><stop offset="1" stop-color="#808a7e"/></linearGradient><linearGradient id="uuid-97873c82-7d9a-4db5-a4ec-86c11a74201b" x1="-14.69" y1="37.62" x2="38.08" y2="37.62" xlink:href="#uuid-d1bfcc3f-0d04-4ae1-b9e2-b4e6fd56957f"/><linearGradient id="uuid-17b28e25-7691-42cb-9638-49bf5d696a09" x1="-9.16" y1="33.6" x2="39.74" y2="27.12" xlink:href="#uuid-b18d9119-36fc-4d4b-9bd5-cf77904a863c"/><radialGradient id="uuid-2cb6aac8-3813-4a35-b9de-a0d37759b014" cx="-1052.69" cy="8.76" fx="-1052.69" fy="8.76" r="36.99" gradientTransform="translate(-1022.21) rotate(-180) scale(1 -1)" gradientUnits="userSpaceOnUse"><stop offset="0" stop-color="#ff8064"/><stop offset="1" stop-color="#9f3054"/></radialGradient><linearGradient id="uuid-61d7c42d-c7dc-4440-8991-96988ff3b8fd" x1="-15.39" y1="101.55" x2="6.3" y2="101.55" xlink:href="#uuid-d1bfcc3f-0d04-4ae1-b9e2-b4e6fd56957f"/><linearGradient id="uuid-ea8af279-7035-401c-8990-4b145a1c0439" x1="13.04" y1="73.71" x2="13.04" y2="77.63" gradientTransform="matrix(1, 0, 0, 1, 0, 0)" xlink:href="#uuid-d1bfcc3f-0d04-4ae1-b9e2-b4e6fd56957f"/><linearGradient id="uuid-0bded4e1-4924-4b8a-9c9d-1b9ea2d58809" x1="-10" y1="86.06" x2="-8.03" y2="112.67" xlink:href="#uuid-b18d9119-36fc-4d4b-9bd5-cf77904a863c"/><linearGradient id="uuid-e3b322c2-dc64-48ea-a04a-9547456cbdba" x1="20.62" y1="63.71" x2="1.92" y2="71.39" gradientTransform="translate(24.42)" gradientUnits="userSpaceOnUse"><stop offset="0" stop-color="#e9e2df"/><stop offset="1" stop-color="#666e6a"/></linearGradient><linearGradient id="uuid-4084f204-a310-48bb-82fd-26653c7c97b1" x1="6.96" y1="3.98" x2="16.43" y2="3.98" xlink:href="#uuid-d1bfcc3f-0d04-4ae1-b9e2-b4e6fd56957f"/><linearGradient id="uuid-2c0391b8-131c-4b8c-8e63-3cab78fac2c2" x1="8.86" y1="1.87" x2="20.04" y2="2.34" gradientTransform="translate(24.42)" gradientUnits="userSpaceOnUse"><stop offset="0" stop-color="#f9ffeb"/><stop offset="1" stop-color="#b8baaf"/></linearGradient></defs><g style="isolation:isolate;"><g id="uuid-f9571827-e609-436f-8d44-229a39290650"><g id="uuid-b788d2c2-2727-4e29-b72a-b937bab9e526"><g id="uuid-f8a1fd50-3b95-4b12-9739-6577813236fe"><path d="m137,78.22c-7.8-10.64-27.21-9.47-27.21-9.47l-3.14-3.44-8.39,3.22,2.46,3.01-17.09,7.02c-1.54-.85-3.22-1.73-5.08-2.63l-47.83,14.33,16.85,37.78s42.58-8.03,46.4-11.02c3.81-3,2.72-9.13,2.72-9.13l13.8-5.9c-.03-.06-.07-.11-.1-.17-.05-.08-.1-.18-.18-.3-.09-.15-.18-.3-.28-.45,0,0,0,0,0-.01l13.73-4.12,3.27,3.57,9.29-3.04-2.34-3.13s10.93-5.48,3.13-16.12Z" style="opacity:.17;"/><g><path d="m72.55,50.34s-10.58,12.6-14.68,34.73c0,0-5.97,2.45-9.79-4.61,0,0,7.75-21.41,20.61-33.55l3.86,3.44Z" style="fill:url(#uuid-347a0766-f32d-45ed-b90c-daf81c55d3e3);"/><path d="m69.52,35.52s-8.94-1.16-12.34-9.35c0,0,18.87-7.87,24.22,8.28,0,0,7-6.84,21.83,1.17,0,0-7.42,7.33-15.65,6.88,3.57,1.59,8.7,5.54,9.22,11.95.69,8.49-3.97,11.99-3.97,11.99,0,0-10.45-7.65-10.73-15.74,0,0-2.97,9.52-8.93,15.03,0,0-5.97-5.91-3.2-17.83,0,0-10.05.14-19.31-2.96,0,0,7.02-9.43,18.87-9.43Z" style="fill:url(#uuid-98232273-649c-4627-a6d3-5bd8bdcfc1e8);"/><path d="m62.83,27.62s12.04,1.76,16.02,11.2c0,0,9.03-4.55,15.88-.56,0,0-8.86-.16-14.37,2.5,0,0,9.45,4.18,10.36,13.54,0,0-2.97-6.95-12.17-11.88,0,0-.25,7.76-4.65,15.87,0,0,3.64-13.21,2.32-16.66,0,0-11.29-1.41-18.11,1.55,0,0,7.5-5.04,18.92-4.16,0,0-3.31-6.93-14.2-11.42Z" style="fill:#ffffab; mix-blend-mode:overlay; opacity:.1;"/></g><g><path d="m61.21,106.04c-6.25-3.39-16.03-5.58-27.03-5.58s-20.77,2.19-27.03,5.58H0v8.79c0,7.94,15.3,14.37,34.18,14.37s34.18-6.43,34.18-14.37v-8.79h-7.15Z" style="fill:url(#uuid-d1bfcc3f-0d04-4ae1-b9e2-b4e6fd56957f);"/><ellipse cx="34.18" cy="106.04" rx="34.18" ry="14.37" style="fill:url(#uuid-b18d9119-36fc-4d4b-9bd5-cf77904a863c);"/><path d="m60.7,103.12l-5.78-62.4H17.3l-5.78,62.4c-.04.24-.07.48-.07.73,0,5.72,11.04,10.36,24.66,10.36s24.66-4.64,24.66-10.36c0-.25-.03-.49-.07-.73Z" style="fill:url(#uuid-e2163826-1dce-4270-b496-6cca49b18fb6);"/><path d="m56.97,30.84c-4.83-2.62-12.37-4.3-20.86-4.3s-16.03,1.69-20.86,4.3h-5.52v6.79c0,6.12,11.81,11.09,26.38,11.09s26.38-4.96,26.38-11.09v-6.79h-5.52Z" style="fill:url(#uuid-97873c82-7d9a-4db5-a4ec-86c11a74201b);"/><ellipse cx="36.11" cy="30.84" rx="26.38" ry="11.09" style="fill:url(#uuid-17b28e25-7691-42cb-9638-49bf5d696a09);"/><path d="m14.51,28.58S13.03,3.15,36.11,2.58c23.08-.57,21.49,26.5,21.49,26.5,0,0-3.29,7.85-21.55,7.85s-21.55-8.34-21.55-8.34Z" style="fill:url(#uuid-2cb6aac8-3813-4a35-b9de-a0d37759b014);"/><path d="m30.72,113.86s-2.66-28.13-12.74-26.76c-1,.13-1.88.43-2.67.86h0s0,0,0,0c-.24.13-.47.27-.69.43l-3.16,1.94.55.89c-3.55,5.73-2.93,15.31-2.93,15.31,4.72,4.82,11.85,6.48,16.62,7.05l1.51,2.46,3.53-2.18Z" style="fill:url(#uuid-61d7c42d-c7dc-4440-8991-96988ff3b8fd);"/><path d="m12.52,109.29s2.93,2.43,7.73,3.26c0,0-1.23-12.87-3.11-14.97-1.88-2.1-3.64.51-3.75,1.31-.11.8-1.5,7.33-.86,10.4Z" style="fill:#2e3a38;"/><path d="m9.01,111.48l3.5-2.19s.27-12.74,3.83-12.17c3.57.57-.75-2.56-.75-2.56l-4.55,1.48-2.73,4.04.69,11.4Z" style="fill:url(#uuid-ea8af279-7035-401c-8990-4b145a1c0439);"/><path d="m14.46,89.28c-10.09,1.37-8.91,19.43-8.91,19.43,1.05,1.07,2.23,1.99,3.47,2.77-.03-3.27.19-14.58,4.78-15.45,4.87-.93,6.48,16.3,6.74,19.51,3.82.61,6.67.51,6.67.51,0,0-2.66-28.13-12.74-26.76Z" style="fill:url(#uuid-0bded4e1-4924-4b8a-9c9d-1b9ea2d58809);"/><path d="m40.18,69.69s-1.46-11.76,4.88-13.08c6.34-1.31,6.12,11.44,6.12,11.44,0,0-4.03,2.47-10.99,1.63Z" style="fill:#2e3a38;"/><path d="m45.64,56.53c2.06,3.32,1.96,9.48,1.96,9.48,0,0-2.72,1.67-7.54,1.8.04,1.14.13,1.88.13,1.88,6.97.84,10.99-1.63,10.99-1.63,0,0,.21-11.97-5.54-11.53Z" style="fill:url(#uuid-e3b322c2-dc64-48ea-a04a-9547456cbdba); opacity:.15;"/><path d="m49.49,34.98c.14-3.01.15-7.23-.46-11.71-1.41-10.38-5.55-17.48-12.02-20.69-.3,0-.6,0-.9,0-1.05.03-2.04.1-2.99.23-1.43,1.09-3.64,3.2-5.57,6.88-2.44,4.66-4.8,12.74-3.33,25.71.53.16,1.09.31,1.68.45-1.57-12.84.68-20.77,3.01-25.29,2.35-4.56,5.21-6.56,6.11-7.1,12.81,5.01,13.24,23.92,12.79,32.04.59-.17,1.14-.34,1.66-.52Z" style="mix-blend-mode:overlay; opacity:.25;"/><path d="m39.86,2.76c-.87-.47-2.22-.77-3.74-.77s-2.88.3-3.74.77l-.99-.77v1.99c0,1.1,2.12,1.99,4.73,1.99s4.73-.89,4.73-1.99v-1.92l-.99.7Z" style="fill:url(#uuid-4084f204-a310-48bb-82fd-26653c7c97b1);"/><ellipse cx="36.11" cy="1.99" rx="4.73" ry="1.99" style="fill:url(#uuid-2c0391b8-131c-4b8c-8e63-3cab78fac2c2);"/></g></g></g></g></g></svg>