<?xml version="1.0" encoding="UTF-8"?><svg xmlns="http://www.w3.org/2000/svg" xmlns:xlink="http://www.w3.org/1999/xlink" viewBox="0 0 234.36 161.42"><defs><linearGradient id="uuid-c6e944bd-65c8-486e-b2ca-cfb9e224dbfa" x1="-460.76" y1="-907.96" x2="-453.67" y2="-907.96" gradientTransform="translate(868.68 1194.45) rotate(-16.52) scale(1 1.47)" gradientUnits="userSpaceOnUse"><stop offset="0" stop-color="#bb8b5e"/><stop offset=".4" stop-color="#a97b62"/><stop offset="1" stop-color="#875e6a"/></linearGradient><linearGradient id="uuid-bf2ff39c-cba1-4a7a-a2d1-651d42405b28" x1="-464.56" y1="-656.41" x2="-459.22" y2="-644.66" gradientTransform="translate(665.94 513.56) rotate(-16.52)" gradientUnits="userSpaceOnUse"><stop offset="0" stop-color="#42bd4c"/><stop offset=".54" stop-color="#35ab54"/><stop offset="1" stop-color="#28995e"/></linearGradient><linearGradient id="uuid-cbcb8e82-1985-4647-8945-55dbf02f92da" x1="29.22" y1="49.81" x2="31.16" y2="78.84" gradientUnits="userSpaceOnUse"><stop offset="0" stop-color="#00b370"/><stop offset="1" stop-color="#00855e"/></linearGradient><linearGradient id="uuid-7f09d42d-216f-4a12-bb6e-d7ca5de9ec86" x1="195.88" y1="53.18" x2="195.88" y2="75.01" xlink:href="#uuid-cbcb8e82-1985-4647-8945-55dbf02f92da"/><linearGradient id="uuid-a62529a3-bc5b-4bbf-87b8-1f6f5b986c29" x1="205.43" y1="70.68" x2="209.78" y2="94.53" xlink:href="#uuid-cbcb8e82-1985-4647-8945-55dbf02f92da"/><linearGradient id="uuid-c38f00b3-43b0-44aa-ac6d-9825cc0ebbfd" x1="1359.22" y1="184.56" x2="1367.46" y2="184.56" gradientTransform="translate(1546.11 194.31) rotate(-166.35) scale(1 -1)" xlink:href="#uuid-c6e944bd-65c8-486e-b2ca-cfb9e224dbfa"/><linearGradient id="uuid-c3c6d99c-84b0-4845-9261-83917dfacf6b" x1="1354.08" y1="156.73" x2="1360.28" y2="170.4" gradientTransform="translate(1546.11 194.31) rotate(-166.35) scale(1 -1)" gradientUnits="userSpaceOnUse"><stop offset="0" stop-color="#00995e"/><stop offset=".18" stop-color="#09925b"/><stop offset=".68" stop-color="#1f8556"/><stop offset="1" stop-color="#288054"/></linearGradient><linearGradient id="uuid-843d2009-b923-4fe4-8b9e-9a0210a38c3d" x1="109.85" y1="63.92" x2="164.85" y2="63.92" gradientUnits="userSpaceOnUse"><stop offset="0" stop-color="#c29c00"/><stop offset="1" stop-color="#b78a00"/></linearGradient><linearGradient id="uuid-cdf428ae-e3f5-46f2-8041-36e82c7a16b9" x1="111.35" y1="88.78" x2="186.21" y2="88.78" xlink:href="#uuid-843d2009-b923-4fe4-8b9e-9a0210a38c3d"/><linearGradient id="uuid-7001a1fa-22a9-47cd-9dca-152ac0f01f93" x1="111.35" y1="39.45" x2="145.22" y2="39.45" xlink:href="#uuid-843d2009-b923-4fe4-8b9e-9a0210a38c3d"/><linearGradient id="uuid-98dd73c0-f988-4898-8d73-076c53ccdbe0" x1="111.41" y1="115.33" x2="207.39" y2="115.33" xlink:href="#uuid-843d2009-b923-4fe4-8b9e-9a0210a38c3d"/><linearGradient id="uuid-bec44884-4021-4725-8c54-451f567ee9bd" x1="144.19" y1="94.34" x2="163.95" y2="94.34" gradientUnits="userSpaceOnUse"><stop offset="0" stop-color="#a07500"/><stop offset="1" stop-color="#b78a00"/></linearGradient><linearGradient id="uuid-c76977e2-f8fa-494b-bda7-004b581a2a79" x1="164.4" y1="260.5" x2="184.17" y2="260.5" gradientTransform="translate(-32.35 -186.04) rotate(-2.36) skewX(-2.32)" xlink:href="#uuid-bec44884-4021-4725-8c54-451f567ee9bd"/><linearGradient id="uuid-3b235cc1-8e6c-40b7-9b10-78cee16fdfe5" x1="173.14" y1="277.47" x2="192.9" y2="277.47" gradientTransform="translate(-32.35 -186.04) rotate(-2.36) skewX(-2.32)" xlink:href="#uuid-bec44884-4021-4725-8c54-451f567ee9bd"/><linearGradient id="uuid-d14060b6-2559-44aa-938f-8859feca07b7" x1="168.78" y1="269.36" x2="188.55" y2="269.36" gradientTransform="translate(-32.35 -186.04) rotate(-2.36) skewX(-2.32)" xlink:href="#uuid-bec44884-4021-4725-8c54-451f567ee9bd"/><linearGradient id="uuid-c19ff255-4725-4ef5-b92e-5c803834d4ff" x1="186.25" y1="302.95" x2="206.01" y2="302.95" gradientTransform="translate(-32.35 -186.04) rotate(-2.36) skewX(-2.32)" xlink:href="#uuid-bec44884-4021-4725-8c54-451f567ee9bd"/><linearGradient id="uuid-ce575297-fde3-4e13-b81d-d2c9ecc788c4" x1="190.7" y1="311.4" x2="210.47" y2="311.4" gradientTransform="translate(-32.35 -186.04) rotate(-2.36) skewX(-2.32)" xlink:href="#uuid-bec44884-4021-4725-8c54-451f567ee9bd"/><linearGradient id="uuid-4171fc10-7911-4b66-a805-51cf48ac3ff7" x1="181.89" y1="294.84" x2="201.66" y2="294.84" gradientTransform="translate(-32.35 -186.04) rotate(-2.36) skewX(-2.32)" xlink:href="#uuid-bec44884-4021-4725-8c54-451f567ee9bd"/><linearGradient id="uuid-4d2636d5-68d2-4fc8-849b-a7c570778fc4" x1="108.7" y1="19.08" x2="127.61" y2="19.08" gradientUnits="userSpaceOnUse"><stop offset="0" stop-color="#a06b00"/><stop offset="1" stop-color="#b78a00"/></linearGradient><linearGradient id="uuid-a1ccefe3-c016-41cf-9530-046684a46dd0" x1="160.8" y1="175.98" x2="160.8" y2="194.31" gradientTransform="translate(-99.2 -94.47) rotate(8.52)" xlink:href="#uuid-bf2ff39c-cba1-4a7a-a2d1-651d42405b28"/><linearGradient id="uuid-a718325d-3636-4aaf-827d-5f60e91e25cf" x1="105.21" y1="136.44" x2="105.21" y2="154.05" gradientTransform="matrix(1, 0, 0, 1, 0, 0)" xlink:href="#uuid-bf2ff39c-cba1-4a7a-a2d1-651d42405b28"/></defs><g style="isolation:isolate;"><g id="uuid-7ccde9b8-1929-4329-bd35-643f32aaaf4a"><g id="uuid-3eff51e7-a277-4c73-a9cb-03c24e14db7c"><g id="uuid-ee4d25e5-407e-4125-9c93-b8495df61aae"><g><path d="m42.51,26.53s6.8,13.52,9.12,34.09c0,0,3.92,3.48,6.6-1.96,0,0-4.76-20.74-13.08-34.35l-2.63,2.21Z" style="fill:url(#uuid-c6e944bd-65c8-486e-b2ca-cfb9e224dbfa);"/><path d="m46.83,16.94s3.8-2.32,7.5-7.31c0,0-9.01-5.5-15.4,4.57,0,0-4.89-7.85-16.25-2.78,0,0,4.12,7.63,10.68,7.2-2.69.47-8.38,1.96-9.82,6.23-1.91,5.65-.52,9.33-.52,9.33,0,0,11.1-3.59,12.67-9.04,0,0-1.62,7.66,1.49,12.42,0,0,7.08-3.68,7.23-12.26,0,0,5.5,4.09,12.32,3.57,0,0,1.73-8.29-9.92-11.91Z" style="fill:url(#uuid-bf2ff39c-cba1-4a7a-a2d1-651d42405b28);"/><path d="m38.29,19.99s-9.14.97-13.12,9.4c0,0,4.11-7.28,14.61-8.04,0,0-2.46,7.82-1.91,13.04,0,0,1.74-11.35,4.06-13.8,0,0,7.54,1.71,12.28,6.72,0,0-3.56-6.63-12.78-8.37,0,0,3.51-7.7,10.29-8.51,0,0-7.52-.8-12.2,8.93,0,0-4.86-6.69-12.6-6.82,0,0,7.96.9,11.39,7.45Z" style="fill:#ffffab; mix-blend-mode:overlay; opacity:.1;"/></g><path d="m38.25,53.49s1.44-7.66-4.31-8.94c-5.75-1.27-7.25,7.36-7.25,10.9,0,0-3.28-3.29-9.71-3.91-6.43-.62-6.02,8.44-2.19,10.99,0,0-13.14-2.69-14.64,1.7-1.51,4.39,9.17,7.65,9.17,7.65,0,0-9.04-.05-6.98,4.86,2.05,4.91,15.9,6.48,15.9,6.48,0,0,20.9,2.57,27.81,1.85,6.91-.73,18.45-1.55,14.65-7.77s-9.93-5.7-9.93-5.7c0,0,7.55-3.7,2.85-9.2-4.71-5.51-9.53.5-9.53.5,0,0,5.55-5.32,2.4-10.31-3.14-4.99-8.24.91-8.24.91Z" style="fill:url(#uuid-cbcb8e82-1985-4647-8945-55dbf02f92da);"/><path d="m60.7,77.29c-1.73-2.83-3.94-4.27-5.84-4.99-2.07,2.04-4.98,4.1-9.04,5.75-12.46,5.05-34.62.82-35.15-2.09-.53-2.91,3.74-4.4,3.74-4.4-2.25-.35-12.42-5.02-12.11-7.27.31-2.24,4.44-2.57,4.45-2.57-3.05.03-5.95.59-6.61,2.51-1.51,4.39,9.17,7.65,9.17,7.65,0,0-9.04-.05-6.98,4.86,2.05,4.91,15.9,6.48,15.9,6.48,0,0,20.9,2.57,27.81,1.85,6.91-.73,18.45-1.55,14.65-7.77Z" style="mix-blend-mode:overlay; opacity:.12;"/><polygon points="111.35 153.26 162.77 137.34 180.12 133.14 198.14 118.71 216.08 101.04 224.59 75.46 219.9 72.36 219.47 52.74 216.5 50.91 216.56 32 178.97 12.52 157.56 22.53 133.9 32.93 111.35 153.26" style="opacity:.15;"/><path d="m178.29,64.77s-2.14-4.24,1.94-5.8c4.08-1.56,9.88,4.96,9.88,4.96,0,0-1.11-5.85,5.46-7.41,6.58-1.56,6.46,11.03,6.46,11.03,0,0,1.78-2.99,7.02-2.39,5.24.6,6.13,10.88,3.68,13.21-2.45,2.33-15.6,8.12-15.6,8.12l-18.84-21.73Z" style="fill:url(#uuid-7f09d42d-216f-4a12-bb6e-d7ca5de9ec86);"/><path d="m195.47,79.49s-.22-5.41,4.88-6.37c5.1-.96,7.1,6.37,7.1,6.37,0,0,1.27-5.22,7.98-5.34,6.71-.12,1.77,10.66,1.77,10.66,0,0,9.28-5.08,15.62,0,6.34,5.08-8.38,10.93-17.64,11.23-9.26.31-24.77,3.83-30.23-.75-5.46-4.58,8.05-5.52,8.05-5.52,0,0-4.82-3.48-5.17-9.02-.35-5.54,7.64-1.26,7.64-1.26Z" style="fill:url(#uuid-a62529a3-bc5b-4bbf-87b8-1f6f5b986c29);"/><g><path d="m184.06,38.84s-5.8,10.7-5.5,27.34c0,0-3.96,2.66-7.78-1.89,0,0,2.45-16.67,9.96-27.37l3.31,1.92Z" style="fill:url(#uuid-c38f00b3-43b0-44aa-ac6d-9825cc0ebbfd);"/><path d="m178.36,28.45s-4.55-2.48-9.14-8.05c0,0,10.14-6.92,18.15,4.41,0,0,5.22-9.4,18.71-4.18,0,0-4.34,9.1-11.98,8.98,3.16.39,9.84,1.79,11.77,6.66,2.55,6.45,1.15,10.8,1.15,10.8,0,0-13.1-3.53-15.25-9.76,0,0,2.33,8.8-1.01,14.51,0,0-8.44-3.86-9.11-13.81,0,0-6.15,5.08-14.11,4.86,0,0-2.49-9.53,10.82-14.41Z" style="fill:url(#uuid-c3c6d99c-84b0-4845-9261-83917dfacf6b);"/><path d="m188.46,31.5s10.68.6,15.79,10.15c0,0-5.19-8.22-17.43-8.49,0,0,3.32,8.94,2.97,15.03,0,0-2.68-13.07-5.52-15.79,0,0-8.65,2.42-13.87,8.52,0,0,3.74-7.91,14.36-10.46,0,0-4.53-8.74-12.44-9.28,0,0,8.68-1.37,14.69,9.66,0,0,5.25-8.05,14.24-8.65,0,0-9.19,1.51-12.79,9.32Z" style="fill:#ffffab; mix-blend-mode:overlay; opacity:.1;"/></g><g><polygon points="19.81 77.41 111.82 129.44 199.88 77.41 109.85 29.53 19.81 77.41" style="fill:#eacc00;"/><polygon points="19.81 77.41 14.05 98.61 111.41 153.26 111.82 129.44 19.81 77.41" style="fill:#f4e51c;"/><polygon points="21.65 76.43 111.82 126.64 198.04 76.43 199.88 77.41 111.82 129.44 19.81 77.41 21.65 76.43" style="fill:#fdff32;"/><polygon points="38.6 58.86 111.41 98.61 181.09 58.86 109.85 20.97 38.6 58.86" style="fill:#eacc00;"/><polygon points="111.62 95.94 41.19 57.48 38.6 58.86 111.41 98.61 181.09 58.86 178.78 57.63 111.62 95.94" style="fill:#fdff32;"/><polygon points="56.31 42.48 53.09 54.86 109.85 85.37 109.85 71.7 56.31 42.48" style="fill:#f4e51c;"/><polygon points="161.09 42.48 164.85 53.88 109.85 85.37 109.85 71.7 161.09 42.48" style="fill:url(#uuid-843d2009-b923-4fe4-8b9e-9a0210a38c3d);"/><polygon points="38.6 58.86 33 74.19 111.35 118.71 111.41 98.61 38.6 58.86" style="fill:#f4e51c;"/><polygon points="181.09 58.86 186.21 75.1 111.35 118.71 111.41 98.61 181.09 58.86" style="fill:url(#uuid-cdf428ae-e3f5-46f2-8041-36e82c7a16b9);"/><polygon points="56.31 42.48 109.85 71.7 161.09 42.48 108.7 14.62 56.31 42.48" style="fill:#eacc00;"/><polygon points="109.85 69.87 58.01 41.57 56.31 42.48 109.85 71.7 161.08 42.48 159.42 41.59 109.85 69.87" style="fill:#fdff32;"/><polygon points="73.68 18.62 109.47 38.16 143.72 18.62 108.7 0 73.68 18.62" style="fill:#eacc00;"/><polygon points="89.79 18.83 109.11 29.38 127.61 18.83 108.7 8.78 89.79 18.83" style="fill:#453a08; opacity:.84;"/><polygon points="73.68 18.62 72.24 20.8 107.68 40.43 109.47 38.16 73.68 18.62" style="fill:#fdff32;"/><polygon points="143.72 18.62 145.22 20.8 111.35 40.43 109.47 38.16 143.72 18.62" style="fill:#fdff32;"/><polygon points="72.24 20.8 72.24 38.92 107.65 58.11 107.68 40.43 72.24 20.8" style="fill:#f4e51c;"/><polygon points="111.35 40.43 111.35 58.11 145.22 38.77 145.22 20.8 111.35 40.43" style="fill:url(#uuid-7001a1fa-22a9-47cd-9dca-152ac0f01f93);"/><polygon points="199.88 77.41 207.39 97.16 111.41 153.26 111.82 129.44 199.88 77.41" style="fill:url(#uuid-98dd73c0-f988-4898-8d73-076c53ccdbe0);"/><polygon points="145.58 51.2 185 120.82 191.11 116.84 151.5 47.73 145.58 51.2" style="fill:#eacc00;"/><polygon points="145.58 51.2 146.26 58.73 148.38 78.28 176.85 117.57 185 120.82 145.58 51.2" style="fill:#f4e51c;"/><polygon points="163.95 86.57 163.79 93.15 145.8 102.12 144.19 96.89 163.95 86.57" style="fill:url(#uuid-bec44884-4021-4725-8c54-451f567ee9bd);"/><polygon points="121.93 64.81 122.87 77.91 132.47 86.6 134.49 105.23 143.72 110.6 148.78 132.04 162.83 137.34 159.62 131.47 121.93 64.81" style="fill:#f4e51c;"/><g><polygon points="129.6 68.39 146.31 59.18 150.82 60.92 131.21 72.2 129.6 68.39" style="fill:#e6bc00;"/><polygon points="150.82 60.92 150.67 67.55 132.81 77.39 131.21 72.2 150.82 60.92" style="fill:url(#uuid-c76977e2-f8fa-494b-bda7-004b581a2a79);"/><polygon points="138.29 85.12 155.01 75.91 159.51 77.65 139.9 88.93 138.29 85.12" style="fill:#e6bc00;"/><polygon points="159.51 77.65 159.36 84.29 141.51 94.12 139.9 88.93 159.51 77.65" style="fill:url(#uuid-3b235cc1-8e6c-40b7-9b10-78cee16fdfe5);"/><polygon points="133.96 76.73 150.67 67.52 155.17 69.25 135.56 80.54 133.96 76.73" style="fill:#e6bc00;"/><polygon points="155.17 69.25 155.02 75.89 136.91 86.55 135.56 80.54 155.17 69.25" style="fill:url(#uuid-d14060b6-2559-44aa-938f-8859feca07b7);"/><polygon points="142.65 93.52 159.36 84.31 163.87 86.05 144.26 97.33 142.65 93.52" style="fill:#e6bc00;"/><polygon points="151.34 110.25 168.06 101.04 172.56 102.78 152.95 114.06 151.34 110.25" style="fill:#e6bc00;"/><polygon points="172.56 102.78 172.41 109.41 154.56 119.25 152.95 114.06 172.56 102.78" style="fill:url(#uuid-c19ff255-4725-4ef5-b92e-5c803834d4ff);"/><polygon points="155.78 118.59 172.49 109.38 176.99 111.11 157.38 122.39 155.78 118.59" style="fill:#e6bc00;"/><polygon points="176.99 111.11 176.85 117.75 158.99 127.58 157.38 122.39 176.99 111.11" style="fill:url(#uuid-ce575297-fde3-4e13-b81d-d2c9ecc788c4);"/><polygon points="147.01 101.86 163.72 92.65 168.22 94.38 148.61 105.66 147.01 101.86" style="fill:#e6bc00;"/><polygon points="168.22 94.38 168.07 101.02 149.96 111.67 148.61 105.66 168.22 94.38" style="fill:url(#uuid-4171fc10-7911-4b66-a805-51cf48ac3ff7);"/></g><polygon points="121.93 64.81 162.83 137.34 169.97 133.17 128.56 61.03 121.93 64.81" style="fill:#eacc00;"/><polygon points="107.65 58.11 111.35 58.11 111.35 40.43 107.68 40.43 107.65 58.11" style="fill:#e6bc00;"/><polygon points="109.47 38.16 107.68 40.43 111.35 40.43 109.47 38.16" style="fill:#fdf161; opacity:.5;"/><polygon points="108.7 8.78 109.11 29.38 127.61 18.83 108.7 8.78" style="fill:url(#uuid-4d2636d5-68d2-4fc8-849b-a7c570778fc4);"/></g><g><path d="m15.69,107.29s-6.6,1.56-8.94,5.5c-2.34,3.95,8.65,1.23,9.11,1.3.47.07-1.02-.08-1.16,4.03-.14,4.12,9.66.33,9.66.33,0,0,3.74,6.93,10.49,2.21,0,0,2.3,2.73,6.97,3.43,4.67.7.15-5.23.15-5.23,0,0,9.75,6.08,14.06,3.86,4.31-2.22-11.59-7.63-11.59-7.63,0,0,7.14,1.23,10.52-2.24,3.39-3.47-3.85-7.26-9.8-2.58,0,0,6.67-11.57.73-15.49-5.94-3.91-6.98,11.53-6.98,11.53,0,0,2.77-10.24-5.87-12.97-8.64-2.73-2.9,13.09-2.9,13.09,0,0-1.56-6.6-10.56-8.11-9.01-1.51,1.33,7.04,1.33,7.04,0,0-11.18-2.95-5.22,1.92Z" style="fill:url(#uuid-a1ccefe3-c016-41cf-9530-046684a46dd0);"/><path d="m41.82,122.73c-2.3.84-8.02-7.88-8.02-7.88,0,0-1.82,6.5-4.42,5.72-2.6-.79-3.21-5.33-3.21-5.33,0,0-7.83,4.07-9.07,2.45-1.24-1.62,2.75-5.18,2.75-5.18,0,0-8.75,1.26-9.93-.1-1.18-1.36,2.28-3.9,2.3-3.91-1.97.88-4.29,2.27-5.49,4.29-2.34,3.95,8.65,1.23,9.11,1.3.47.07-1.02-.08-1.16,4.03-.14,4.12,9.66.33,9.66.33,0,0,3.74,6.93,10.49,2.21,0,0,2.3,2.73,6.97,3.43,4.67.7.15-5.23.15-5.23,0,0,2.16,3.02-.14,3.86Z" style="mix-blend-mode:overlay; opacity:.12;"/></g><g><path d="m103.04,141.98s-3.7-9.85,1.72-10.26c5.42-.42,3.1,8.35,2.48,9.52,0,0,3.03-4.06,7.83-3.43,4.81.64,1.71,5.47-2.19,6.35,0,0,7.63-.88,12.26,2.13,7.08,4.6,2.74,12.24-9.11,8.76,0,0,2.45,1.71,2.69,3.65.37,2.97-8.65,4.72-11.44-1.28,0,0,.55,4.49-5.83,3.93-6.1-.53-6.03-3.19-3.32-5.83,0,0-7.53,4.55-12.15.5-4.61-4.06,6.83-5.94,6.83-5.94,0,0-7.14,1.49-10.24-4.42-3.11-5.92,4.19-9.28,14.09-3,0,0-2.42-3.19.23-4.64,1.29-.71,4.34-1.5,6.14,3.97Z" style="fill:url(#uuid-a718325d-3636-4aaf-827d-5f60e91e25cf);"/><path d="m127.91,149.04c.04,1.26-.36,2.96-2.55,3.81-3.75,1.47-11.56-.46-11.56-.46,2.11,1.39,2.36,6.37.46,6.99-1.9.62-7.55-3.8-7.55-3.8,0,0-4.42,3.69-6.37,2.36-1.95-1.34.92-5.14.92-5.14,0,0-7.14,2.41-8.52.87-1.38-1.54,3.79-3.9,3.79-3.9-7.76-.87-12.6-2.2-13.2-5.8-.59-3.52,2.81-4.62,2.97-4.67-3.79.27-5.56,2.86-3.73,6.35,2.8,5.34,8.88,4.65,10.05,4.46-1.5.27-10.88,2.17-6.63,5.91,4.61,4.06,12.15-.5,12.15-.5-2.71,2.65-2.78,5.31,3.32,5.83,6.38.55,5.83-3.93,5.83-3.93,2.79,6,11.81,4.26,11.44,1.28-.24-1.93-2.69-3.65-2.69-3.65,9.68,2.85,14.35-1.73,11.87-6.01Z" style="mix-blend-mode:overlay; opacity:.12;"/></g></g></g></g></g></svg>