<?xml version="1.0" encoding="UTF-8"?><svg xmlns="http://www.w3.org/2000/svg" xmlns:xlink="http://www.w3.org/1999/xlink" viewBox="0 0 162.77 114.17"><defs><linearGradient id="uuid-7de620e0-f75e-409a-baea-f9fa5202ddbc" x1="63.39" y1="27.28" x2="60.14" y2="47.44" gradientUnits="userSpaceOnUse"><stop offset="0" stop-color="#00b370"/><stop offset="1" stop-color="#00855e"/></linearGradient><linearGradient id="uuid-cb5ac4d2-1c30-43a1-bc7a-9c05abdc143e" x1="15.03" y1="41.55" x2="25.87" y2="63.8" xlink:href="#uuid-7de620e0-f75e-409a-baea-f9fa5202ddbc"/><linearGradient id="uuid-04b4e729-9101-46d0-a7c4-1b07f270e354" x1="45.57" y1="46.82" x2="56.11" y2="75.97" xlink:href="#uuid-7de620e0-f75e-409a-baea-f9fa5202ddbc"/><linearGradient id="uuid-037296a8-210f-4e36-b64a-0feb6ecaf64f" x1="142.98" y1="48.16" x2="142.98" y2="63.48" xlink:href="#uuid-7de620e0-f75e-409a-baea-f9fa5202ddbc"/></defs><g style="isolation:isolate;"><g id="uuid-f5097043-d888-4fd5-9bd6-15d625d5e9bd"><g id="uuid-d3512131-a9eb-4b7a-bb49-0048b63cae94"><g id="uuid-47b36c76-c044-4ba5-9bc6-9724257f4da8"><g><path d="m30.86,41.93s-.17-10.79,7.24-14.49c6.09-3.04,11.88.62,11.88.62,0,0,2.12-7,13.75-6.5,11.63.5,12.75,10.38,12.75,10.38,0,0,9.13-1.75,13.13,5.13,4,6.88.5,18.63-15.25,19.5-15.75.88-48.74,5.12-43.49-14.63Z" style="fill:url(#uuid-7de620e0-f75e-409a-baea-f9fa5202ddbc);"/><path d="m91.07,41.65c-1.06,7.53-9.12,12.37-12.18,9.44-3.13-3-8.19-2.38-8.19-2.38,0,0-.19-4.88-8.69-9.17-8.5-4.29-16.19,2.92-16.19,2.92-3.75-9.69-13.45-7.61-13.45-7.61l-.32.11c-1.24,3.61-1.19,6.97-1.19,6.97-5.25,19.75,27.74,15.51,43.49,14.63,12.6-.7,17.36-8.36,16.71-14.92Z" style="mix-blend-mode:overlay; opacity:.08;"/><path d="m44.36,47.02s-.83-11.5-13.5-12.33c-12.67-.83-12.83,10-12.83,10,0,0-6.83-.83-10.5,2.33-3.67,3.17-1.83,10.33-1.83,10.33,0,0-8.33,3.33-4.83,11.67s18.67,9.17,27.83,5c9.17-4.17,18.67-6.67,15.67-27Z" style="fill:url(#uuid-cb5ac4d2-1c30-43a1-bc7a-9c05abdc143e);"/><path d="m44.36,47.02s-.07-.96-.47-2.34c-5.97-.28-8.69,8.38-8.69,8.38-7.5,1-12,12.75-12,12.75,0,0-5.25,8.31-12.58,6.92-12.29-2.33-8.84-12.44-8.84-12.44,0,0,0,0,0,0l-.61.84c-1.18,1.85-1.76,4.44-.31,7.89,3.5,8.33,18.67,9.17,27.83,5,9.17-4.17,18.67-6.67,15.67-27Z" style="mix-blend-mode:overlay; opacity:.08;"/><path d="m67.7,52.95s-1.62-8.28-13.26-8.61c-11.64-.33-16.17,12.67-16.17,12.67,0,0-6.51-.23-10.58,6.99-4.07,7.21,2.44,13.61,8.96,13.61s8.96-1.63,8.96-1.63c0,0,11.63,4.77,18.84-5,0,0,8.49,1.63,11.75-5.12,3.26-6.75,0-14.42-8.49-12.91Z" style="fill:url(#uuid-04b4e729-9101-46d0-a7c4-1b07f270e354);"/><path d="m72.5,65.47c-3.26,1.51-8.49-.58-8.49-.58,0,0-1.16,7.09-6.98,8.37-5.81,1.28-11.34-5.58-11.34-5.58,0,0-3.95,6.51-11.69,5.87-5.25-.43-6.86-4.41-7.35-6.92-1.4,6.06,4.3,10.97,10,10.97,6.51,0,8.96-1.63,8.96-1.63,0,0,11.63,4.77,18.84-5,0,0,8.49,1.63,11.75-5.12,1.53-3.17,1.62-6.54.41-9.07.85,5.45-.85,7.17-4.11,8.68Z" style="mix-blend-mode:overlay; opacity:.08;"/></g><path d="m137.27,47.67l11.81-6.74s3.23-2.43,2.37-4.5l9.5-6.87s3.47-6.73-2.65-11.81c-8.56-7.09-20.36-3.31-20.36-3.31l-17.27,10.81,16.59,22.42Z" style="opacity:.15;"/><g><path d="m99.81,35.81v9.65c0,4.61,8.54,8.34,19.07,8.34s19.07-3.73,19.07-8.34v-9.65h-38.14Z" style="fill:#d9e0d1;"/><ellipse cx="118.88" cy="35.81" rx="19.07" ry="8.34" style="fill:#e5efdd;"/><path d="m132.88,14.46c-1.78-1.8-3.04-3.84-5.29-5.13-2.17-1.24-4.02-2.58-5.92-4.22-.09-.08-.16-.15-.23-.23h-17.64v29.2c0,3.64,6.75,6.59,15.07,6.59s15.07-2.95,15.07-6.59V14.95c-.37-.02-.74-.16-1.07-.49Z" style="fill:#d9e0d1;"/><g><path d="m123.09,6.28v34.12c1.5-.19,2.9-.48,4.17-.85V9.13c-1.5-.88-2.85-1.8-4.17-2.86Z" style="fill:#fff; opacity:.2;"/><path d="m111.77,39.88c1.29.3,2.69.53,4.17.65V4.87h-4.17v35.01Z" style="fill:#fff; opacity:.2;"/></g><path d="m127.59,9.33c-.11-.06-.22-.13-.33-.19v30.42c.48-.14.93-.29,1.37-.45V10.02c-.32-.25-.67-.48-1.04-.7Z" style="opacity:.04;"/><path d="m115.94,40.53c.45.04.91.07,1.37.09V4.87h-1.37v35.67Z" style="opacity:.04;"/><ellipse cx="118.87" cy="9.4" rx="7.58" ry="16.06" transform="translate(63.62 115.07) rotate(-66.92)" style="fill:#fff;"/></g><g><path d="m133.51,60.82s-5.34-1.45-5.21-5.41,5.37-3.5,5.37-3.5c0,0-.54-3.65,2.91-5.24,3.45-1.59,6.55,3.09,6.55,3.09,0,0,3.87-5.88,8.17-4.1,4.3,1.78.56,8.5.56,8.5,0,0,3.17-1.69,5.31.91,2.14,2.6-2.24,10.47-23.67,5.75Z" style="fill:url(#uuid-037296a8-210f-4e36-b64a-0feb6ecaf64f);"/><path d="m157.66,56.27c-2.24,5.99-12.02,3.56-16.36,1.6-4.35-1.97-7.9,2.61-10.91.34-3.01-2.26,0-5.81,0-5.81h0c-1.08.47-2.02,1.35-2.07,3-.13,3.96,5.21,5.41,5.21,5.41,18.73,4.13,24.44-1.36,24.15-4.55Z" style="mix-blend-mode:overlay; opacity:.08;"/></g><path d="m115.78,94.32l13.85-3v-2.32l13.36-7.68h4.27l12.75-5.1s4.62-3.47,1.93-8.43c-2.69-4.96-12.06-5.72-12.06-5.72l-36.02,22.92,1.93,9.33Z" style="opacity:.15;"/><path d="m98.52,114.08s5.19-.09,6.63-.83c1.44-.74,2.48-.63,2.48-.63,0,0,6.43-.64,9.39-1.33,2.95-.7,7.7-4.12,8.4-6.46.7-2.34-10.4-3.19-10.4-3.19l-16.5,12.45Z" style="opacity:.15;"/><path d="m144.71,101.04s5.28-.86,6.42-3.04c1.14-2.18.44-4.5-.63-5.17-1.08-.68-8.61,1.49-8.61,1.49l2.82,6.72Z" style="opacity:.15;"/><g><g><g><path d="m145.87,58.31c-2.74-1.15-5.16-1.19-7.23-.65h0s-.02,0-.02,0c-.83.22-1.6.52-2.31.89l-6.69,2.57,1.64,1.77c-.45.59-.68.98-.68.98l3.08,1.62,13.18,14.26,7.78-3.25c.42-4.16.82-14.16-8.75-18.19Z" style="fill:#fff;"/><path d="m122.63,67.03s5.76-9.66,15.4-5.6c9.64,4.06,9.23,14.14,8.81,18.32l-24.21-12.72Z" style="fill:#d9e0d1;"/></g><path d="m110.78,73.48l18.84-8.48s5.67-2.46,10.28,1.99c4.61,4.45,2.68,10.53,2.68,10.53l-21.12,10.61-10.69-14.64Z" style="fill:#e7f4dd;"/><path d="m140.46,67.58l-23.44,10.5,1.35,3.73s15.87-7.75,23.84-11.41c-.39-.95-.95-1.91-1.76-2.82Z" style="fill:#fff; opacity:.53;"/><path d="m141.41,68.84s-.01-.02-.02-.03c.34.53.61,1.06.82,1.59-7.33,3.36-21.34,10.19-23.55,11.27l.4,1.1s15.45-7.55,23.52-11.26c-.24-.88-.62-1.78-1.18-2.67Z" style="opacity:.05;"/><g><path d="m114.73,71.19c-2.96-1.24-5.57-1.28-7.8-.7h0s-.02,0-.02,0c-.89.23-1.73.56-2.49.96l-7.21,3.12,1.77,1.57c-.48.63-.74,1.05-.74,1.05l3.32,1.75,14.22,15.38,8.39-3.51c.45-4.48.89-15.28-9.44-19.62Z" style="fill:#fff;"/><path d="m90.92,81.27s4.95-11.09,15.35-6.71c10.4,4.38,9.96,15.25,9.5,19.77l-24.85-13.06Z" style="fill:#d9e0d1;"/></g></g><path d="m98.99,101.77s5.19-1.73,9.51-1.93c4.32-.2,9.58,3.33,11.17,5.25,1.6,1.93-12.04,7.52-12.04,7.52l-8.65-10.84Z" style="fill:#fff;"/><path d="m95.6,105.63s.6-3.19,3.39-3.86c2.79-.67,5.72,1,7.05,4.59,1.33,3.59,1.6,6.25,1.6,6.25,0,0-4.46-.47-5.25-.73s-6.78-6.25-6.78-6.25Z" style="fill:#d9e0d1;"/><path d="m134.55,95.56s-.91,2.38-.68,4.71c.24,2.32,10.83.77,10.83.77l-10.16-5.48Z" style="fill:#d9e0d1;"/><path d="m141.05,92.86s-4.61.36-6.33,2.22c-1.72,1.86,9.7,6.02,9.98,5.96.28-.07,2.54-3.63,2.54-3.63,0,0-1.01-5.03-6.19-4.54Z" style="fill:#fff;"/><path d="m87.29,101.55l12.51-9.33-.82-3.21,2.23-2.33,1.16-13.14,5.25-3.2s5.22-5.6,3.14-6.74c-2.07-1.14-12.84-4.61-17.15-5.53-4.31-.93-14.48,4.65-14.48,7.05s8.14,36.44,8.14,36.44Z" style="opacity:.15;"/><g><path d="m50.33,89.01v9.65c0,4.61,8.54,8.34,19.07,8.34s19.07-3.74,19.07-8.34v-9.65h-38.14Z" style="fill:#d9e0d1;"/><ellipse cx="69.4" cy="89.01" rx="19.07" ry="8.34" style="fill:#e5efdd;"/><path d="m54.33,58.06v29.2c0,3.64,6.75,6.59,15.07,6.59s15.07-2.95,15.07-6.59v-29.2h-30.15Z" style="fill:#d9e0d1;"/><path d="m69.68,67.79c6.87,0,12.28-2.17,14.79-3.39v-6.34h-30.15v6.59c2.04.92,7.76,3.14,15.35,3.14Z" style="opacity:.11;"/><g><path d="m73.61,93.59c1.5-.19,2.9-.48,4.17-.85v-34.68h-4.17v35.53Z" style="fill:#fff; opacity:.2;"/><path d="m62.29,93.07c1.29.3,2.69.53,4.17.65v-35.67h-4.17v35.01Z" style="fill:#fff; opacity:.2;"/></g><g style="opacity:.15;"><path d="m79.15,92.28v-34.22h-1.37v34.68c.48-.14.93-.29,1.37-.45Z" style="opacity:.15;"/><path d="m67.83,93.73v-35.67h-1.37v35.51c.45.06.9.11,1.37.15Z" style="opacity:.15;"/><path d="m77.78,92.74c-.87.26-1.81.47-2.8.64h0c.99-.17,1.93-.38,2.8-.64Z" style="opacity:.2;"/></g><path d="m50.33,46.26v9.65c0,4.61,8.54,8.34,19.07,8.34s19.07-3.73,19.07-8.34v-9.65h-38.14Z" style="fill:#d9e0d1;"/><path d="m83.44,40.62l-3.73.72-4.89-.83-1.68-2.42c-1.21-.11-2.46-.16-3.75-.16-10.53,0-19.07,3.73-19.07,8.34s8.54,8.34,19.07,8.34,19.07-3.73,19.07-8.34c0-2.18-1.91-4.16-5.03-5.64Z" style="fill:#fff;"/></g><path d="m95.6,105.63s-4.26,3.46-3.79,6.52c0,0,4.52,2.53,6.72,1.93s3.86-2.19,3.86-2.19c0,0,.07-6.78-6.78-6.25Z" style="fill:#fff;"/></g></g></g></g></g></svg>