<?xml version="1.0" encoding="UTF-8"?><svg xmlns="http://www.w3.org/2000/svg" xmlns:xlink="http://www.w3.org/1999/xlink" viewBox="0 0 207.39 264.77"><defs><linearGradient id="uuid-e0a41b4f-6fe1-45a5-aaec-b9a7be63a89f" x1="138.6" y1="187.68" x2="41.63" y2="170.51" gradientUnits="userSpaceOnUse"><stop offset="0" stop-color="#5c423a"/><stop offset=".58" stop-color="#73543f"/><stop offset="1" stop-color="#805e42"/></linearGradient><linearGradient id="uuid-d3f93542-83e8-4d64-aa6f-d9f5c6cdb8f2" x1="84.23" y1="211.04" x2="80.15" y2="218.52" gradientTransform="translate(-51.35 -83.68) rotate(2.71) scale(1 1.14)" gradientUnits="userSpaceOnUse"><stop offset="0" stop-color="#5c423a"/><stop offset="1" stop-color="#624a42"/></linearGradient><linearGradient id="uuid-979a9eb8-ff4b-4be0-93d0-a6a5d6297620" x1="48.59" y1="194.44" x2="137.76" y2="238.18" gradientTransform="translate(-51.35 -83.68) rotate(2.71) scale(1 1.14)" gradientUnits="userSpaceOnUse"><stop offset="0" stop-color="#b58156"/><stop offset=".39" stop-color="#8f674c"/><stop offset=".78" stop-color="#6e5244"/><stop offset="1" stop-color="#624a42"/></linearGradient><linearGradient id="uuid-5683ce70-1a74-45de-aeee-76b662be2cb2" x1="121.36" y1="207.08" x2="111.41" y2="252.57" gradientTransform="translate(12.25 -131.72) rotate(1.87)" gradientUnits="userSpaceOnUse"><stop offset="0" stop-color="#ffefd9"/><stop offset="1" stop-color="#ab918d"/></linearGradient><linearGradient id="uuid-8aca1ca4-22bb-45fe-acc1-c11e8cae94c0" x1="162.32" y1="72.5" x2="164.32" y2="65.74" gradientTransform="matrix(1, 0, 0, 1, 0, 0)" xlink:href="#uuid-5683ce70-1a74-45de-aeee-76b662be2cb2"/><linearGradient id="uuid-27af9a5d-fb7a-4594-a16f-fcf4fe75b45f" x1="-31.78" y1="537.19" x2="-31.78" y2="581.64" gradientTransform="translate(131.52 -444.81) rotate(8.49) scale(.97 1.03) skewX(6.28)" xlink:href="#uuid-5683ce70-1a74-45de-aeee-76b662be2cb2"/><linearGradient id="uuid-3a837f74-8152-42aa-b554-268921418224" x1="-7.06" y1="456.67" x2="-4.52" y2="471.43" gradientTransform="translate(117.43 -308.81) rotate(6.48) scale(.96 1.04) skewX(6.03)" xlink:href="#uuid-5683ce70-1a74-45de-aeee-76b662be2cb2"/><linearGradient id="uuid-550a7f30-6dc2-4c45-a3e7-052c5b869af6" x1="31.65" y1="204.99" x2="76.7" y2="204.99" gradientTransform="matrix(1, 0, 0, 1, 0, 0)" xlink:href="#uuid-d3f93542-83e8-4d64-aa6f-d9f5c6cdb8f2"/><linearGradient id="uuid-e236dd3a-5585-4af9-8b28-a66a4f7a693e" x1="116.98" y1="171.57" x2="126.79" y2="244.3" gradientTransform="matrix(1, 0, 0, 1, 0, 0)" xlink:href="#uuid-979a9eb8-ff4b-4be0-93d0-a6a5d6297620"/><linearGradient id="uuid-b3285194-5caa-4285-93a9-9f3a422f775f" x1="147.94" y1="208.43" x2="189.14" y2="208.43" gradientTransform="matrix(1, 0, 0, 1, 0, 0)" xlink:href="#uuid-d3f93542-83e8-4d64-aa6f-d9f5c6cdb8f2"/><linearGradient id="uuid-80fbd1f4-9563-4b1d-be72-b5383065c196" x1="114.39" y1="43.48" x2="152.06" y2="43.48" gradientUnits="userSpaceOnUse"><stop offset="0" stop-color="#a9784e"/><stop offset=".31" stop-color="#8f6749"/><stop offset=".75" stop-color="#6e5244"/><stop offset="1" stop-color="#624a42"/></linearGradient><linearGradient id="uuid-e1be39c8-eb57-4b07-9f0b-58b3270d298a" x1="84.53" y1="127.4" x2="242.53" y2="202.86" gradientUnits="userSpaceOnUse"><stop offset="0" stop-color="#a17052"/><stop offset=".24" stop-color="#8f654d"/><stop offset=".73" stop-color="#6e5145"/><stop offset="1" stop-color="#624a42"/></linearGradient><linearGradient id="uuid-7f68ca6f-4141-4be6-bec6-f08f31fa89e4" x1="32.35" y1="157.21" x2="95.69" y2="198.4" gradientTransform="matrix(1, 0, 0, 1, 0, 0)" xlink:href="#uuid-979a9eb8-ff4b-4be0-93d0-a6a5d6297620"/><linearGradient id="uuid-458ddbf1-ad75-489d-9008-d60419d3c3d3" x1="163.53" y1="35.53" x2="173.14" y2="37" xlink:href="#uuid-e1be39c8-eb57-4b07-9f0b-58b3270d298a"/><linearGradient id="uuid-e2428008-ee53-413d-81e3-7199db13812a" x1="788.58" y1="609.65" x2="799.05" y2="611.03" gradientTransform="translate(-640.36 -710.91) rotate(9.61) scale(1.13 .99)" xlink:href="#uuid-d3f93542-83e8-4d64-aa6f-d9f5c6cdb8f2"/></defs><g style="isolation:isolate;"><g id="uuid-fc19af4e-5402-4770-8a80-fa7d996a3a69"><g id="uuid-baa53c54-f4fa-44af-8de4-34a4b9f2f582"><g id="uuid-243d5558-334b-4eb0-b32d-ed8e89402336"><g><g><path d="m67.85,239.71s-26.67-.86-22.89,2.73c3.78,3.59,25.57,3.4,24.88,6.24-.69,2.83,4.77,7.37,22.54,6.61,17.77-.76,38.93-4.16,48.37-3.59,9.45.57,32.69.1,32.12-4.2-.57-4.3,8.69-2.6,15.3-5.81,6.61-3.21-21.63-5.29-36.89-6.42-15.26-1.13-83.44,4.45-83.44,4.45Z" style="fill:#fff;"/><path d="m58.18,176.11s61.04,17.33,64.61-7.75l.23-17.6,38.07,11.67s-30.27,86.53-99.8,36.7c-1.38-.99-1.7-21.94-3.12-23.03Z" style="fill:url(#uuid-e0a41b4f-6fe1-45a5-aaec-b9a7be63a89f);"/><polygon points="62.81 191.36 65.94 205.72 75.18 211.1 120.94 208.68 143.77 189.72 62.81 191.36" style="opacity:.16;"/><polygon points="40.09 175.31 37.47 180.69 0 152.08 .73 149.04 40.09 175.31" style="fill:url(#uuid-d3f93542-83e8-4d64-aa6f-d9f5c6cdb8f2);"/><polygon points=".73 149.04 3.36 148.81 37.49 169.54 40.09 175.31 .73 149.04" style="fill:url(#uuid-979a9eb8-ff4b-4be0-93d0-a6a5d6297620);"/><path d="m128.11,42.46l-40.68,161.21,9.27,1.32,36.02-161.85c-1.54-.21-3.08-.43-4.61-.67Z" style="fill:#442e24;"/><path d="m81.51,121.65l61.72,22.07s2.41,1.95,1.21,3.64c-1.2,1.69-3.72.73-3.72.73l-60.09-24.41s-1.69-1.41.89-2.03Z" style="fill:#442e24;"/><path d="m94.37,63.97l72.46.57c.21,0,.42.07.58.2,0,0,.02.01.03.02,1.66,1.34.63,3.78-1.57,3.73l-71.37-1.65s-3.33-1.27-.12-2.87Z" style="fill:#442e24;"/><path d="m163.13,72.94s-22.32,16.86-12.89,67.02l-64.06-20.61s-10.07-33.42,11.24-46.66l65.71.24Z" style="fill:url(#uuid-5683ce70-1a74-45de-aeee-76b662be2cb2);"/><path d="m163.13,72.94l-4.19-.02c-5.09,5.45-18.78,24.55-11.22,66.59l2.52.45c-9.43-50.16,12.89-67.02,12.89-67.02Z" style="fill:url(#uuid-8aca1ca4-22bb-45fe-acc1-c11e8cae94c0);"/><g><path d="m84.73,74.22c-1.52-2-3.22.96-3.22.96l-24.38,99.21c1.07.75,2.11,1.54,3.18,2.28l24.29-98.68c.55-2.34.12-3.77.12-3.77Z" style="fill:#442e24;"/><path d="m42.29,135.93l48.74,32.6s1.56.95.39,3.03c-1.17,2.08-1.34,2.03-4.63.08l-45.7-34.12s-1.21-1.5,1.2-1.59Z" style="fill:#442e24;"/><path d="m109.39,106.04s-29.96,11.76-18.59,54.61l-48.01-29.71s-5.72-23.3,9.44-36.01l57.16,11.11Z" style="fill:url(#uuid-27af9a5d-fb7a-4594-a16f-fcf4fe75b45f);"/><path d="m109.39,106.04l-3.68-.71c-6.24,3.45-26.08,17.58-17.13,54.01l2.21,1.31c-11.37-42.85,18.59-54.61,18.59-54.61Z" style="fill:url(#uuid-3a837f74-8152-42aa-b554-268921418224);"/><path d="m54.55,87.65l53.47,8.96s1.67.2,1.61,2.67c-.06,2.47-.22,2.49-3.72,2.12l-51.66-11.73s-1.63-.86.3-2.02Z" style="fill:#442e24;"/></g><path d="m34.7,165.22l-3.04,18.13,9.41,6.67s-.47,46.1,35.64,54.73l-6.64-49.99.91-8-36.28-21.54Z" style="fill:url(#uuid-550a7f30-6dc2-4c45-a3e7-052c5b869af6);"/><path d="m55.13,183.65s59.48,40.41,86.7,4.9l.64-19.42,46.67,1.95s-6.81,31.21-14.78,34.67c-7.97,3.46-17.9,3.15-18.29,15.14-.39,11.98,8.88,23.86,8.88,23.86,0,0-71.26,12.14-93.4-2.37-22.14-14.51-28.07-43.93-16.42-58.72Z" style="fill:url(#uuid-e236dd3a-5585-4af9-8b28-a66a4f7a693e);"/><path d="m168.53,201.64c-8.98,4.19-32.4,9.45-13.29,44.54,5.99-.8,9.7-1.43,9.7-1.43,0,0-9.27-11.88-8.88-23.86.39-11.98,10.32-11.68,18.29-15.14,7.98-3.47,14.78-34.67,14.78-34.67l-10.03-.42s-1.32,26.66-10.58,30.98Z" style="fill:url(#uuid-b3285194-5caa-4285-93a9-9f3a422f775f); opacity:.47;"/><path d="m114.39,27.71v24.7s4.48,4.72,12.17,6.32c7.69,1.6,14.47-.89,14.47-.89l11.03-23.09-37.67-7.04Z" style="fill:url(#uuid-80fbd1f4-9563-4b1d-be72-b5383065c196);"/><polygon points="142.46 169.14 123.02 150.77 168.54 153.46 189.14 171.08 142.46 169.14" style="fill:url(#uuid-e1be39c8-eb57-4b07-9f0b-58b3270d298a);"/><polygon points="122.79 168.36 141.83 188.56 142.46 169.14 123.02 150.77 122.79 168.36" style="fill:#3a2024; opacity:.44;"/><polygon points="41.89 159.52 34.7 165.22 70.98 186.76 70.05 175.24 41.89 159.52" style="fill:url(#uuid-7f68ca6f-4141-4be6-bec6-f08f31fa89e4);"/><path d="m80.22,214.82c-15.66-4.89-26.48-11.84-30.85-14.96-.04.66-.07,1.32-.08,1.99,4.95,3.42,15.51,9.9,30.35,14.54,12.3,3.85,25.1,5.72,38.05,5.55,13.1-.17,26.38-2.44,39.59-6.75.4-.86.89-1.6,1.45-2.26-33.13,11.32-60.74,7.44-78.52,1.89Zm42.84,21.1c-20.02.99-48.02-1.61-71.15-18.67.34.96.71,1.91,1.11,2.85,9.26,6.43,19.85,11.16,31.59,14.09,9.59,2.39,19.96,3.6,30.92,3.6,2.52,0,5.08-.06,7.66-.19,14.9-.74,27.59-3.48,34.92-5.41-.19-.52-.38-1.05-.55-1.59-7.26,1.9-19.79,4.6-34.5,5.32Zm22.7-53.63l-.1,1.67c15.43.99,30.43.02,40.36-.98.18-.59.34-1.17.51-1.74-9.85,1.02-25.1,2.05-40.77,1.04Zm-16.59,20.03c-1.39.63-2.88,1.22-4.45,1.75,1.54,0,3.15-.03,4.84-.08,12.26-.39,30.14-2.32,52.09-8.58.28-.65.55-1.31.82-1.99-22.33,6.49-40.5,8.49-52.88,8.88-.14,0-.28,0-.42.01Z" style="opacity:.15;"/><g style="opacity:.19;"><path d="m53.02,220.11s0,0,0,0c-.07-.16-.14-.33-.2-.49.06.16.13.32.2.48Z" style="fill:#fff; mix-blend-mode:overlay; opacity:.29;"/><path d="m117.7,223.34c12.9-.17,25.98-2.38,38.99-6.57.17-.56.37-1.09.6-1.58-13.21,4.31-26.49,6.58-39.59,6.75-12.95.17-25.75-1.7-38.05-5.55-14.8-4.63-25.35-11.08-30.31-14.51-.02.4-.03.81-.04,1.21,0,.05,0,.1,0,.15,4.95,3.42,15.51,9.89,30.35,14.54,12.3,3.85,25.1,5.72,38.05,5.55Z" style="fill:#fff; mix-blend-mode:overlay; opacity:.29;"/><path d="m52.63,219.16c.06.15.13.31.19.46-.06-.15-.12-.3-.18-.45,0,0,0,0,0,0Z" style="fill:#fff; mix-blend-mode:overlay; opacity:.29;"/><path d="m125.9,203.67h0s-.06.02-.08.03c.03-.01.06-.02.09-.03Z" style="fill:#fff; mix-blend-mode:overlay; opacity:.29;"/><path d="m158.11,232.19c-7.33,1.92-20.02,4.67-34.92,5.41-2.58.13-5.13.19-7.66.19-10.96,0-21.33-1.2-30.92-3.6-11.74-2.93-22.33-7.66-31.58-14.08.28.67.57,1.33.89,1.99,9.04,6.12,19.33,10.65,30.7,13.48,9.59,2.39,19.96,3.6,30.92,3.6,2.52,0,5.08-.06,7.66-.19,14.24-.7,27.79-3.7,35.36-5.64-.15-.38-.3-.76-.44-1.15,0,0,0,0,0,0Z" style="fill:#fff; mix-blend-mode:overlay; opacity:.29;"/><path d="m186.11,182.69s-.02.08-.03.12c.01-.04.02-.08.04-.12,0,0,0,0,0,0Z" style="fill:#fff; mix-blend-mode:overlay; opacity:.29;"/><path d="m186.02,183c.02-.06.04-.13.06-.19-.02.06-.04.13-.06.19,0,0,0,0,0,0Z" style="fill:#fff; mix-blend-mode:overlay; opacity:.29;"/><path d="m145.74,183.98l-.08,1.38c15.2.97,30,.05,39.93-.94.15-.48.29-.96.43-1.43-9.92,1-24.88,1.96-40.28.98Z" style="fill:#fff; mix-blend-mode:overlay; opacity:.29;"/><path d="m124.71,204.09s0,0,0,0c-1.3.44-2.67.83-4.1,1.17,3.06.06,7.71.18,8.94.14,12.13-.38,29.76-2.28,51.38-8.38.24-.52.48-1.05.71-1.59-21.95,6.26-39.83,8.19-52.09,8.58-1.69.05-3.3.08-4.84.08Z" style="fill:#fff; mix-blend-mode:overlay; opacity:.29;"/><path d="m181.65,195.42c.06-.13.11-.27.17-.41h0c-.06.14-.11.27-.17.41Z" style="fill:#fff; mix-blend-mode:overlay; opacity:.29;"/></g><path d="m114.39,52.41s2.5,2.63,6.98,4.63l3.28-25.33-2.95-2.64-7.31-1.37v24.7Z" style="fill:#fff; mix-blend-mode:overlay; opacity:.18;"/><path d="m152.35,34.14c-.43,2.56-9.28,3.19-19.76,1.41-10.48-1.77-18.63-5.29-18.2-7.84.43-2.56,9.28-3.19,19.76-1.41,10.48,1.77,18.63,5.28,18.2,7.84Z" style="fill:url(#uuid-458ddbf1-ad75-489d-9008-d60419d3c3d3);"/><path d="m147.2,33.03c-.28,1.65-6.77,1.93-14.5.62s-13.77-3.71-13.49-5.36c.28-1.65,6.77-1.93,14.5-.62s13.77,3.71,13.49,5.36Z" style="fill:url(#uuid-e2428008-ee53-413d-81e3-7199db13812a);"/><path d="m141.15.13c-1.08-.42-2.29.21-2.57,1.34l-7.86,31.81c1.48.41,2.6.56,4.26.71l7.12-32.09c.17-.75-.24-1.5-.95-1.78Z" style="fill:#3a2024;"/></g><path d="m192.01,238.36s7.45.75,8.2,4.15c.75,3.4-9.65,5.56-9.65,5.56,0,0,14.66.44,16.66-4.06,2-4.5-15.22-5.65-15.22-5.65Z" style="fill:#fff; mix-blend-mode:overlay;"/><path d="m59.16,253.98s-8.46,3.15-5.35,5.83c3.1,2.68,16.25,4.46,16.25,4.46,0,0-20.48,2.31-25.08-2.99-4.6-5.3,14.19-7.3,14.19-7.3Z" style="fill:#fff; mix-blend-mode:overlay;"/><path d="m44.6,235.44s-30.13,6.82-2.09,11.3c0,0-8.27,1.89-18.4-1.98-8.35-3.19,6.7-8.34,20.49-9.33Z" style="fill:#fff; mix-blend-mode:overlay;"/></g><path d="m142.5,169.13l-.64,19.43c-27.23,35.52-86.73-4.91-86.73-4.91-.38.49-.75.99-1.09,1.51h0s-.04.07-.07.1c-.19.29-.38.58-.55.88-.05.07-.09.15-.14.22-.02.03-.04.07-.06.1,0,0,0,0,0,0-6.92,11.93-4.64,30.63,6.34,44.81-11.99-20.8-6.03-37.41-3.42-42.85,7.37,4.75,27.64,16.54,49.11,18.02,26.97,1.85,40.07-16.43,40.07-16.43l1.26-20.72-4.09-.17Z" style="fill:#fff; mix-blend-mode:overlay; opacity:.29;"/></g></g></g></g></svg>