<?xml version="1.0" encoding="UTF-8"?><svg xmlns="http://www.w3.org/2000/svg" xmlns:xlink="http://www.w3.org/1999/xlink" viewBox="0 0 190.41 123.81"><defs><linearGradient id="uuid-c393728e-fc70-462f-851f-0dc6098ca44b" x1="118.01" y1="-12.01" x2="115.02" y2="22.37" gradientUnits="userSpaceOnUse"><stop offset="0" stop-color="#00b370"/><stop offset="1" stop-color="#00855e"/></linearGradient><linearGradient id="uuid-6f648b79-5f1f-4ad6-87b0-509c34c6a2dc" x1="165.84" y1="39.16" x2="162.96" y2="57.02" xlink:href="#uuid-c393728e-fc70-462f-851f-0dc6098ca44b"/><linearGradient id="uuid-6ef1b6e9-088f-4f19-8758-b3b1e5595478" x1="123.01" y1="51.79" x2="132.61" y2="71.5" xlink:href="#uuid-c393728e-fc70-462f-851f-0dc6098ca44b"/><linearGradient id="uuid-c51ed8dc-c756-412b-a30d-d7884324f960" x1="150.06" y1="54.5" x2="160.09" y2="82.25" xlink:href="#uuid-c393728e-fc70-462f-851f-0dc6098ca44b"/><linearGradient id="uuid-280ec0f7-d6ce-4da8-8693-536c0fa069a8" x1="72.38" y1="37.29" x2="68.67" y2="60.32" xlink:href="#uuid-c393728e-fc70-462f-851f-0dc6098ca44b"/><linearGradient id="uuid-a6555508-7090-45f7-b2db-19bd13929b75" x1="17.17" y1="53.58" x2="29.54" y2="78.99" xlink:href="#uuid-c393728e-fc70-462f-851f-0dc6098ca44b"/><linearGradient id="uuid-d63e9457-0eb7-465b-bc73-cc308349bfe6" x1="52.03" y1="57.07" x2="64.97" y2="92.85" xlink:href="#uuid-c393728e-fc70-462f-851f-0dc6098ca44b"/><linearGradient id="uuid-c893ff04-8e2a-4db1-af49-ad1f5fe5dbae" x1="46.11" y1="22.05" x2="84.36" y2="22.49" gradientTransform="translate(19 47.78) rotate(-6.07)" gradientUnits="userSpaceOnUse"><stop offset="0" stop-color="#8d5c51"/><stop offset="1" stop-color="#d59b5c"/></linearGradient><linearGradient id="uuid-f2b9e3f4-2ed4-4936-9af1-8a7158f92f14" x1="128.34" y1="76.65" x2="123.52" y2="59.54" gradientUnits="userSpaceOnUse"><stop offset="0" stop-color="#8d5c51"/><stop offset="1" stop-color="#d5a772"/></linearGradient><linearGradient id="uuid-9e79e846-d9be-4cad-840a-45b8bce3b05b" x1="24.83" y1="58.54" x2="61.9" y2="58.97" gradientTransform="translate(9.04 46.09) rotate(-6.67)" xlink:href="#uuid-c893ff04-8e2a-4db1-af49-ad1f5fe5dbae"/></defs><g style="isolation:isolate;"><g id="uuid-756b9e2e-7e7d-4c7e-be74-b0fb0004c4c8"><g id="uuid-29110300-e43c-4fcb-8bde-af660b6816de"><g id="uuid-a8531340-8473-47a6-945e-e73ebfd84117"><path d="m63.58,38.32s-4.25-10.26,5.46-19.78c6.56-6.42,17.54-1.22,17.54-1.22,0,0,.34-10.52,8.28-14.39,7.94-3.87,17.24,5.42,17.24,5.42,0,0,4.98-9.74,18.32-8.19,13.34,1.55,20.42,17.74,12.79,28.35,0,0,14.94-1.78,19.04,6.74,4.1,8.52.89,21.11.89,21.11l-36.69,11.13-27.74.47-35.13-29.65Z" style="fill:url(#uuid-c393728e-fc70-462f-851f-0dc6098ca44b);"/><path d="m156.82,30.26c-3.37,1.73-5.68,4.92-5.68,4.92-8.97-2.49-14.94,7.31-14.94,7.31-10.96-3.49-24.79,7.54-24.79,7.54l-7.36-11.7c-5.53-15.63-32.37-13.15-40.2-12.07-2.52,6.63-.27,12.07-.27,12.07l35.13,29.65,27.74-.47,36.69-11.13s3.21-12.59-.89-21.11c-1.15-2.39-3.15-3.97-5.43-5Z" style="opacity:.15;"/><g><path d="m137.03,52.14s-.15-9.56,6.42-12.84c5.39-2.69,10.52.55,10.52.55,0,0,1.88-6.2,12.18-5.76,10.3.44,11.29,9.19,11.29,9.19,0,0,8.08-1.55,11.62,4.54,3.54,6.09.44,16.5-13.51,17.27-13.95.77-43.17,4.53-38.52-12.96Z" style="fill:url(#uuid-6f648b79-5f1f-4ad6-87b0-509c34c6a2dc);"/><path d="m190.35,51.88c-.93,6.67-8.08,10.96-10.79,8.36-2.77-2.66-7.25-2.1-7.25-2.1,0,0-.17-4.32-7.69-8.12-7.53-3.8-14.34,2.58-14.34,2.58-3.32-8.58-11.91-6.74-11.91-6.74l-.28.1c-1.1,3.2-1.05,6.17-1.05,6.17-4.65,17.49,24.57,13.73,38.52,12.96,11.16-.62,15.37-7.41,14.8-13.21Z" style="mix-blend-mode:overlay; opacity:.08;"/><path d="m148.99,56.65s-.74-10.19-11.96-10.92c-11.22-.74-11.37,8.86-11.37,8.86,0,0-6.05-.74-9.3,2.07-3.25,2.8-1.62,9.15-1.62,9.15,0,0-7.38,2.95-4.28,10.33,3.1,7.38,16.53,8.12,24.65,4.43,8.12-3.69,16.53-5.9,13.88-23.91Z" style="fill:url(#uuid-6ef1b6e9-088f-4f19-8758-b3b1e5595478);"/><path d="m148.99,56.65s-.06-.85-.42-2.07c-5.28-.25-7.69,7.42-7.69,7.42-6.64.89-10.63,11.29-10.63,11.29,0,0-4.65,7.36-11.14,6.13-10.89-2.07-7.83-11.02-7.83-11.02,0,0,0,0,0,0l-.54.74c-1.04,1.64-1.55,3.94-.27,6.99,3.1,7.38,16.53,8.12,24.65,4.43,8.12-3.69,16.53-5.9,13.88-23.91Z" style="mix-blend-mode:overlay; opacity:.08;"/><path d="m171.13,60.34s-1.54-7.88-12.62-8.19c-11.08-.31-15.39,12.06-15.39,12.06,0,0-6.2-.21-10.07,6.65-3.87,6.86,2.32,12.95,8.52,12.95s8.52-1.55,8.52-1.55c0,0,11.07,4.54,17.93-4.76,0,0,8.08,1.55,11.18-4.87,3.1-6.42,0-13.73-8.08-12.29Z" style="fill:url(#uuid-c51ed8dc-c756-412b-a30d-d7884324f960);"/><path d="m175.69,72.25c-3.1,1.44-8.08-.55-8.08-.55,0,0-1.11,6.75-6.64,7.97-5.54,1.22-10.79-5.31-10.79-5.31,0,0-3.76,6.2-11.13,5.59-5-.41-6.53-4.2-7-6.58-1.34,5.77,4.09,10.44,9.52,10.44,6.2,0,8.52-1.55,8.52-1.55,0,0,11.07,4.54,17.93-4.76,0,0,8.08,1.55,11.18-4.87,1.46-3.02,1.54-6.23.39-8.63.81,5.19-.81,6.83-3.91,8.26Z" style="mix-blend-mode:overlay; opacity:.08;"/></g><g><path d="m35.24,54.03s-.19-12.32,8.27-16.55c6.95-3.47,13.56.71,13.56.71,0,0,2.43-7.99,15.7-7.42,13.27.57,14.56,11.85,14.56,11.85,0,0,10.42-2,14.99,5.85,4.57,7.85.57,21.27-17.41,22.27-17.98,1-55.66,5.84-49.67-16.71Z" style="fill:url(#uuid-280ec0f7-d6ce-4da8-8693-536c0fa069a8);"/><path d="m103.99,53.7c-1.21,8.6-10.42,14.13-13.91,10.78-3.57-3.43-9.35-2.71-9.35-2.71,0,0-.21-5.57-9.92-10.47-9.71-4.9-18.48,3.33-18.48,3.33-4.28-11.06-15.36-8.69-15.36-8.69l-.37.13c-1.42,4.12-1.36,7.96-1.36,7.96-5.99,22.55,31.68,17.71,49.67,16.71,14.39-.8,19.82-9.55,19.08-17.04Z" style="mix-blend-mode:overlay; opacity:.08;"/><path d="m50.65,59.84s-.95-13.13-15.42-14.08c-14.46-.95-14.65,11.42-14.65,11.42,0,0-7.8-.95-11.99,2.66-4.19,3.62-2.09,11.8-2.09,11.8,0,0-9.52,3.81-5.52,13.32,4,9.52,21.32,10.47,31.78,5.71,10.47-4.76,21.32-7.61,17.89-30.83Z" style="fill:url(#uuid-a6555508-7090-45f7-b2db-19bd13929b75);"/><path d="m50.65,59.84s-.08-1.09-.54-2.67c-6.81-.32-9.92,9.57-9.92,9.57-8.56,1.14-13.7,14.56-13.7,14.56,0,0-6,9.49-14.37,7.9-14.04-2.66-10.1-14.2-10.1-14.2,0,0,0,0,0,0l-.69.96c-1.34,2.12-2,5.07-.35,9.01,4,9.52,21.32,10.47,31.78,5.71,10.47-4.76,21.32-7.61,17.89-30.83Z" style="mix-blend-mode:overlay; opacity:.08;"/><path d="m79.2,64.6s-1.99-10.16-16.27-10.56c-14.29-.4-19.84,15.55-19.84,15.55,0,0-7.99-.28-12.99,8.57-5,8.85,3,16.7,10.99,16.7s10.99-2,10.99-2c0,0,14.27,5.85,23.12-6.14,0,0,10.42,2,14.42-6.28s0-17.7-10.42-15.84Z" style="fill:url(#uuid-d63e9457-0eb7-465b-bc73-cc308349bfe6);"/><path d="m85.08,79.97c-4,1.86-10.42-.71-10.42-.71,0,0-1.43,8.71-8.56,10.28-7.14,1.57-13.92-6.85-13.92-6.85,0,0-4.85,7.99-14.34,7.21-6.45-.53-8.42-5.41-9.02-8.49-1.72,7.44,5.28,13.46,12.28,13.46,7.99,0,10.99-2,10.99-2,0,0,14.27,5.85,23.12-6.14,0,0,10.42,2,14.42-6.28,1.88-3.89,1.99-8.03.5-11.13,1.04,6.69-1.04,8.8-5.04,10.66Z" style="mix-blend-mode:overlay; opacity:.08;"/></g><path d="m111.4,99.73s23.77-3.68,34.28-16.18c0,0-5.06-10.45-2.56-19.34,0,0-4.98-10.77-4.75-18.34,0,0-5.88-1.35-9.88,2.35-4,3.7-10.64,11.17-10.64,11.17l-6.45,40.34Z" style="opacity:.25;"/><g><path d="m113.9,38.6s-.51,5.09,5.42,7.56c5.93,2.47,16.58-14.42,7.3-23.41-8.18-7.92,4.56,3.58-12.72,15.85Z" style="fill:#fffaff;"/><path d="m129.92,34.88c-.07-1.38-.47-3.02-1.72-4.42-1.61-1.81-3.93-2.04-5.59-1.91-.28.69-.63,1.41-1.06,2.15,1.6-.1,4,0,5.26,1.32,2,2.09,1.9,5.73,1.33,7.84.8-1.53,1.43-3.22,1.79-4.98Z" style="fill:#a17c50;"/><path d="m77.78,25.02l10.56,72.06s5.27,3.45,17.06,3.31c11.79-.14,18.65-6.89,18.65-6.89l-4.86-72.89-41.42,4.41Z" style="fill:url(#uuid-c893ff04-8e2a-4db1-af49-ad1f5fe5dbae);"/><path d="m78.47,29.73c4.14,2.37,12.09,3.44,21.02,2.49,8.93-.95,16.47-3.67,20.02-6.86l-.32-4.75-41.42,4.41.69,4.71Z" style="fill:#a16e50;"/><path d="m85.72,45.15s4.47,4.19,1.07,11.1-26.34.04-25.05-15.38c1.13-13.6-1.3,6.82,23.98,4.28Z" style="fill:#fffaff;"/><g><path d="m72.68,45.64c.27.76.75,2.73-.68,4.55-1.56,1.98-4.51,2.06-6.25,1.9.65.71,1.37,1.37,2.12,1.98,2.06-.14,4.31-.93,5.68-2.66,1.44-1.83,1.8-4.17.99-6.43-.05-.14-.1-.27-.16-.4-1.21-.3-2.3-.67-3.28-1.09.57.35,1.21,1.1,1.58,2.15Z" style="fill:#a17c50;"/><path d="m70.61,43.27h0s.01,0,.02,0c0,0-.01,0-.02,0Z" style="fill:#a17c50;"/></g><path d="m105.57,51.16s4.44-2.25,2.8-6.7c-1.64-4.45-6.16-6.63-11.86-6.76-5.69-.12-7.6,5.04-2.29,9.93,5.31,4.89,10.37,3.84,11.07,3.56" style="fill:#f9e8cf;"/><path d="m104.09,47.91s2.02-1.03,1.27-3.05c-.75-2.02-2.8-3.02-5.4-3.07s-3.46,2.29-1.04,4.52c2.42,2.23,4.72,1.75,5.04,1.62" style="fill:#92744a;"/><path d="m117.81,30.74c-4.88,5.32-3.82,10.38-3.53,11.08l.03.28s2.2,4.3,6.51,2.85l-1.06-15.95c-.65.46-1.3,1.04-1.95,1.74Z" style="fill:#f9e8cf;"/><path d="m119.15,35.45c-2.22,2.42-1.74,4.72-1.61,5.04v.13s1.04,2.02,3.07,1.27c0,0,0,0,0,0l-.49-7.28c-.32.22-.65.5-.98.85Z" style="fill:#92744a;"/><ellipse cx="98.49" cy="22.81" rx="20.83" ry="6.54" transform="translate(-1.86 10.55) rotate(-6.07)" style="fill:#dca76c;"/><g><path d="m105.97,93.24c-8.73.93-16.27-.26-18.58-2.7l.96,6.53s5.27,3.45,17.06,3.31c11.79-.14,18.65-6.89,18.65-6.89l-.46-6.86c-1.7,2.89-8.85,5.67-17.63,6.6Z" style="fill:#a16e50;"/><path d="m105.21,86.07c-9.25.98-17.16-.41-18.94-3.15l.53,3.59c3.8,2.15,10.83,3.13,18.7,2.29,7.9-.84,14.57-3.29,17.83-6.2l-.24-3.65c-1.08,3.07-8.56,6.13-17.88,7.13Z" style="fill:#a16e50;"/></g><path d="m122.85,75.4l-.82-12.33-7.87-1.67-.23.03c-.08.01-7.67.93-15.51.46-3.47-.21-5.95,1.73-6.64,5.17-.92,4.58,1.71,10.99,6.61,12.71,2.68.94,6.45,1,10.29.59,5.77-.61,11.6-3.65,14.17-4.96Z" style="fill:#a16e50;"/><path d="m122.2,64.52l-8.1-1.72s-7.69.95-15.76.47c-8.07-.48-6.32,12.81.5,15.21,6.83,2.39,21.04-2.84,23.9-4.69h0l-.38-5.76-.16-3.5Z" style="fill:#fffaff;"/><path d="m122.33,67.51l-3.69-5.16-1.59-.34-4.74,13.96-8.45-13.2c-.12.04-.25.06-.39.08-.45.05-.83-.04-1.14-.21l-5.49,15.69,1.86.65,4.67-13.34,8.43,13.17s.08-.05.12-.06c0,0,0,0,0,0,.26-.17.55-.28.86-.31.18,0,.35,0,.53.01.08.01.15.03.23.05l4.59-13.5,4.47,6.23-.25-3.73Z" style="fill:#a16e50;"/><path d="m110.76,48.73l10.03-4.34s7.52,1.73,9.81,6.53c2.29,4.81,1.68,10.89.89,13.27-.79,2.39-10.78,4.15-10.78,4.15l-9.95-19.62Z" style="fill:url(#uuid-f2b9e3f4-2ed4-4936-9af1-8a7158f92f14);"/><path d="m110.76,48.73s9.41,2,10.82,7.48c1.4,5.48,1.09,13.68-1.63,11.89-2.72-1.79-7.93-7.5-7.93-7.5l-1.26-11.87Z" style="fill:#a16e44;"/></g><path d="m85.71,121.76s19.04-3.25,21.03-21.37c0,0-12.39-32.29-15.6-35.23s-7.82-2.37-7.82-2.37l.69,4.97,1.7,54Z" style="opacity:.25;"/><g><g><path d="m84.17,122.22c7.34-1.92,9.84-5.64,12.17-8.31l-8.11-43.66-36.19,8.18,11.07,41.15c1.58,4.03,9.25,5.75,21.07,2.65Z" style="fill:url(#uuid-9e79e846-d9be-4cad-840a-45b8bce3b05b);"/><path d="m53.13,82.53c3.91,1.67,11.05,1.79,18.86.03,7.81-1.76,14.2-4.95,17.01-8.14l-.77-4.17-36.19,8.18,1.1,4.1Z" style="fill:#a16e50;"/><path d="m88.22,70.25c.71,3.14-6.82,7.51-16.81,9.77-9.99,2.26-18.67,1.55-19.38-1.59-.71-3.14,6.82-7.51,16.81-9.77,9.99-2.26,18.67-1.55,19.38,1.59Z" style="fill:#dca76c;"/><path d="m79.22,97.48s3.25-1.36,2.32-4.58c-.93-3.22-4-5-8.01-5.38-4.01-.38-5.62,3.16-2.13,6.88,3.49,3.73,7.11,3.25,7.62,3.08" style="fill:#f9ffef;"/><path d="m79.15,94.25s1.48-.62,1.06-2.08c-.42-1.47-1.82-2.27-3.64-2.45-1.82-.17-2.56,1.44-.97,3.13,1.59,1.7,3.24,1.48,3.47,1.4" style="fill:#7c584a;"/><path d="m89.88,79.19c-1.23.19-2.56,1.16-3.67,3.04-2.6,4.39-1.13,7.74-.83,8.18l.06.19s2.21,2.74,5.05.95c.56-.35,1.04-.77,1.45-1.25l-2.05-11.1Z" style="fill:#f9ffef;"/><path d="m86.05,88.39s1.01,1.25,2.3.43c1.29-.81,1.67-2.38,1.33-4.18-.34-1.8-2.09-2.05-3.28-.05-1.18,2-.51,3.52-.38,3.72" style="fill:#7c584a;"/></g><g><path d="m94.89,106.12l-2.46-13.21-.48.55c-.06.07-6.15,7.01-14.46,6.46-3.96-.27-5.67,1.58-6.33,2.71-1.21,2.05-.98,4.97.6,7.44,1.5,2.34,3.79,3.74,6.33,3.93.46.03.93.03,1.41-.02,6.82-.7,12.19-4.29,15.39-7.85Z" style="fill:#a16e50;"/><path d="m94.52,104.14l-1.72-9.28c-1.45,1.51-7.44,7.16-15.41,6.62-9.19-.62-5.51,11.71,1.95,10.95,7.17-.74,12.51-4.89,15.18-8.29Z" style="fill:#fff;"/><path d="m89.71,103.62c1.35-.89,2.73-1.93,4.13-3.17l-.29-1.54c-1.43,1.31-2.84,2.41-4.21,3.34l-1.02-3.78c-.18.11-.37.23-.56.34-.01,0-.03.02-.04.02-.19.11-.39.23-.59.34,0,0,0,0,0,0l1.03,3.84c-2.1,1.28-4.09,2.16-5.93,2.75-.57-1.97-1.01-3.65-1.11-4.46t0,0c-.43.07-.87.13-1.32.16.14,1,.6,2.77,1.15,4.67-4.48,1.18-7.81.69-8.91.46.04.23.09.45.16.68,0,.03.02.06.03.09.07.23.15.45.24.68.4.07.9.13,1.49.17,1.78.13,4.34.06,7.39-.75.47,1.57.96,3.13,1.35,4.35,0,0,0,0,0,0,.44-.12.86-.24,1.28-.38-.45-1.39-.92-2.91-1.35-4.35,1.83-.6,3.82-1.47,5.9-2.72l1.14,4.24s.04-.03.07-.05c.38-.26.74-.53,1.09-.8,0,0,0,0,0,0l-1.11-4.14Z" style="fill:#a16e50;"/></g></g></g></g></g></g></svg>