<?xml version="1.0" encoding="UTF-8"?><svg xmlns="http://www.w3.org/2000/svg" xmlns:xlink="http://www.w3.org/1999/xlink" viewBox="0 0 254.35 159.36"><defs><linearGradient id="uuid-6972b7c7-77c5-46a1-b1cc-5c5616368075" x1="225.9" y1="80.2" x2="218.3" y2="111.18" gradientUnits="userSpaceOnUse"><stop offset="0" stop-color="#00b370"/><stop offset="1" stop-color="#00855e"/></linearGradient><linearGradient id="uuid-bbfc6dda-1907-4fd8-88ba-b1569ba47c17" x1="215.49" y1="106.42" x2="208.33" y2="129.46" xlink:href="#uuid-6972b7c7-77c5-46a1-b1cc-5c5616368075"/><linearGradient id="uuid-d739e6d2-41bf-480f-97c8-ce67c52eec02" x1="52.18" y1="66.23" x2="52.63" y2="106.72" xlink:href="#uuid-6972b7c7-77c5-46a1-b1cc-5c5616368075"/><linearGradient id="uuid-8c338196-192c-4ff8-9213-e7dcb3b7acf5" x1="40.89" y1="101.61" x2="40.89" y2="122.67" xlink:href="#uuid-6972b7c7-77c5-46a1-b1cc-5c5616368075"/><filter id="uuid-ee289ad8-e8d0-45b3-9ace-71d54983be51" x="0" y="0" width="129.51" height="39.9" color-interpolation-filters="sRGB" filterUnits="userSpaceOnUse"><feFlood flood-color="#fff" result="bg"/><feBlend in="SourceGraphic" in2="bg"/></filter><filter id="uuid-4a202ca6-df1f-408b-b85c-bb3ac5a41ad4" x="0" y="-7906.72" width="129.51" height="32766" color-interpolation-filters="sRGB" filterUnits="userSpaceOnUse"><feFlood flood-color="#fff" result="bg"/><feBlend in="SourceGraphic" in2="bg"/></filter><mask id="uuid-a743f6ee-7faf-450a-8617-f2e9d390af76" x="0" y="-7906.72" width="129.51" height="32766" maskUnits="userSpaceOnUse"/><linearGradient id="uuid-f13ccdf6-2060-4109-b98d-1dc49dbb6150" x1="1551.82" y1="16.68" x2="1663.17" y2="16.68" gradientTransform="translate(1894.88 251.63) rotate(-172.19) scale(1.15 -1.1)" gradientUnits="userSpaceOnUse"><stop offset="0" stop-color="#fff"/><stop offset=".09" stop-color="#f9f9f9"/><stop offset=".22" stop-color="#e8e8e8"/><stop offset=".36" stop-color="#ccc"/><stop offset=".52" stop-color="#a5a5a5"/><stop offset=".68" stop-color="#737373"/><stop offset=".86" stop-color="#373737"/><stop offset="1" stop-color="#000"/></linearGradient><mask id="uuid-c07a6b5e-ba18-430e-8549-19ca086f1e51" x="0" y="0" width="129.51" height="39.9" maskUnits="userSpaceOnUse"><g style="filter:url(#uuid-ee289ad8-e8d0-45b3-9ace-71d54983be51);"><g style="mask:url(#uuid-a743f6ee-7faf-450a-8617-f2e9d390af76);"><path d="m1.1,32.42c2.3.84,7,1.21,12.48,1.49,5.56.28,11.94.5,17.94.81,6.09.31,11.8.68,16.2,1.02,4.44.35,7.54.61,8.4.96,11.42,3.59,17.69,3.73,21.82,2.58,4.12-1.09,5.62-3.27,7.68-2.9,1.01.11,4.72.8,9.67,1.31,4.95.52,11.17.96,16.98.58,5.78-.39,11.17-1.64,14.32-4.82,3.14-3.08,4.05-8.19,1.28-14.78-7.57-16.4-14.17-16.8-18.59-14.47-2.37,1.2-4.58,3.11-6.55,4.58-1.92,1.5-3.59,2.56-3.41,2.62.03,0-2.45-5.23-5.89-8.56C91.72,1.17,89.87,0,87.94,0c-1.96,0-4.03,1.16-6.89,3.96-2.11,2.11-4.35,6.25-6.3,9.78-1.93,3.58-3.58,6.54-3.53,6.56.03.02-.57-2.03-2.03-3.64-1.47-1.61-3.84-2.81-7.92-1.45-4.89,1.61-8.28,6.69-8.28,6.69,0,0-1.23-.95-3.2-1.79-1.97-.84-4.67-1.57-7.87-1.23-5.74.62-10.71,3.27-14.01,5.67-3.3,2.4-5.03,4.5-4.39,3.97-.05,0-3.54-3.09-9.56-2.62-3.5.28-7.78,1.46-10.71,2.85-2.9,1.39-4.44,2.87-2.16,3.66Z" style="fill:url(#uuid-f13ccdf6-2060-4109-b98d-1dc49dbb6150); mix-blend-mode:multiply;"/></g></g></mask><linearGradient id="uuid-050eb668-78cb-433e-9cfb-b4a5055df687" x1="1551.82" y1="16.68" x2="1663.17" y2="16.68" gradientTransform="translate(1894.88 251.63) rotate(-172.19) scale(1.15 -1.1)" gradientUnits="userSpaceOnUse"><stop offset="0" stop-color="#b1d2ff"/><stop offset="1" stop-color="#cce2ff"/></linearGradient><filter id="uuid-4221df63-8583-4282-9963-e51d665bd3bf" x=".66" y="9.93" width="128.85" height="29.97" color-interpolation-filters="sRGB" filterUnits="userSpaceOnUse"><feFlood flood-color="#fff" result="bg"/><feBlend in="SourceGraphic" in2="bg"/></filter><filter id="uuid-31199984-49d1-4540-8aa6-916b610407d8" x=".66" y="-7906.72" width="128.85" height="32766" color-interpolation-filters="sRGB" filterUnits="userSpaceOnUse"><feFlood flood-color="#fff" result="bg"/><feBlend in="SourceGraphic" in2="bg"/></filter><mask id="uuid-85b6587a-f17b-4158-95bd-921b5cb5d9d8" x=".66" y="-7906.72" width="128.85" height="32766" maskUnits="userSpaceOnUse"/><linearGradient id="uuid-996acc7f-e560-43da-8975-ccaad22cb912" x1="1637" y1="50.91" x2="1561.68" y2="-4.28" xlink:href="#uuid-f13ccdf6-2060-4109-b98d-1dc49dbb6150"/><mask id="uuid-32585f76-6246-4c3b-a2e7-b20ac38c6425" x=".66" y="9.93" width="128.85" height="29.97" maskUnits="userSpaceOnUse"><g style="filter:url(#uuid-4221df63-8583-4282-9963-e51d665bd3bf);"><g style="mask:url(#uuid-85b6587a-f17b-4158-95bd-921b5cb5d9d8);"><path d="m1.1,32.42c-.17-.06-.31-.12-.44-.18.48-.34,1.35-.73,2.71-1.13,8.46-2.55,18.33-1.69,18.35-1.67-.02,0-1.69-2.58-1.27-2.6.22.09.43.17.63.26.43.21,1.02.53,1.63.87.4.25.66.45.77.53.01-.02.03-.04.05-.07.5.29.98.58,1.36.82,1.31.84,8.35-4.49,18.86-5.27,5.33-.39,9.05.23,11.54.96,2.48.73,3.72,1.59,3.71,1.58-.05-.01-.73-6.26,5.77-6.25,6.5.02,8.16,1.6,8.19,1.6-.05-.02,3.07-2.44,6.5-5.04,3.5-2.54,7.31-5.28,10.7-5.08,6.89.45,11.47,2.97,11.5,2.99,0,0,4.06-1.94,8.24-3.49,4.31-1.43,8.8-2.58,13.28,1.45,1.72,1.56,3.39,3.78,4.86,6.35,2.62,6.5,1.61,11.51-1.58,14.52-3.21,3.11-8.59,4.32-14.36,4.69-5.78.36-11.96-.08-16.87-.6-4.91-.51-8.58-1.19-9.59-1.3-2.06-.37-3.56,1.8-7.68,2.9-4.13,1.15-10.4,1.01-21.82-2.58-.86-.35-3.96-.6-8.4-.96-4.4-.34-10.11-.71-16.2-1.02-6-.31-12.38-.53-17.94-.81-5.48-.28-10.17-.64-12.48-1.49Z" style="fill:url(#uuid-996acc7f-e560-43da-8975-ccaad22cb912); mix-blend-mode:multiply;"/></g></g></mask><linearGradient id="uuid-07e1a6ca-4019-4039-b0a4-be195c161a3e" x1="1637" y1="50.91" x2="1561.68" y2="-4.28" xlink:href="#uuid-050eb668-78cb-433e-9cfb-b4a5055df687"/><filter id="uuid-47d2c383-3846-4ab5-98e9-cd85ab616071" x="139.57" y="24.19" width="77.89" height="18.96" color-interpolation-filters="sRGB" filterUnits="userSpaceOnUse"><feFlood flood-color="#fff" result="bg"/><feBlend in="SourceGraphic" in2="bg"/></filter><filter id="uuid-dfd6f5e7-0613-412e-a02a-5b021bc6b192" x="139.57" y="-7906.72" width="77.89" height="32766" color-interpolation-filters="sRGB" filterUnits="userSpaceOnUse"><feFlood flood-color="#fff" result="bg"/><feBlend in="SourceGraphic" in2="bg"/></filter><mask id="uuid-ea3df1c7-f643-41e3-bcfc-0055922d3827" x="139.57" y="-7906.72" width="77.89" height="32766" maskUnits="userSpaceOnUse"/><linearGradient id="uuid-42f6d587-30aa-4957-b034-6a509371a0c0" x1="556.37" y1="195.31" x2="557.07" y2="173.03" gradientTransform="translate(-257.29 -371.51) rotate(21.5) scale(1 1.17)" xlink:href="#uuid-f13ccdf6-2060-4109-b98d-1dc49dbb6150"/><mask id="uuid-ea8e2a1e-7ec6-473e-8131-dab3242dcf7a" x="139.57" y="24.19" width="77.89" height="18.96" maskUnits="userSpaceOnUse"><g style="filter:url(#uuid-47d2c383-3846-4ab5-98e9-cd85ab616071);"><g style="mask:url(#uuid-ea3df1c7-f643-41e3-bcfc-0055922d3827);"><path d="m215.01,27.02c-6.52-4.33-21.07,5.65-21.07,5.65,0,0,.96-3.82-2.14-3.94-3.08-.12-5.8,2.32-5.8,2.32,0,0-.67-5.09-8.6-6.69-7.79-1.57-18.27,8.19-18.27,8.19,0,0-1.73-2.6-6.07-2.58-4.3.01-7.67,6.27-7.67,6.27,0,0-2.4-.64-5.14.43-3.17,5.19,5.43,4.1,8.37,4.69,6.42,1.29,13.97,2.58,21.97,1.2,6.42-1.11,9.14-.99,15.21-.28,8.79,1.03,12.34-2.17,14.8-2.08,6.25.23,12.47-1.77,16.14-4.86,1.07-3.04,1.22-6.35-1.75-8.31Z" style="fill:url(#uuid-42f6d587-30aa-4957-b034-6a509371a0c0); mix-blend-mode:multiply;"/></g></g></mask><linearGradient id="uuid-a46e302d-ec9e-4188-8151-a9acec2cfc5e" x1="556.37" y1="195.31" x2="557.07" y2="173.03" gradientTransform="translate(-257.29 -371.51) rotate(21.5) scale(1 1.17)" gradientUnits="userSpaceOnUse"><stop offset="0" stop-color="#b1d2ff"/><stop offset="1" stop-color="#b1d2ff"/></linearGradient><linearGradient id="uuid-1c51d43d-d46a-40fa-9d45-7d0b51c26ffc" x1="126.21" y1="143.16" x2="126.21" y2="15.28" gradientUnits="userSpaceOnUse"><stop offset="0" stop-color="#7d455a"/><stop offset="1" stop-color="#e59464"/></linearGradient><linearGradient id="uuid-4415a88b-0235-4a17-a9af-8ea6e5d09324" x1="221.29" y1="175.53" x2="212.46" y2="142.36" gradientTransform="translate(-75.27 -155.19) rotate(4.76)" gradientUnits="userSpaceOnUse"><stop offset="0" stop-color="#992a42"/><stop offset="1" stop-color="#e5a05e"/></linearGradient><linearGradient id="uuid-37c6284a-d0b1-4a8c-96c0-112bb1733f9c" x1="2556.48" y1="-1037.29" x2="2552.12" y2="-1053.66" gradientTransform="translate(-2653.29 -150.44) rotate(26.63)" gradientUnits="userSpaceOnUse"><stop offset="0" stop-color="#995b38"/><stop offset="1" stop-color="#e5a05e"/></linearGradient><linearGradient id="uuid-0ee0d29d-c461-49f2-9a1a-93fadcfa126f" x1="2561.49" y1="-1032.43" x2="2559.6" y2="-1039.5" xlink:href="#uuid-37c6284a-d0b1-4a8c-96c0-112bb1733f9c"/><linearGradient id="uuid-02661165-5a3c-4c6c-9a68-5ddbaf0255a1" x1="2548.11" y1="-1014.13" x2="2547.12" y2="-1017.88" xlink:href="#uuid-37c6284a-d0b1-4a8c-96c0-112bb1733f9c"/><linearGradient id="uuid-a7ba64d9-3cba-431c-b1a5-e44141e2f9f5" x1="2544.24" y1="-1009.96" x2="2543.26" y2="-1013.62" xlink:href="#uuid-37c6284a-d0b1-4a8c-96c0-112bb1733f9c"/><linearGradient id="uuid-71e09d9f-ad4b-4880-a9a5-d44df1b760c7" x1="2548.64" y1="-1007.58" x2="2546.69" y2="-1014.9" xlink:href="#uuid-37c6284a-d0b1-4a8c-96c0-112bb1733f9c"/><linearGradient id="uuid-a559c9bb-b8c1-4451-ab16-13fd113242d0" x1="270.65" y1="138.9" x2="268.94" y2="132.48" gradientTransform="translate(-140.15 -70.58) rotate(4.76)" xlink:href="#uuid-37c6284a-d0b1-4a8c-96c0-112bb1733f9c"/><linearGradient id="uuid-27a9b28a-7e54-4e15-9aa8-33185d1f63a8" x1="264.93" y1="141.37" x2="261.83" y2="129.72" gradientTransform="translate(-140.15 -70.58) rotate(4.76)" xlink:href="#uuid-37c6284a-d0b1-4a8c-96c0-112bb1733f9c"/><linearGradient id="uuid-0afe0b19-aff1-4a72-b874-e829e0aa0692" x1="281.15" y1="118.96" x2="277.48" y2="105.14" gradientTransform="translate(-140.15 -70.58) rotate(4.76)" xlink:href="#uuid-37c6284a-d0b1-4a8c-96c0-112bb1733f9c"/><linearGradient id="uuid-921469b4-604b-4abe-aa90-8f87f5c0edf5" x1="-876.94" y1="-1415.52" x2="-879.89" y2="-1426.6" gradientTransform="translate(1184.75 1909.92) rotate(-5.22) scale(1 1.34)" xlink:href="#uuid-37c6284a-d0b1-4a8c-96c0-112bb1733f9c"/><filter id="uuid-9b118aa0-1d7e-4dbb-ab9b-3d46ace19d42" x="133.09" y="57.54" width="90.57" height="27.53" color-interpolation-filters="sRGB" filterUnits="userSpaceOnUse"><feFlood flood-color="#fff" result="bg"/><feBlend in="SourceGraphic" in2="bg"/></filter><filter id="uuid-a5e42474-528e-4677-904d-4fb6a1b0344a" x="133.09" y="-7906.72" width="90.57" height="32766" color-interpolation-filters="sRGB" filterUnits="userSpaceOnUse"><feFlood flood-color="#fff" result="bg"/><feBlend in="SourceGraphic" in2="bg"/></filter><mask id="uuid-dc4d5543-b885-4072-a2ca-4e184073d2f0" x="133.09" y="-7906.72" width="90.57" height="32766" maskUnits="userSpaceOnUse"/><linearGradient id="uuid-abd22424-6160-49bf-9e76-fe4ea36ff55f" x1="-338.9" y1="214.93" x2="-268.35" y2="214.93" gradientTransform="translate(590.49 -91.1) rotate(7.43) scale(1.28 1)" xlink:href="#uuid-f13ccdf6-2060-4109-b98d-1dc49dbb6150"/><mask id="uuid-58035ace-3ede-46b0-b8ab-d590f4aeba16" x="133.09" y="57.54" width="90.57" height="27.53" maskUnits="userSpaceOnUse"><g style="filter:url(#uuid-9b118aa0-1d7e-4dbb-ab9b-3d46ace19d42);"><g style="mask:url(#uuid-dc4d5543-b885-4072-a2ca-4e184073d2f0);"><path d="m223.66,75.33c.06-2.24-1.01-4.44-4.47-5.48-8.55-2.57-24.91,3.71-28.18,3.29-3.28-.43,5.5-13.79-7.6-15.5-13.1-1.71-22.08,18.88-25.02,18.79-2.23-.07-14.93-7.48-23.49-6.65-1.08,1.02-1.74,2.56-1.81,4.8-.16,5.57,23.95,12.12,50.86,10.12,23.91-1.78,35.9-5.12,39.71-9.36Z" style="fill:url(#uuid-abd22424-6160-49bf-9e76-fe4ea36ff55f); mix-blend-mode:multiply;"/></g></g></mask><linearGradient id="uuid-c0e87863-7231-44c2-8d73-6e43ce347d43" x1="-338.9" y1="214.93" x2="-268.35" y2="214.93" gradientTransform="translate(590.49 -91.1) rotate(7.43) scale(1.28 1)" xlink:href="#uuid-a46e302d-ec9e-4188-8151-a9acec2cfc5e"/><linearGradient id="uuid-2ba8eb67-6064-4639-b1a0-68c5f67eb072" x1="215.44" y1="121.75" x2="215.44" y2="140.57" gradientUnits="userSpaceOnUse"><stop offset="0" stop-color="#42bd4c"/><stop offset=".54" stop-color="#35ab54"/><stop offset="1" stop-color="#28995e"/></linearGradient><linearGradient id="uuid-d93876f8-af1f-42f4-9691-b6f92121f1a3" x1="171.62" y1="122.29" x2="171.62" y2="148.41" xlink:href="#uuid-6972b7c7-77c5-46a1-b1cc-5c5616368075"/><linearGradient id="uuid-87e524c6-00f8-418e-81a7-0eea8af9e392" x1="38.89" y1="124.62" x2="38.89" y2="145.58" xlink:href="#uuid-2ba8eb67-6064-4639-b1a0-68c5f67eb072"/></defs><g style="isolation:isolate;"><g id="uuid-1afd3278-2051-4264-87d0-8315ade5643d"><g id="uuid-c09566df-0732-44a4-8d47-5ced3bc344e5"><g id="uuid-2ab71857-7d2b-475f-a844-b54858bba225"><path d="m254.29,118.26c-.9-4.45-9.5-5.06-13.06-5.13,1.94-.11,4.89-.72,3.66-3.47-1.35-3-4.54-3.54-6.02-3.63,6.63-.12,10.2-5.72,5.21-7.94-5.18-2.31-12.15,2.15-12.15,2.15,0,0,8.94-7.51,2.65-8.17-4.65-.49-8.04,3.2-9.5,5.16.63-1.22,1.03-3.1-1.57-4.21-4.08-1.74-8.59,4.41-8.59,4.41-3.73-4.96-8.42-1.49-8.42-1.49,0,0,3.56-8.93-1.46-9.75-5.02-.83-6.64,2.31-6.64,2.31-1.46-3.97-5.99-7.93-7.94-3.31-1.95,4.63,1.78,8.93,1.78,8.93,0,0-3.73-1.82-7.29,3.14-3.56,4.96.13,7.41.13,7.41,0,0-3.69-.63-3.64,3.24.05,3.87.48,10.8.48,10.8,0,0-7.17-2.28-.69,2.35,1.69,1.2,4.51,2.02,7.77,2.56-2.17,2.34.31,6.15,7.78,5.71,7.15-.43,17.09-.23,23.2-.04.07.5.41,1.07,1.05,1.68,3.2,3.08,16.01,7.12,15.78,3.56-.12-1.85-1.85-3.16-3.49-3.98,5.31.42,11.6.24,13.04-2.7,2.59-5.29-6.16-7.6-6.16-7.6,0,0,15.23,3.64,14.09-1.98Z" style="fill:url(#uuid-6972b7c7-77c5-46a1-b1cc-5c5616368075);"/><path d="m191.3,115.72s-2.01-3.52-.17-6.03c1.84-2.51,5.69,1.51,5.69,1.51,0,0-1.42-3.01,0-4.27,1.42-1.26,4.86,2.51,4.86,2.51,0,0-1.09-6.62,2.51-7.79,3.6-1.17,2.09,6.45,2.09,6.45,0,0,1.93-4.44,5.28-3.43,3.35,1.01-.5,5.61-.5,5.61,0,0,12.98-11.3,20.52-4.27,0,0,3.01,4.44-4.94,5.36,0,0,8.62-.42,9.13,4.1.5,4.52-5.53,2.93-5.53,2.93,0,0,3.85.92,3.35,5.36-.5,4.44-8.12,4.52-8.12,4.52l-22.27-.84-12.98-1.67,1.09-10.05Z" style="fill:url(#uuid-bbfc6dda-1907-4fd8-88ba-b1569ba47c17);"/><path d="m38.56,116.65c-.13-.33-15.53,2.61-19.38,0-3.85-2.61,3.45-9.58,12.61-5.88,0,0-12.62-5.93-11.16-11.05,1.46-5.12,10.1-1.25,10.1-1.25,0,0-4.15-7.97.35-9.49,4.77-1.62,6.68,5.46,6.68,5.46,0,0,1.33-10.89,7.83-11,6.51-.11,4.25,6.86,4.25,6.86,0,0,1.19-11.43,7.97-11.43s5.79,6.19,5.79,6.19c0,0,3.91-7.27,10.54-4.12,6.64,3.16.27,13.72.27,13.72,0,0,5.71-5.55,11.28-1.85,5.58,3.7-7.43,8.93-7.43,8.93,0,0,9.87,2.03,8.41,7.48-1.46,5.44-13.32,4.39-13.32,4.39,0,0,6.9.76,5.58,5.34-1.33,4.57-26.82,2.29-26.82,2.29l-13.54-4.57Z" style="fill:url(#uuid-d739e6d2-41bf-480f-97c8-ce67c52eec02);"/><path d="m41.85,122.38s-5.23,4.32-8.71,3.6c-3.48-.72,2.32-5.62,3.19-5.62,0,0-8.42,2.74-11.9-2.16-3.48-4.89,9.29-2.59,9.29-2.59,0,0-9.44-5.18-8.13-10.8,1.31-5.62,9.14,4.89,9.14,4.89,0,0-2.9-7.49.87-9.36,3.77-1.87,5.23,4.75,5.23,4.75,0,0,1.04-4.19,5.95-5.76,4.91-1.57,2.76,6.77,2.76,6.77,0,0,5.35-3.47,7.75-.22,2.41,3.25-2.67,8.72-2.67,8.72,0,0,3.05-.58,1.6,5.18-1.45,5.76-14.57,2.08-14.57,2.08" style="fill:url(#uuid-8c338196-192c-4ff8-9213-e7dcb3b7acf5);"/><g><path d="m1.1,32.42c2.3.84,7,1.21,12.48,1.49,5.56.28,11.94.5,17.94.81,6.09.31,11.8.68,16.2,1.02,4.44.35,7.54.61,8.4.96,11.42,3.59,17.69,3.73,21.82,2.58,4.12-1.09,5.62-3.27,7.68-2.9,1.01.11,4.72.8,9.67,1.31,4.95.52,11.17.96,16.98.58,5.78-.39,11.17-1.64,14.32-4.82,3.14-3.08,4.05-8.19,1.28-14.78-7.57-16.4-14.17-16.8-18.59-14.47-2.37,1.2-4.58,3.11-6.55,4.58-1.92,1.5-3.59,2.56-3.41,2.62.03,0-2.45-5.23-5.89-8.56C91.72,1.17,89.87,0,87.94,0c-1.96,0-4.03,1.16-6.89,3.96-2.11,2.11-4.35,6.25-6.3,9.78-1.93,3.58-3.58,6.54-3.53,6.56.03.02-.57-2.03-2.03-3.64-1.47-1.61-3.84-2.81-7.92-1.45-4.89,1.61-8.28,6.69-8.28,6.69,0,0-1.23-.95-3.2-1.79-1.97-.84-4.67-1.57-7.87-1.23-5.74.62-10.71,3.27-14.01,5.67-3.3,2.4-5.03,4.5-4.39,3.97-.05,0-3.54-3.09-9.56-2.62-3.5.28-7.78,1.46-10.71,2.85-2.9,1.39-4.44,2.87-2.16,3.66Z" style="fill:#dae6ff;"/><g style="mask:url(#uuid-c07a6b5e-ba18-430e-8549-19ca086f1e51);"><path d="m1.1,32.42c2.3.84,7,1.21,12.48,1.49,5.56.28,11.94.5,17.94.81,6.09.31,11.8.68,16.2,1.02,4.44.35,7.54.61,8.4.96,11.42,3.59,17.69,3.73,21.82,2.58,4.12-1.09,5.62-3.27,7.68-2.9,1.01.11,4.72.8,9.67,1.31,4.95.52,11.17.96,16.98.58,5.78-.39,11.17-1.64,14.32-4.82,3.14-3.08,4.05-8.19,1.28-14.78-7.57-16.4-14.17-16.8-18.59-14.47-2.37,1.2-4.58,3.11-6.55,4.58-1.92,1.5-3.59,2.56-3.41,2.62.03,0-2.45-5.23-5.89-8.56C91.72,1.17,89.87,0,87.94,0c-1.96,0-4.03,1.16-6.89,3.96-2.11,2.11-4.35,6.25-6.3,9.78-1.93,3.58-3.58,6.54-3.53,6.56.03.02-.57-2.03-2.03-3.64-1.47-1.61-3.84-2.81-7.92-1.45-4.89,1.61-8.28,6.69-8.28,6.69,0,0-1.23-.95-3.2-1.79-1.97-.84-4.67-1.57-7.87-1.23-5.74.62-10.71,3.27-14.01,5.67-3.3,2.4-5.03,4.5-4.39,3.97-.05,0-3.54-3.09-9.56-2.62-3.5.28-7.78,1.46-10.71,2.85-2.9,1.39-4.44,2.87-2.16,3.66Z" style="fill:url(#uuid-050eb668-78cb-433e-9cfb-b4a5055df687); mix-blend-mode:screen; opacity:.93;"/></g><g style="mask:url(#uuid-32585f76-6246-4c3b-a2e7-b20ac38c6425);"><path d="m1.1,32.42c-.17-.06-.31-.12-.44-.18.48-.34,1.35-.73,2.71-1.13,8.46-2.55,18.33-1.69,18.35-1.67-.02,0-1.69-2.58-1.27-2.6.22.09.43.17.63.26.43.21,1.02.53,1.63.87.4.25.66.45.77.53.01-.02.03-.04.05-.07.5.29.98.58,1.36.82,1.31.84,8.35-4.49,18.86-5.27,5.33-.39,9.05.23,11.54.96,2.48.73,3.72,1.59,3.71,1.58-.05-.01-.73-6.26,5.77-6.25,6.5.02,8.16,1.6,8.19,1.6-.05-.02,3.07-2.44,6.5-5.04,3.5-2.54,7.31-5.28,10.7-5.08,6.89.45,11.47,2.97,11.5,2.99,0,0,4.06-1.94,8.24-3.49,4.31-1.43,8.8-2.58,13.28,1.45,1.72,1.56,3.39,3.78,4.86,6.35,2.62,6.5,1.61,11.51-1.58,14.52-3.21,3.11-8.59,4.32-14.36,4.69-5.78.36-11.96-.08-16.87-.6-4.91-.51-8.58-1.19-9.59-1.3-2.06-.37-3.56,1.8-7.68,2.9-4.13,1.15-10.4,1.01-21.82-2.58-.86-.35-3.96-.6-8.4-.96-4.4-.34-10.11-.71-16.2-1.02-6-.31-12.38-.53-17.94-.81-5.48-.28-10.17-.64-12.48-1.49Z" style="fill:url(#uuid-07e1a6ca-4019-4039-b0a4-be195c161a3e);"/></g></g><g><path d="m140.39,36.46c2.33-3.59,6.5-2.94,6.5-2.94,0,0,.3-4,4.31-6.05,4.04-2.06,7.07,3.51,7.07,3.51,0,0,2.97-10.27,15.54-11.85,12.91-1.62,14.47,8.9,14.47,8.9,0,0,1.24-2.12,4.13-1.37,2.91.76,3.5,4.14,3.5,4.14,0,0,6.74-17.07,19.1-8.75,12.72,8.56-.75,18.65-14.39,18.15-2.45-.09-6,3.11-14.8,2.08-6.07-.71-8.79-.83-15.21.28-8.01,1.38-15.56.09-21.97-1.2-2.98-.6-11.76.53-8.24-4.9Z" style="fill:#f4fbff;"/><g style="mask:url(#uuid-ea8e2a1e-7ec6-473e-8131-dab3242dcf7a);"><path d="m215.01,27.02c-6.52-4.33-21.07,5.65-21.07,5.65,0,0,.96-3.82-2.14-3.94-3.08-.12-5.8,2.32-5.8,2.32,0,0-.67-5.09-8.6-6.69-7.79-1.57-18.27,8.19-18.27,8.19,0,0-1.73-2.6-6.07-2.58-4.3.01-7.67,6.27-7.67,6.27,0,0-2.4-.64-5.14.43-3.17,5.19,5.43,4.1,8.37,4.69,6.42,1.29,13.97,2.58,21.97,1.2,6.42-1.11,9.14-.99,15.21-.28,8.79,1.03,12.34-2.17,14.8-2.08,6.25.23,12.47-1.77,16.14-4.86,1.07-3.04,1.22-6.35-1.75-8.31Z" style="fill:url(#uuid-a46e302d-ec9e-4188-8151-a9acec2cfc5e);"/></g></g><g><path d="m221.22,127.13c-3.1-4.78-9.29-7.34-22.85-23.96,0,0,0,0,0,0-1.36-2.05-3.28-4.52-5.43-7.22-6.32-7.96-19.28-30.17-29.91-52.91-12.58-26.91-16.24-24.46-25.92-27.23-11.84-3.39-21.27-3.56-29.29,2.24-8.84,6.38-13.72,20.91-27.21,45.82-10.03,18.52-21.22,39.34-23.44,43.47,0,0-6.2,10.7-22.03,17.7-.43.19-.86.38-1.3.56-16.8,6.98,44.09,23.01,102.58,23.01s87.92-16.69,84.81-21.47Z" style="fill:url(#uuid-1c51d43d-d46a-40fa-9d45-7d0b51c26ffc);"/><g><path d="m163.02,43.03c-12.58-26.91-16.24-24.46-25.92-27.23-11.84-3.39-21.27-3.56-29.29,2.24-6.81,4.92-11.31,14.78-19.45,30.9.28-.17.54-.34.74-.5,1.45-1.09.79,5.36,2.28,5.34,1.49-.02,5.73-5.43,8.15-6.14,2.43-.71,3.46,8.25,5.34,8.12,1.89-.13,5.84-9.49,9.66-9.17,3.82.32,7.93,9.93,9.41,9.75,3.55-.43,3.82-10.36,5.52-10.69,1.7-.33,5.1,12.3,7.72,11.36,2.64-.95,4.04-8.51,5.4-8.55,1.36-.04,4.92,7.22,7.86,6.72,2.96-.5,3.47-6.09,4.9-7.06,1.44-.98,4.08,6.92,5.63,5.85,1.26-.87,2.39-4.77,3.61-7.62-.53-1.1-1.05-2.21-1.57-3.32Z" style="fill:#ff9ea4; mix-blend-mode:overlay; opacity:.38;"/><path d="m149.5,26.42c-.63,4.59-10.4,7.44-21.83,6.48s-20.73-5.39-20.76-10.03c-.03-4.8,9.75-7.98,21.86-6.97,12.11,1.01,21.38,5.78,20.73,10.52Z" style="fill:url(#uuid-4415a88b-0235-4a17-a9af-8ea6e5d09324);"/><path d="m129.2,23.61c-8.84-.74-16.46.78-19.69,3.51,3.53,2.85,10.33,5.13,18.17,5.78,8.57.71,16.16-.7,19.72-3.36-3.27-2.89-10.1-5.26-18.19-5.93Z" style="fill:#ff6c62;"/><path d="m101.07,63.3c-.65,2.49-2.41,3.71-3.94,2.75-1.54-.96-2.32-3.79-1.72-6.34.62-2.61,2.42-3.93,4.02-2.9,1.58,1.02,2.31,3.95,1.64,6.49Z" style="fill:url(#uuid-37c6284a-d0b1-4a8c-96c0-112bb1733f9c); mix-blend-mode:multiply; opacity:.09;"/><path d="m101.02,72.62c-.3,1.09-1.09,1.62-1.79,1.2-.7-.42-1.03-1.65-.75-2.76.29-1.11,1.1-1.66,1.8-1.22.7.44,1.03,1.69.73,2.78Z" style="fill:url(#uuid-0ee0d29d-c461-49f2-9a1a-93fadcfa126f); mix-blend-mode:multiply; opacity:.28;"/><path d="m80.07,83.98c-.11.59-.54.88-.95.64-.41-.23-.66-.9-.55-1.49.11-.6.54-.89.96-.65.42.24.66.91.54,1.5Z" style="fill:url(#uuid-02661165-5a3c-4c6c-9a68-5ddbaf0255a1); mix-blend-mode:multiply; opacity:.28;"/><path d="m74.73,86c-.1.58-.51.86-.93.63-.41-.23-.67-.88-.57-1.46.1-.58.51-.87.93-.64.42.23.67.89.57,1.47Z" style="fill:url(#uuid-a7ba64d9-3cba-431c-b1a5-e44141e2f9f5); mix-blend-mode:multiply; opacity:.15;"/><path d="m78.66,89.03c-.22,1.14-1.06,1.7-1.88,1.25-.82-.45-1.33-1.75-1.12-2.91.21-1.17,1.06-1.75,1.9-1.28.84.47,1.33,1.79,1.11,2.94Z" style="fill:url(#uuid-71e09d9f-ad4b-4880-a9a5-d44df1b760c7); mix-blend-mode:multiply; opacity:.15;"/><path d="m118.82,87.77c-.05,1.07-.64,1.88-1.33,1.82s-1.22-.96-1.19-2.03c.03-1.08.63-1.91,1.33-1.85.7.06,1.23.98,1.19,2.06Z" style="fill:url(#uuid-a559c9bb-b8c1-4451-ab16-13fd113242d0); mix-blend-mode:multiply; opacity:.28;"/><path d="m113.53,87.71c-.04,1.91-1.07,3.36-2.31,3.26-1.24-.1-2.24-1.72-2.24-3.63,0-1.95,1.03-3.47,2.31-3.36,1.28.11,2.28,1.79,2.24,3.74Z" style="fill:url(#uuid-27a9b28a-7e54-4e15-9aa8-33185d1f63a8); mix-blend-mode:multiply; opacity:.28;"/><path d="m131.62,65.87c-.2,2.3-1.47,4.05-2.83,3.93-1.36-.11-2.33-2.04-2.17-4.35.16-2.35,1.43-4.19,2.84-4.07,1.41.12,2.37,2.14,2.16,4.49Z" style="fill:url(#uuid-0afe0b19-aff1-4a72-b874-e829e0aa0692); mix-blend-mode:multiply; opacity:.12;"/><path d="m138.72,88.22c.03,2.57-.97,4.74-2.22,4.91-1.25.16-2.32-1.73-2.4-4.28-.08-2.61.9-4.91,2.2-5.1,1.3-.18,2.38,1.84,2.41,4.47Z" style="fill:url(#uuid-921469b4-604b-4abe-aa90-8f87f5c0edf5); mix-blend-mode:multiply; opacity:.28;"/></g></g><g><path d="m133.09,74.58c-.16,5.57,23.95,12.12,50.86,10.12,32.3-2.4,42.86-7.66,40.85-14.14-4.01-12.97-22.51-1.39-22.51-1.39,0,0-1.85-22.09-25.09-17.85-14.31,2.61-18.19,23.16-18.19,23.16,0,0-25.51-14.36-25.92.1Z" style="fill:#f4fbff;"/><g style="mask:url(#uuid-58035ace-3ede-46b0-b8ab-d590f4aeba16);"><path d="m223.66,75.33c.06-2.24-1.01-4.44-4.47-5.48-8.55-2.57-24.91,3.71-28.18,3.29-3.28-.43,5.5-13.79-7.6-15.5-13.1-1.71-22.08,18.88-25.02,18.79-2.23-.07-14.93-7.48-23.49-6.65-1.08,1.02-1.74,2.56-1.81,4.8-.16,5.57,23.95,12.12,50.86,10.12,23.91-1.78,35.9-5.12,39.71-9.36Z" style="fill:url(#uuid-c0e87863-7231-44c2-8d73-6e43ce347d43);"/></g></g><path d="m209.74,142.11s-10.41,4.23-16.15,1.81c-5.73-2.41.75-6.64,6.64-6.94,0,0-5.43-4.07-3.92-7.09,1.51-3.02,9.66-.3,9.66-.3,0,0-3.47-4.98-.6-10.11,2.87-5.13,6.94,6.04,6.94,6.04,0,0,.75-10.26,7.54-11.32,6.79-1.06,1.06,10.71,1.06,10.71,0,0,7.39-5.73,11.62-1.21,4.23,4.53-7.09,6.34-7.09,6.34,0,0,11.92-.45,13.89,4.23,1.96,4.68-10.41,2.57-10.41,2.57,0,0,8.15,3.62,5.13,6.49-3.02,2.87-12.68-1.81-12.68-1.81,0,0,.45,6.49-4.08,6.19-4.53-.3-4.07-4.98-4.07-4.98,0,0-5.59,6.64-3.47-.6Z" style="fill:url(#uuid-2ba8eb67-6064-4639-b1a0-68c5f67eb072);"/><g style="mix-blend-mode:overlay; opacity:.12;"><path d="m233.51,130.74s4.7,1.53,3.59,3.8c-1.12,2.27-8.01,2.32-8.02,2.32,1.48.23,12.06,1.76,10.24-2.59-.79-1.89-3.21-2.94-5.81-3.52Z"/><path d="m229.41,137.07c1.74,1.26,2.39,4.29-.56,4.18-3.13-.11-8.28-2.11-8.28-2.11,0,0-1.42,5.57-3.65,6.1-2.24.52-2.09-5.93-2.09-5.93,0,0-2.57,1.9-3.51,1.68-.93-.22.17-2.82.17-2.82-6.04,4.64-15.05,4.75-15.61,2.41-.55-2.33,2.22-3.33,2.27-3.34-5.17,1.01-9.64,4.55-4.57,6.68,5.74,2.41,16.15-1.81,16.15-1.81-2.11,7.24,3.47.6,3.47.6,0,0-.45,4.68,4.07,4.98,4.53.3,4.08-6.19,4.08-6.19,0,0,9.66,4.68,12.68,1.81,2.55-2.43-2.88-5.39-4.62-6.25Z"/></g><path d="m168.4,130.51s-5.49-14.61,2.55-15.23c8.04-.62,4.6,12.4,3.69,14.12,0,0,4.49-6.03,11.62-5.08,7.13.95,2.54,8.12-3.25,9.42,0,0,11.32-1.3,18.19,3.17,10.5,6.82,4.06,18.16-13.52,12.99,0,0,3.63,2.54,3.99,5.41.55,4.41-12.83,7-16.97-1.91,0,0,.81,6.66-8.65,5.84-9.05-.79-8.94-4.73-4.92-8.66,0,0-11.18,6.76-18.02.74-6.85-6.02,10.13-8.82,10.13-8.82,0,0-10.59,2.22-15.2-6.56-4.61-8.78,6.22-13.77,20.91-4.45,0,0-3.59-4.73.33-6.88,1.91-1.05,6.44-2.23,9.11,5.89Z" style="fill:url(#uuid-d93876f8-af1f-42f4-9691-b6f92121f1a3);"/><path d="m205.3,140.98c.06,1.87-.53,4.38-3.78,5.65-5.56,2.18-17.15-.69-17.15-.69,3.12,2.06,3.51,9.45.69,10.36-2.82.91-11.2-5.63-11.2-5.63,0,0-6.55,5.48-9.45,3.5-2.9-1.98,1.37-7.62,1.37-7.62,0,0-10.59,3.58-12.64,1.3s5.63-5.79,5.63-5.79c-11.51-1.3-18.69-3.27-19.59-8.61-.87-5.22,4.16-6.85,4.4-6.93-5.62.4-8.25,4.25-5.54,9.42,4.16,7.92,13.17,6.89,14.9,6.62-2.22.41-16.14,3.22-9.83,8.77,6.84,6.02,18.02-.74,18.02-.74-4.02,3.93-4.13,7.87,4.92,8.66,9.46.82,8.65-5.84,8.65-5.84,4.14,8.91,17.52,6.32,16.97,1.91-.36-2.87-3.99-5.41-3.99-5.41,14.36,4.23,21.29-2.57,17.62-8.92Z" style="mix-blend-mode:overlay; opacity:.12;"/><g><path d="m19.12,132.08s-7.2,2.88-9.18,7.74c-1.98,4.86,9.99-.08,10.53-.08s-1.17.08-.63,4.76c.54,4.68,10.98-1.26,10.98-1.26,0,0,5.4,7.2,12.24.72,0,0,3.06,2.7,8.46,2.7s-.72-5.94-.72-5.94c0,0,12.06,5.22,16.56,1.98,4.5-3.24-14.4-6.66-14.4-6.66,0,0,8.28.18,11.52-4.32,3.24-4.5-5.58-7.56-11.52-1.26,0,0,5.58-14.22-1.8-17.64-7.38-3.42-5.94,14.22-5.94,14.22,0,0,1.4-12.05-8.84-13.67-10.24-1.63-1.06,15.29-1.06,15.29,0,0-2.88-7.2-13.32-7.38-10.44-.18,2.7,7.74,2.7,7.74,0,0-13.14-1.44-5.58,3.06Z" style="fill:url(#uuid-87e524c6-00f8-418e-81a7-0eea8af9e392);"/><g style="mix-blend-mode:overlay; opacity:.12;"><path d="m51.29,145.11c-2.46,1.34-10.4-7.55-10.4-7.55,0,0-.95,7.66-4.03,7.22-3.08-.45-4.53-5.48-4.53-5.48,0,0-8.17,5.93-9.84,4.31-1.68-1.62,2.24-6.32,2.24-6.32,0,0-9.68,2.91-11.24,1.57-1.56-1.34,1.92-4.79,1.94-4.81-2.08,1.33-4.46,3.3-5.48,5.78-1.98,4.86,9.99-.08,10.53-.08s-1.17.08-.63,4.76c.54,4.68,10.98-1.26,10.98-1.26,0,0,5.4,7.2,12.24.72,0,0,3.06,2.7,8.46,2.7s-.72-5.94-.72-5.94c0,0,2.95,3.05.49,4.39Z"/><path d="m67.36,142.7c1.9-1.37-.38-2.77-3.65-3.94.55.68,1.02,1.67.11,2.54-1.57,1.51-13.02-.59-13.02-.59,0,0,12.06,5.22,16.56,1.98Z"/></g></g></g></g></g></g></svg>